<svg width="141" height="140" viewBox="0 0 141 140" fill="none" xmlns="http://www.w3.org/2000/svg">
<g clip-path="url(#clip0_0_78)">
<path fill-rule="evenodd" clip-rule="evenodd" d="M81.0472 17.3783C86.274 27.402 86.9477 38.9338 84.8423 50.4159C81.6622 67.756 72.1461 84.9872 62.2218 96.8407C55.9852 104.291 49.2754 107.247 41.6151 113.147C41.305 113.386 41.2471 113.831 41.4862 114.141C41.7237 114.451 42.1705 114.509 42.4789 114.27C50.2288 108.3 56.999 105.287 63.3091 97.7502C73.3716 85.7315 83.0107 68.2545 86.2362 50.6713C88.3999 38.8727 87.6753 27.0244 82.3042 16.7232C82.1234 16.376 81.6965 16.2409 81.3493 16.4217C81.0022 16.6026 80.8664 17.0312 81.0472 17.3783Z" fill="#E99557"/>
<path fill-rule="evenodd" clip-rule="evenodd" d="M41.0556 115.862C41.0842 115.842 41.2719 115.707 41.4409 115.611C42.1393 115.209 43.4257 114.617 45.0929 113.966C50.688 111.789 60.5524 108.968 67.0824 110.812C67.4591 110.918 67.8499 110.698 67.9562 110.322C68.0625 109.945 67.8451 109.553 67.4684 109.447C60.674 107.528 50.3996 110.38 44.5786 112.646C43.7992 112.95 43.0974 113.242 42.4961 113.511C43.5768 111.813 44.6991 110.147 45.8431 108.489C49.1382 103.717 51.0002 98.9059 51.9653 93.1437C52.0306 92.7589 51.7691 92.3923 51.3837 92.3287C50.9989 92.2633 50.6324 92.5248 50.5687 92.9102C49.6388 98.4561 47.8487 103.09 44.6776 107.683C43.1831 109.85 41.724 112.035 40.3444 114.277C40.207 114.5 39.8566 115.083 39.8203 115.173C39.6129 115.683 39.9816 115.97 40.0661 116.029C40.1067 116.058 40.6313 116.388 41.0556 115.862ZM39.985 114.933C39.9736 114.948 39.9605 114.962 39.9484 114.979C39.9575 114.965 39.9706 114.951 39.985 114.933Z" fill="#E99557"/>
</g>
<defs>
<clipPath id="clip0_0_78">
<rect width="108.276" height="108.276" fill="white" transform="translate(39.236) rotate(21)"/>
</clipPath>
</defs>
</svg>
