<svg width="80" height="80" viewBox="0 0 80 80" fill="none" xmlns="http://www.w3.org/2000/svg">
<rect width="80" height="80" fill="white"/>
<path d="M76.6666 40V46.6667C76.6666 57.7134 60.25 66.6667 40 66.6667C20.11 66.6667 3.91998 58.03 3.34998 47.2567L3.33331 46.6667V40C3.33331 51.0467 19.75 60 40 60C60.25 60 76.6666 51.0467 76.6666 40ZM40 13.3334C60.25 13.3334 76.6666 22.2867 76.6666 33.3334C76.6666 44.38 60.25 53.3334 40 53.3334C19.75 53.3334 3.33331 44.38 3.33331 33.3334C3.33331 22.2867 19.75 13.3334 40 13.3334Z" fill="#2D4ACD"/>
</svg>
