<svg width="35" height="32" viewBox="0 0 35 32" fill="none" xmlns="http://www.w3.org/2000/svg">
<path fill-rule="evenodd" clip-rule="evenodd" d="M3.78094 9.93533C4.79736 7.21807 5.43872 4.33719 6.03968 1.54074C6.16705 0.938249 5.79387 0.33702 5.20397 0.242965C4.61735 0.105378 4.03701 0.494302 3.91335 1.0533C3.33325 3.76391 2.72146 6.55918 1.74523 9.14843C1.53435 9.69999 1.81744 10.3377 2.37887 10.5608C2.93986 10.7838 3.56962 10.4869 3.78094 9.93533Z" fill="#E99557"/>
<path fill-rule="evenodd" clip-rule="evenodd" d="M14.1112 19.314C19.0537 15.2226 23.4573 10.5157 28.5148 6.52173C28.9855 6.16753 29.0682 5.47362 28.6969 5.0039C28.3252 4.53414 27.6416 4.43227 27.1671 4.82996C22.0962 8.82283 17.6796 13.5286 12.7236 17.6189C12.2596 18.0174 12.1943 18.7127 12.5773 19.1834C12.9635 19.6106 13.6472 19.7126 14.1112 19.314Z" fill="#E99557"/>
<path fill-rule="evenodd" clip-rule="evenodd" d="M30.9391 29.2032C28.3175 29.1113 25.696 29.0192 23.0739 28.9273C22.476 28.8764 21.9698 29.3592 21.947 29.9706C21.9247 30.582 22.3966 31.0601 22.995 31.1111C25.6209 31.2033 28.2464 31.2958 30.8719 31.388C31.4735 31.3954 31.9767 30.9124 31.996 30.3007C32.0116 29.7325 31.5403 29.2106 30.9391 29.2032Z" fill="#E99557"/>
</svg>
