<svg width="224" height="20" viewBox="0 0 224 20" fill="none" xmlns="http://www.w3.org/2000/svg">
<path fill-rule="evenodd" clip-rule="evenodd" d="M134.057 9.1348C104.247 9.49002 74.4214 10.8992 44.7409 13.418C30.6298 14.6158 14.2426 14.4661 0.556643 18.5497C-0.125295 18.7552 0.00457807 19.3717 0.0193386 19.4333C0.0488597 19.5596 0.17288 19.9793 0.716069 19.9999C0.775111 20.0028 1.19133 19.9441 1.35074 19.9236C5.39218 19.3951 9.41887 18.7787 13.4633 18.2796C27.4268 16.5505 41.4316 15.2441 55.4571 14.0991C74.0731 12.5784 92.8485 11.7682 111.515 11.134C121.732 10.7876 132.194 11.2485 142.444 10.5322C146.208 10.5117 149.972 10.5088 153.736 10.5205C169.471 10.5763 185.188 11.1693 200.896 11.9825C205.947 12.2438 209.799 12.5256 214.744 12.7164C216.622 12.7898 219.6 12.8397 221.673 12.872C221.977 12.8779 222.753 12.8837 223.075 12.8867C223.107 12.8925 223.14 12.8925 223.175 12.8925C223.299 12.8925 223.358 12.8837 223.37 12.8837C224.073 12.781 224.008 12.1204 223.99 12.0206C223.987 12.0001 223.881 11.4423 223.276 11.4217C223.131 11.4159 222.095 11.41 221.696 11.4042C219.636 11.3719 216.669 11.322 214.8 11.2515C209.864 11.0607 206.015 10.7789 200.973 10.5176C185.241 9.70439 169.5 9.10844 153.742 9.05266C151.817 9.04679 149.889 9.04385 147.964 9.04679C147.899 8.87945 147.755 8.69157 147.436 8.60937C147.138 8.53304 145.003 8.46553 144.18 8.398C138.084 7.89893 138.264 7.92242 131.557 7.51435C121.398 6.89491 119.851 6.75393 109.286 6.49266C90.0942 6.01707 70.8936 6.05528 51.699 6.10225C42.2227 6.12867 32.0763 6.76571 22.4554 5.57675C25.626 5.20685 28.8083 4.93677 31.9848 4.62852C42.8309 3.57753 53.6858 2.92577 64.5761 2.4678C90.6994 1.36984 116.864 0.932452 142.978 2.42967C137.419 2.48251 131.864 2.60577 126.305 2.68504C103.677 3.01384 80.8304 2.76726 58.2497 4.47292C57.8453 4.50521 57.5412 4.85748 57.5708 5.25967C57.6003 5.6648 57.9575 5.96719 58.3619 5.93784C80.9131 4.23218 103.727 4.4817 126.325 4.1529C134.721 4.03253 143.114 3.81531 151.51 3.8799C154.391 3.90338 157.272 4.00908 160.154 4.04431C160.723 4.05312 162.191 4.16468 162.4 4.11771C162.864 4.01496 162.964 3.67439 162.994 3.50705C163.008 3.40724 163.056 2.83184 162.347 2.62634C157.512 1.22307 148.587 1.28765 143.888 1.01169C117.451 -0.544236 90.9621 -0.109762 64.5141 0.99994C53.5972 1.46085 42.7157 2.11555 31.8402 3.16947C28.0408 3.53644 24.2326 3.85349 20.448 4.34082C19.8369 4.42009 18.4642 4.5346 17.7999 4.65496C17.5224 4.70487 17.3217 4.77528 17.2331 4.82519C16.8877 5.01895 16.8257 5.30078 16.8257 5.4916C16.8228 5.63839 16.8848 6.15507 17.608 6.29599C28.6283 8.44199 40.6197 7.59947 51.702 7.57011C70.8848 7.52314 90.0705 7.48493 109.25 7.96051C119.789 8.22179 121.33 8.35983 131.468 8.97927C132.469 9.03799 133.316 9.09076 134.057 9.1348Z" fill="#E99557"/>
</svg>
