<svg width="80" height="80" viewBox="0 0 80 80" fill="none" xmlns="http://www.w3.org/2000/svg">
<path d="M33.3333 65.8266V54.6666C33.3333 50.39 36.65 47.0266 41.5567 45.1066C38.3923 43.9298 35.0428 43.3292 31.6667 43.3333C25.3667 43.3333 19.5467 45.39 14.8433 48.8666C16.3017 52.9911 18.7503 56.6944 21.9742 59.6515C25.198 62.6086 29.0986 64.729 33.3333 65.8266ZM62.9333 53.62C61.6167 51.8433 57.2333 50 51.6667 50C44.98 50 40 52.6566 40 54.6666V66.6666C44.6261 66.6692 49.1733 65.4676 53.1943 63.1801C57.2153 60.8926 60.5717 57.5979 62.9333 53.62ZM31.8333 38.3333C33.8225 38.3333 35.7301 37.5431 37.1366 36.1366C38.5432 34.7301 39.3333 32.8224 39.3333 30.8333C39.3333 28.8442 38.5432 26.9365 37.1366 25.53C35.7301 24.1235 33.8225 23.3333 31.8333 23.3333C29.8442 23.3333 27.9366 24.1235 26.53 25.53C25.1235 26.9365 24.3333 28.8442 24.3333 30.8333C24.3333 32.8224 25.1235 34.7301 26.53 36.1366C27.9366 37.5431 29.8442 38.3333 31.8333 38.3333ZM51.6667 41.6666C53.4348 41.6666 55.1305 40.9642 56.3807 39.714C57.631 38.4638 58.3333 36.7681 58.3333 35C58.3333 33.2318 57.631 31.5362 56.3807 30.2859C55.1305 29.0357 53.4348 28.3333 51.6667 28.3333C49.8986 28.3333 48.2029 29.0357 46.9526 30.2859C45.7024 31.5362 45 33.2318 45 35C45 36.7681 45.7024 38.4638 46.9526 39.714C48.2029 40.9642 49.8986 41.6666 51.6667 41.6666ZM40 73.3333C21.59 73.3333 6.66667 58.41 6.66667 40C6.66667 21.59 21.59 6.66663 40 6.66663C58.41 6.66663 73.3333 21.59 73.3333 40C73.3333 58.41 58.41 73.3333 40 73.3333Z" fill="#FF7977"/>
</svg>
