<svg width="80" height="80" viewBox="0 0 80 80" fill="none" xmlns="http://www.w3.org/2000/svg">
<path d="M70 9.99996V16.6666C70 29.5533 59.5533 40 46.6667 40H43.3333V43.3333H60V66.6666C60 70.35 57.0167 73.3333 53.3333 73.3333H26.6667C22.9833 73.3333 20 70.35 20 66.6666V43.3333H36.6667V33.3333C36.6667 20.4466 47.1133 9.99996 60 9.99996H70ZM18.3333 6.66663C26.7633 6.66663 34.2167 10.8366 38.7467 17.23C35.3467 21.7 33.3333 27.2833 33.3333 33.3333V36.6666H31.6667C17.86 36.6666 6.66666 25.4733 6.66666 11.6666V6.66663H18.3333Z" fill="#157575"/>
</svg>
