<svg width="24" height="148" viewBox="0 0 24 148" fill="none" xmlns="http://www.w3.org/2000/svg">
<path d="M12 24C5.3724 24 0 18.6276 0 12C0 5.3724 5.3724 0 12 0C18.6276 0 24 5.3724 24 12C24 18.6276 18.6276 24 12 24ZM12 21.6C14.5461 21.6 16.9879 20.5886 18.7882 18.7882C20.5886 16.9879 21.6 14.5461 21.6 12C21.6 9.45392 20.5886 7.01212 18.7882 5.21178C16.9879 3.41143 14.5461 2.4 12 2.4C9.45392 2.4 7.01212 3.41143 5.21178 5.21178C3.41143 7.01212 2.4 9.45392 2.4 12C2.4 14.5461 3.41143 16.9879 5.21178 18.7882C7.01212 20.5886 9.45392 21.6 12 21.6V21.6Z" fill="#0066FF"/>
<path d="M12 18C8.6862 18 6 15.3138 6 12C6 8.6862 8.6862 6 12 6C15.3138 6 18 8.6862 18 12C18 15.3138 15.3138 18 12 18ZM12 13.8C12.4774 13.8 12.9352 13.6104 13.2728 13.2728C13.6104 12.9352 13.8 12.4774 13.8 12C13.8 11.5226 13.6104 11.0648 13.2728 10.7272C12.9352 10.3896 12.4774 10.2 12 10.2C11.5226 10.2 11.0648 10.3896 10.7272 10.7272C10.3896 11.0648 10.2 11.5226 10.2 12C10.2 12.4774 10.3896 12.9352 10.7272 13.2728C11.0648 13.6104 11.5226 13.8 12 13.8V13.8Z" fill="#0066FF"/>
<rect x="11" y="29" width="1" height="119" fill="#C4C4C4"/>
</svg>
