<svg width="607" height="99" viewBox="0 0 607 99" fill="none" xmlns="http://www.w3.org/2000/svg">
<path d="M32.0695 23.372C29.4535 23.372 27.5575 24.104 26.3815 25.568C25.2295 27.008 24.6535 28.988 24.6535 31.508C24.6535 32.732 24.7975 33.848 25.0855 34.856C25.3735 35.84 25.8055 36.692 26.3815 37.412C26.9575 38.132 27.6775 38.696 28.5415 39.104C29.4055 39.488 30.4135 39.68 31.5655 39.68C32.1895 39.68 32.7175 39.668 33.1495 39.644C33.6055 39.62 34.0015 39.572 34.3375 39.5V30.824H39.9535V43.172C39.2815 43.436 38.2015 43.712 36.7135 44C35.2255 44.312 33.3895 44.468 31.2055 44.468C29.3335 44.468 27.6295 44.18 26.0935 43.604C24.5815 43.028 23.2855 42.188 22.2055 41.084C21.1255 39.98 20.2855 38.624 19.6855 37.016C19.1095 35.408 18.8215 33.572 18.8215 31.508C18.8215 29.42 19.1455 27.572 19.7935 25.964C20.4415 24.356 21.3295 23 22.4575 21.896C23.5855 20.768 24.9055 19.916 26.4175 19.34C27.9535 18.764 29.5855 18.476 31.3135 18.476C32.4895 18.476 33.5455 18.56 34.4815 18.728C35.4415 18.872 36.2575 19.052 36.9295 19.268C37.6255 19.46 38.1895 19.664 38.6215 19.88C39.0775 20.096 39.4015 20.264 39.5935 20.384L37.9735 24.884C37.2055 24.476 36.3175 24.128 35.3095 23.84C34.3255 23.528 33.2455 23.372 32.0695 23.372ZM56.2308 29.816C55.7508 29.696 55.1868 29.576 54.5388 29.456C53.8908 29.312 53.1948 29.24 52.4508 29.24C52.1148 29.24 51.7068 29.276 51.2268 29.348C50.7708 29.396 50.4228 29.456 50.1828 29.528V44H44.8188V26.072C45.7788 25.736 46.9068 25.424 48.2028 25.136C49.5228 24.824 50.9868 24.668 52.5948 24.668C52.8828 24.668 53.2308 24.692 53.6388 24.74C54.0468 24.764 54.4548 24.812 54.8628 24.884C55.2708 24.932 55.6788 25.004 56.0868 25.1C56.4948 25.172 56.8428 25.268 57.1308 25.388L56.2308 29.816ZM58.7548 34.676C58.7548 32.996 59.0068 31.532 59.5108 30.284C60.0388 29.012 60.7228 27.956 61.5628 27.116C62.4028 26.276 63.3628 25.64 64.4428 25.208C65.5468 24.776 66.6748 24.56 67.8268 24.56C70.5148 24.56 72.6388 25.388 74.1988 27.044C75.7588 28.676 76.5388 31.088 76.5388 34.28C76.5388 34.592 76.5268 34.94 76.5028 35.324C76.4788 35.684 76.4548 36.008 76.4308 36.296H64.2628C64.3828 37.4 64.8988 38.276 65.8108 38.924C66.7228 39.572 67.9468 39.896 69.4828 39.896C70.4668 39.896 71.4268 39.812 72.3628 39.644C73.3228 39.452 74.1028 39.224 74.7028 38.96L75.4228 43.316C75.1348 43.46 74.7508 43.604 74.2708 43.748C73.7908 43.892 73.2508 44.012 72.6508 44.108C72.0748 44.228 71.4508 44.324 70.7788 44.396C70.1068 44.468 69.4348 44.504 68.7628 44.504C67.0588 44.504 65.5708 44.252 64.2988 43.748C63.0508 43.244 62.0068 42.56 61.1668 41.696C60.3508 40.808 59.7388 39.764 59.3308 38.564C58.9468 37.364 58.7548 36.068 58.7548 34.676ZM71.3548 32.624C71.3308 32.168 71.2468 31.724 71.1028 31.292C70.9828 30.86 70.7788 30.476 70.4908 30.14C70.2268 29.804 69.8788 29.528 69.4468 29.312C69.0388 29.096 68.5228 28.988 67.8988 28.988C67.2988 28.988 66.7828 29.096 66.3508 29.312C65.9188 29.504 65.5588 29.768 65.2708 30.104C64.9828 30.44 64.7548 30.836 64.5868 31.292C64.4428 31.724 64.3348 32.168 64.2628 32.624H71.3548ZM87.9142 40.256C88.4422 40.256 88.9462 40.244 89.4262 40.22C89.9062 40.196 90.2902 40.16 90.5782 40.112V36.044C90.3622 35.996 90.0382 35.948 89.6062 35.9C89.1742 35.852 88.7782 35.828 88.4182 35.828C87.9142 35.828 87.4342 35.864 86.9782 35.936C86.5462 35.984 86.1622 36.092 85.8262 36.26C85.4902 36.428 85.2262 36.656 85.0342 36.944C84.8422 37.232 84.7462 37.592 84.7462 38.024C84.7462 38.864 85.0222 39.452 85.5742 39.788C86.1502 40.1 86.9302 40.256 87.9142 40.256ZM87.4822 24.56C89.0662 24.56 90.3862 24.74 91.4422 25.1C92.4982 25.46 93.3382 25.976 93.9622 26.648C94.6102 27.32 95.0662 28.136 95.3302 29.096C95.5942 30.056 95.7262 31.124 95.7262 32.3V43.46C94.9582 43.628 93.8902 43.82 92.5222 44.036C91.1542 44.276 89.4982 44.396 87.5542 44.396C86.3302 44.396 85.2142 44.288 84.2062 44.072C83.2222 43.856 82.3702 43.508 81.6502 43.028C80.9302 42.524 80.3782 41.876 79.9942 41.084C79.6102 40.292 79.4182 39.32 79.4182 38.168C79.4182 37.064 79.6342 36.128 80.0662 35.36C80.5222 34.592 81.1222 33.98 81.8662 33.524C82.6102 33.068 83.4622 32.744 84.4222 32.552C85.3822 32.336 86.3782 32.228 87.4102 32.228C88.1062 32.228 88.7182 32.264 89.2462 32.336C89.7982 32.384 90.2422 32.456 90.5782 32.552V32.048C90.5782 31.136 90.3022 30.404 89.7502 29.852C89.1982 29.3 88.2382 29.024 86.8702 29.024C85.9582 29.024 85.0582 29.096 84.1702 29.24C83.2822 29.36 82.5142 29.54 81.8662 29.78L81.1822 25.46C81.4942 25.364 81.8782 25.268 82.3342 25.172C82.8142 25.052 83.3302 24.956 83.8822 24.884C84.4342 24.788 85.0102 24.716 85.6102 24.668C86.2342 24.596 86.8582 24.56 87.4822 24.56ZM100.397 20.348L105.761 19.484V25.064H112.205V29.528H105.761V36.188C105.761 37.316 105.953 38.216 106.337 38.888C106.745 39.56 107.549 39.896 108.749 39.896C109.325 39.896 109.913 39.848 110.513 39.752C111.137 39.632 111.701 39.476 112.205 39.284L112.961 43.46C112.313 43.724 111.593 43.952 110.801 44.144C110.009 44.336 109.037 44.432 107.885 44.432C106.421 44.432 105.209 44.24 104.249 43.856C103.289 43.448 102.521 42.896 101.945 42.2C101.369 41.48 100.961 40.616 100.721 39.608C100.505 38.6 100.397 37.484 100.397 36.26V20.348ZM125.221 44V16.928L130.585 16.064V25.136C130.945 25.016 131.401 24.908 131.953 24.812C132.529 24.692 133.081 24.632 133.609 24.632C135.145 24.632 136.417 24.848 137.425 25.28C138.457 25.688 139.273 26.276 139.873 27.044C140.497 27.812 140.929 28.724 141.169 29.78C141.433 30.836 141.565 32.012 141.565 33.308V44H136.201V33.956C136.201 32.228 135.973 31.004 135.517 30.284C135.085 29.564 134.269 29.204 133.069 29.204C132.589 29.204 132.133 29.252 131.701 29.348C131.293 29.42 130.921 29.504 130.585 29.6V44H125.221ZM145.52 34.676C145.52 32.996 145.772 31.532 146.276 30.284C146.804 29.012 147.488 27.956 148.328 27.116C149.168 26.276 150.128 25.64 151.208 25.208C152.312 24.776 153.44 24.56 154.592 24.56C157.28 24.56 159.404 25.388 160.964 27.044C162.524 28.676 163.304 31.088 163.304 34.28C163.304 34.592 163.292 34.94 163.268 35.324C163.244 35.684 163.22 36.008 163.196 36.296H151.028C151.148 37.4 151.664 38.276 152.576 38.924C153.488 39.572 154.712 39.896 156.248 39.896C157.232 39.896 158.192 39.812 159.128 39.644C160.088 39.452 160.868 39.224 161.468 38.96L162.188 43.316C161.9 43.46 161.516 43.604 161.036 43.748C160.556 43.892 160.016 44.012 159.416 44.108C158.84 44.228 158.216 44.324 157.544 44.396C156.872 44.468 156.2 44.504 155.528 44.504C153.824 44.504 152.336 44.252 151.064 43.748C149.816 43.244 148.772 42.56 147.932 41.696C147.116 40.808 146.504 39.764 146.096 38.564C145.712 37.364 145.52 36.068 145.52 34.676ZM158.12 32.624C158.096 32.168 158.012 31.724 157.868 31.292C157.748 30.86 157.544 30.476 157.256 30.14C156.992 29.804 156.644 29.528 156.212 29.312C155.804 29.096 155.288 28.988 154.664 28.988C154.064 28.988 153.548 29.096 153.116 29.312C152.684 29.504 152.324 29.768 152.036 30.104C151.748 30.44 151.52 30.836 151.352 31.292C151.208 31.724 151.1 32.168 151.028 32.624H158.12ZM174.68 40.256C175.208 40.256 175.712 40.244 176.192 40.22C176.672 40.196 177.056 40.16 177.344 40.112V36.044C177.128 35.996 176.804 35.948 176.372 35.9C175.94 35.852 175.544 35.828 175.184 35.828C174.68 35.828 174.2 35.864 173.744 35.936C173.312 35.984 172.928 36.092 172.592 36.26C172.256 36.428 171.992 36.656 171.8 36.944C171.608 37.232 171.512 37.592 171.512 38.024C171.512 38.864 171.788 39.452 172.34 39.788C172.916 40.1 173.696 40.256 174.68 40.256ZM174.248 24.56C175.832 24.56 177.152 24.74 178.208 25.1C179.264 25.46 180.104 25.976 180.728 26.648C181.376 27.32 181.832 28.136 182.096 29.096C182.36 30.056 182.492 31.124 182.492 32.3V43.46C181.724 43.628 180.656 43.82 179.288 44.036C177.92 44.276 176.264 44.396 174.32 44.396C173.096 44.396 171.98 44.288 170.972 44.072C169.988 43.856 169.136 43.508 168.416 43.028C167.696 42.524 167.144 41.876 166.76 41.084C166.376 40.292 166.184 39.32 166.184 38.168C166.184 37.064 166.4 36.128 166.832 35.36C167.288 34.592 167.888 33.98 168.632 33.524C169.376 33.068 170.228 32.744 171.188 32.552C172.148 32.336 173.144 32.228 174.176 32.228C174.872 32.228 175.484 32.264 176.012 32.336C176.564 32.384 177.008 32.456 177.344 32.552V32.048C177.344 31.136 177.068 30.404 176.516 29.852C175.964 29.3 175.004 29.024 173.636 29.024C172.724 29.024 171.824 29.096 170.936 29.24C170.048 29.36 169.28 29.54 168.632 29.78L167.948 25.46C168.26 25.364 168.644 25.268 169.1 25.172C169.58 25.052 170.096 24.956 170.648 24.884C171.2 24.788 171.776 24.716 172.376 24.668C173 24.596 173.624 24.56 174.248 24.56ZM194.902 44.36C193.342 44.336 192.07 44.168 191.086 43.856C190.126 43.544 189.358 43.112 188.782 42.56C188.23 41.984 187.846 41.3 187.63 40.508C187.438 39.692 187.342 38.78 187.342 37.772V16.928L192.706 16.064V36.692C192.706 37.172 192.742 37.604 192.814 37.988C192.886 38.372 193.018 38.696 193.21 38.96C193.426 39.224 193.726 39.44 194.11 39.608C194.494 39.776 195.01 39.884 195.658 39.932L194.902 44.36ZM198.553 20.348L203.917 19.484V25.064H210.361V29.528H203.917V36.188C203.917 37.316 204.109 38.216 204.493 38.888C204.901 39.56 205.705 39.896 206.905 39.896C207.481 39.896 208.069 39.848 208.669 39.752C209.293 39.632 209.857 39.476 210.361 39.284L211.117 43.46C210.469 43.724 209.749 43.952 208.957 44.144C208.165 44.336 207.193 44.432 206.041 44.432C204.577 44.432 203.365 44.24 202.405 43.856C201.445 43.448 200.677 42.896 200.101 42.2C199.525 41.48 199.117 40.616 198.877 39.608C198.661 38.6 198.553 37.484 198.553 36.26V20.348ZM214.729 44V16.928L220.093 16.064V25.136C220.453 25.016 220.909 24.908 221.461 24.812C222.037 24.692 222.589 24.632 223.117 24.632C224.653 24.632 225.925 24.848 226.933 25.28C227.965 25.688 228.781 26.276 229.381 27.044C230.005 27.812 230.437 28.724 230.677 29.78C230.941 30.836 231.073 32.012 231.073 33.308V44H225.709V33.956C225.709 32.228 225.481 31.004 225.025 30.284C224.593 29.564 223.777 29.204 222.577 29.204C222.097 29.204 221.641 29.252 221.209 29.348C220.801 29.42 220.429 29.504 220.093 29.6V44H214.729ZM249.941 44H244.577V25.064H249.941V44ZM250.445 19.592C250.445 20.576 250.121 21.356 249.473 21.932C248.849 22.484 248.105 22.76 247.241 22.76C246.377 22.76 245.621 22.484 244.973 21.932C244.349 21.356 244.037 20.576 244.037 19.592C244.037 18.608 244.349 17.84 244.973 17.288C245.621 16.712 246.377 16.424 247.241 16.424C248.105 16.424 248.849 16.712 249.473 17.288C250.121 17.84 250.445 18.608 250.445 19.592ZM254.983 25.712C255.895 25.448 257.071 25.208 258.511 24.992C259.951 24.752 261.463 24.632 263.047 24.632C264.655 24.632 265.987 24.848 267.043 25.28C268.123 25.688 268.975 26.276 269.599 27.044C270.223 27.812 270.667 28.724 270.931 29.78C271.195 30.836 271.327 32.012 271.327 33.308V44H265.963V33.956C265.963 32.228 265.735 31.004 265.279 30.284C264.823 29.564 263.971 29.204 262.723 29.204C262.339 29.204 261.931 29.228 261.499 29.276C261.067 29.3 260.683 29.336 260.347 29.384V44H254.983V25.712ZM281.618 40.148C282.602 40.148 283.298 40.052 283.706 39.86C284.114 39.668 284.318 39.296 284.318 38.744C284.318 38.312 284.054 37.94 283.526 37.628C282.998 37.292 282.194 36.92 281.114 36.512C280.274 36.2 279.506 35.876 278.81 35.54C278.138 35.204 277.562 34.808 277.082 34.352C276.602 33.872 276.23 33.308 275.966 32.66C275.702 32.012 275.57 31.232 275.57 30.32C275.57 28.544 276.23 27.14 277.55 26.108C278.87 25.076 280.682 24.56 282.986 24.56C284.138 24.56 285.242 24.668 286.298 24.884C287.354 25.076 288.194 25.292 288.818 25.532L287.882 29.708C287.258 29.492 286.574 29.3 285.83 29.132C285.11 28.964 284.294 28.88 283.382 28.88C281.702 28.88 280.862 29.348 280.862 30.284C280.862 30.5 280.898 30.692 280.97 30.86C281.042 31.028 281.186 31.196 281.402 31.364C281.618 31.508 281.906 31.676 282.266 31.868C282.65 32.036 283.13 32.228 283.706 32.444C284.882 32.876 285.854 33.308 286.622 33.74C287.39 34.148 287.99 34.604 288.422 35.108C288.878 35.588 289.19 36.128 289.358 36.728C289.55 37.328 289.646 38.024 289.646 38.816C289.646 40.688 288.938 42.104 287.522 43.064C286.13 44.024 284.15 44.504 281.582 44.504C279.902 44.504 278.498 44.36 277.37 44.072C276.266 43.784 275.498 43.544 275.066 43.352L275.966 38.996C276.878 39.356 277.814 39.644 278.774 39.86C279.734 40.052 280.682 40.148 281.618 40.148ZM309.819 43.352C308.907 43.616 307.731 43.856 306.291 44.072C304.851 44.312 303.339 44.432 301.755 44.432C300.147 44.432 298.803 44.216 297.723 43.784C296.667 43.352 295.827 42.752 295.203 41.984C294.579 41.192 294.135 40.256 293.871 39.176C293.607 38.096 293.475 36.908 293.475 35.612V25.064H298.839V34.964C298.839 36.692 299.067 37.94 299.523 38.708C299.979 39.476 300.831 39.86 302.079 39.86C302.463 39.86 302.871 39.848 303.303 39.824C303.735 39.776 304.119 39.728 304.455 39.68V25.064H309.819V43.352ZM326.266 29.816C325.786 29.696 325.222 29.576 324.574 29.456C323.926 29.312 323.23 29.24 322.486 29.24C322.15 29.24 321.742 29.276 321.262 29.348C320.806 29.396 320.458 29.456 320.218 29.528V44H314.854V26.072C315.814 25.736 316.942 25.424 318.238 25.136C319.558 24.824 321.022 24.668 322.63 24.668C322.918 24.668 323.266 24.692 323.674 24.74C324.082 24.764 324.49 24.812 324.898 24.884C325.306 24.932 325.714 25.004 326.122 25.1C326.53 25.172 326.878 25.268 327.166 25.388L326.266 29.816ZM336.926 40.256C337.454 40.256 337.958 40.244 338.438 40.22C338.918 40.196 339.302 40.16 339.59 40.112V36.044C339.374 35.996 339.05 35.948 338.618 35.9C338.186 35.852 337.79 35.828 337.43 35.828C336.926 35.828 336.446 35.864 335.99 35.936C335.558 35.984 335.174 36.092 334.838 36.26C334.502 36.428 334.238 36.656 334.046 36.944C333.854 37.232 333.758 37.592 333.758 38.024C333.758 38.864 334.034 39.452 334.586 39.788C335.162 40.1 335.942 40.256 336.926 40.256ZM336.494 24.56C338.078 24.56 339.398 24.74 340.454 25.1C341.51 25.46 342.35 25.976 342.974 26.648C343.622 27.32 344.078 28.136 344.342 29.096C344.606 30.056 344.738 31.124 344.738 32.3V43.46C343.97 43.628 342.902 43.82 341.534 44.036C340.166 44.276 338.51 44.396 336.566 44.396C335.342 44.396 334.226 44.288 333.218 44.072C332.234 43.856 331.382 43.508 330.662 43.028C329.942 42.524 329.39 41.876 329.006 41.084C328.622 40.292 328.43 39.32 328.43 38.168C328.43 37.064 328.646 36.128 329.078 35.36C329.534 34.592 330.134 33.98 330.878 33.524C331.622 33.068 332.474 32.744 333.434 32.552C334.394 32.336 335.39 32.228 336.422 32.228C337.118 32.228 337.73 32.264 338.258 32.336C338.81 32.384 339.254 32.456 339.59 32.552V32.048C339.59 31.136 339.314 30.404 338.762 29.852C338.21 29.3 337.25 29.024 335.882 29.024C334.97 29.024 334.07 29.096 333.182 29.24C332.294 29.36 331.526 29.54 330.878 29.78L330.194 25.46C330.506 25.364 330.89 25.268 331.346 25.172C331.826 25.052 332.342 24.956 332.894 24.884C333.446 24.788 334.022 24.716 334.622 24.668C335.246 24.596 335.87 24.56 336.494 24.56ZM349.588 25.712C350.5 25.448 351.676 25.208 353.116 24.992C354.556 24.752 356.068 24.632 357.652 24.632C359.26 24.632 360.592 24.848 361.648 25.28C362.728 25.688 363.58 26.276 364.204 27.044C364.828 27.812 365.272 28.724 365.536 29.78C365.8 30.836 365.932 32.012 365.932 33.308V44H360.568V33.956C360.568 32.228 360.34 31.004 359.884 30.284C359.428 29.564 358.576 29.204 357.328 29.204C356.944 29.204 356.536 29.228 356.104 29.276C355.672 29.3 355.288 29.336 354.952 29.384V44H349.588V25.712ZM369.888 34.532C369.888 33.164 370.104 31.88 370.536 30.68C370.992 29.456 371.64 28.4 372.48 27.512C373.32 26.6 374.34 25.88 375.54 25.352C376.74 24.824 378.108 24.56 379.644 24.56C380.652 24.56 381.576 24.656 382.416 24.848C383.256 25.016 384.072 25.268 384.864 25.604L383.748 29.888C383.244 29.696 382.692 29.528 382.092 29.384C381.492 29.24 380.82 29.168 380.076 29.168C378.492 29.168 377.304 29.66 376.512 30.644C375.744 31.628 375.36 32.924 375.36 34.532C375.36 36.236 375.72 37.556 376.44 38.492C377.184 39.428 378.468 39.896 380.292 39.896C380.94 39.896 381.636 39.836 382.38 39.716C383.124 39.596 383.808 39.404 384.432 39.14L385.188 43.532C384.564 43.796 383.784 44.024 382.848 44.216C381.912 44.408 380.88 44.504 379.752 44.504C378.024 44.504 376.536 44.252 375.288 43.748C374.04 43.22 373.008 42.512 372.192 41.624C371.4 40.736 370.812 39.692 370.428 38.492C370.068 37.268 369.888 35.948 369.888 34.532ZM386.974 34.676C386.974 32.996 387.226 31.532 387.73 30.284C388.258 29.012 388.942 27.956 389.782 27.116C390.622 26.276 391.582 25.64 392.662 25.208C393.766 24.776 394.894 24.56 396.046 24.56C398.734 24.56 400.858 25.388 402.418 27.044C403.978 28.676 404.758 31.088 404.758 34.28C404.758 34.592 404.746 34.94 404.722 35.324C404.698 35.684 404.674 36.008 404.65 36.296H392.482C392.602 37.4 393.118 38.276 394.03 38.924C394.942 39.572 396.166 39.896 397.702 39.896C398.686 39.896 399.646 39.812 400.582 39.644C401.542 39.452 402.322 39.224 402.922 38.96L403.642 43.316C403.354 43.46 402.97 43.604 402.49 43.748C402.01 43.892 401.47 44.012 400.87 44.108C400.294 44.228 399.67 44.324 398.998 44.396C398.326 44.468 397.654 44.504 396.982 44.504C395.278 44.504 393.79 44.252 392.518 43.748C391.27 43.244 390.226 42.56 389.386 41.696C388.57 40.808 387.958 39.764 387.55 38.564C387.166 37.364 386.974 36.068 386.974 34.676ZM399.574 32.624C399.55 32.168 399.466 31.724 399.322 31.292C399.202 30.86 398.998 30.476 398.71 30.14C398.446 29.804 398.098 29.528 397.666 29.312C397.258 29.096 396.742 28.988 396.118 28.988C395.518 28.988 395.002 29.096 394.57 29.312C394.138 29.504 393.778 29.768 393.49 30.104C393.202 30.44 392.974 30.836 392.806 31.292C392.662 31.724 392.554 32.168 392.482 32.624H399.574ZM417.545 44V16.928L422.909 16.064V25.136C423.269 25.016 423.725 24.908 424.277 24.812C424.853 24.692 425.405 24.632 425.933 24.632C427.469 24.632 428.741 24.848 429.749 25.28C430.781 25.688 431.597 26.276 432.197 27.044C432.821 27.812 433.253 28.724 433.493 29.78C433.757 30.836 433.889 32.012 433.889 33.308V44H428.525V33.956C428.525 32.228 428.297 31.004 427.841 30.284C427.409 29.564 426.593 29.204 425.393 29.204C424.913 29.204 424.457 29.252 424.025 29.348C423.617 29.42 423.245 29.504 422.909 29.6V44H417.545ZM445.981 40.256C446.509 40.256 447.013 40.244 447.493 40.22C447.973 40.196 448.357 40.16 448.645 40.112V36.044C448.429 35.996 448.105 35.948 447.673 35.9C447.241 35.852 446.845 35.828 446.485 35.828C445.981 35.828 445.501 35.864 445.045 35.936C444.613 35.984 444.229 36.092 443.893 36.26C443.557 36.428 443.293 36.656 443.101 36.944C442.909 37.232 442.813 37.592 442.813 38.024C442.813 38.864 443.089 39.452 443.641 39.788C444.217 40.1 444.997 40.256 445.981 40.256ZM445.549 24.56C447.133 24.56 448.453 24.74 449.509 25.1C450.565 25.46 451.405 25.976 452.029 26.648C452.677 27.32 453.133 28.136 453.397 29.096C453.661 30.056 453.793 31.124 453.793 32.3V43.46C453.025 43.628 451.957 43.82 450.589 44.036C449.221 44.276 447.565 44.396 445.621 44.396C444.397 44.396 443.281 44.288 442.273 44.072C441.289 43.856 440.437 43.508 439.717 43.028C438.997 42.524 438.445 41.876 438.061 41.084C437.677 40.292 437.485 39.32 437.485 38.168C437.485 37.064 437.701 36.128 438.133 35.36C438.589 34.592 439.189 33.98 439.933 33.524C440.677 33.068 441.529 32.744 442.489 32.552C443.449 32.336 444.445 32.228 445.477 32.228C446.173 32.228 446.785 32.264 447.313 32.336C447.865 32.384 448.309 32.456 448.645 32.552V32.048C448.645 31.136 448.369 30.404 447.817 29.852C447.265 29.3 446.305 29.024 444.937 29.024C444.025 29.024 443.125 29.096 442.237 29.24C441.349 29.36 440.581 29.54 439.933 29.78L439.249 25.46C439.561 25.364 439.945 25.268 440.401 25.172C440.881 25.052 441.397 24.956 441.949 24.884C442.501 24.788 443.077 24.716 443.677 24.668C444.301 24.596 444.925 24.56 445.549 24.56ZM464.079 40.148C465.063 40.148 465.759 40.052 466.167 39.86C466.575 39.668 466.779 39.296 466.779 38.744C466.779 38.312 466.515 37.94 465.987 37.628C465.459 37.292 464.655 36.92 463.575 36.512C462.735 36.2 461.967 35.876 461.271 35.54C460.599 35.204 460.023 34.808 459.543 34.352C459.063 33.872 458.691 33.308 458.427 32.66C458.163 32.012 458.031 31.232 458.031 30.32C458.031 28.544 458.691 27.14 460.011 26.108C461.331 25.076 463.143 24.56 465.447 24.56C466.599 24.56 467.703 24.668 468.759 24.884C469.815 25.076 470.655 25.292 471.279 25.532L470.343 29.708C469.719 29.492 469.035 29.3 468.291 29.132C467.571 28.964 466.755 28.88 465.843 28.88C464.163 28.88 463.323 29.348 463.323 30.284C463.323 30.5 463.359 30.692 463.431 30.86C463.503 31.028 463.647 31.196 463.863 31.364C464.079 31.508 464.367 31.676 464.727 31.868C465.111 32.036 465.591 32.228 466.167 32.444C467.343 32.876 468.315 33.308 469.083 33.74C469.851 34.148 470.451 34.604 470.883 35.108C471.339 35.588 471.651 36.128 471.819 36.728C472.011 37.328 472.107 38.024 472.107 38.816C472.107 40.688 471.399 42.104 469.983 43.064C468.591 44.024 466.611 44.504 464.043 44.504C462.363 44.504 460.959 44.36 459.831 44.072C458.727 43.784 457.959 43.544 457.527 43.352L458.427 38.996C459.339 39.356 460.275 39.644 461.235 39.86C462.195 40.052 463.143 40.148 464.079 40.148ZM484.764 25.712C485.676 25.448 486.852 25.208 488.292 24.992C489.732 24.752 491.244 24.632 492.828 24.632C494.436 24.632 495.768 24.848 496.824 25.28C497.904 25.688 498.756 26.276 499.38 27.044C500.004 27.812 500.448 28.724 500.712 29.78C500.976 30.836 501.108 32.012 501.108 33.308V44H495.744V33.956C495.744 32.228 495.516 31.004 495.06 30.284C494.604 29.564 493.752 29.204 492.504 29.204C492.12 29.204 491.712 29.228 491.28 29.276C490.848 29.3 490.464 29.336 490.128 29.384V44H484.764V25.712ZM505.063 34.676C505.063 32.996 505.315 31.532 505.819 30.284C506.347 29.012 507.031 27.956 507.871 27.116C508.711 26.276 509.671 25.64 510.751 25.208C511.855 24.776 512.983 24.56 514.135 24.56C516.823 24.56 518.947 25.388 520.507 27.044C522.067 28.676 522.847 31.088 522.847 34.28C522.847 34.592 522.835 34.94 522.811 35.324C522.787 35.684 522.763 36.008 522.739 36.296H510.571C510.691 37.4 511.207 38.276 512.119 38.924C513.031 39.572 514.255 39.896 515.791 39.896C516.775 39.896 517.735 39.812 518.671 39.644C519.631 39.452 520.411 39.224 521.011 38.96L521.731 43.316C521.443 43.46 521.059 43.604 520.579 43.748C520.099 43.892 519.559 44.012 518.959 44.108C518.383 44.228 517.759 44.324 517.087 44.396C516.415 44.468 515.743 44.504 515.071 44.504C513.367 44.504 511.879 44.252 510.607 43.748C509.359 43.244 508.315 42.56 507.475 41.696C506.659 40.808 506.047 39.764 505.639 38.564C505.255 37.364 505.063 36.068 505.063 34.676ZM517.663 32.624C517.639 32.168 517.555 31.724 517.411 31.292C517.291 30.86 517.087 30.476 516.799 30.14C516.535 29.804 516.187 29.528 515.755 29.312C515.347 29.096 514.831 28.988 514.207 28.988C513.607 28.988 513.091 29.096 512.659 29.312C512.227 29.504 511.867 29.768 511.579 30.104C511.291 30.44 511.063 30.836 510.895 31.292C510.751 31.724 510.643 32.168 510.571 32.624H517.663ZM532.135 44C530.911 41.6 529.663 38.792 528.391 35.576C527.143 32.36 525.955 28.856 524.827 25.064H530.515C530.755 26 531.031 27.02 531.343 28.124C531.679 29.204 532.015 30.308 532.351 31.436C532.711 32.54 533.059 33.62 533.395 34.676C533.755 35.732 534.103 36.692 534.439 37.556C534.751 36.692 535.087 35.732 535.447 34.676C535.807 33.62 536.155 32.54 536.491 31.436C536.851 30.308 537.187 29.204 537.499 28.124C537.835 27.02 538.123 26 538.363 25.064H543.907C542.779 28.856 541.579 32.36 540.307 35.576C539.059 38.792 537.823 41.6 536.599 44H532.135ZM545.388 34.676C545.388 32.996 545.64 31.532 546.144 30.284C546.672 29.012 547.356 27.956 548.196 27.116C549.036 26.276 549.996 25.64 551.076 25.208C552.18 24.776 553.308 24.56 554.46 24.56C557.148 24.56 559.272 25.388 560.832 27.044C562.392 28.676 563.172 31.088 563.172 34.28C563.172 34.592 563.16 34.94 563.136 35.324C563.112 35.684 563.088 36.008 563.064 36.296H550.896C551.016 37.4 551.532 38.276 552.444 38.924C553.356 39.572 554.58 39.896 556.116 39.896C557.1 39.896 558.06 39.812 558.996 39.644C559.956 39.452 560.736 39.224 561.336 38.96L562.056 43.316C561.768 43.46 561.384 43.604 560.904 43.748C560.424 43.892 559.884 44.012 559.284 44.108C558.708 44.228 558.084 44.324 557.412 44.396C556.74 44.468 556.068 44.504 555.396 44.504C553.692 44.504 552.204 44.252 550.932 43.748C549.684 43.244 548.64 42.56 547.8 41.696C546.984 40.808 546.372 39.764 545.964 38.564C545.58 37.364 545.388 36.068 545.388 34.676ZM557.988 32.624C557.964 32.168 557.88 31.724 557.736 31.292C557.616 30.86 557.412 30.476 557.124 30.14C556.86 29.804 556.512 29.528 556.08 29.312C555.672 29.096 555.156 28.988 554.532 28.988C553.932 28.988 553.416 29.096 552.984 29.312C552.552 29.504 552.192 29.768 551.904 30.104C551.616 30.44 551.388 30.836 551.22 31.292C551.076 31.724 550.968 32.168 550.896 32.624H557.988ZM578.723 29.816C578.243 29.696 577.679 29.576 577.031 29.456C576.383 29.312 575.687 29.24 574.943 29.24C574.607 29.24 574.199 29.276 573.719 29.348C573.263 29.396 572.915 29.456 572.675 29.528V44H567.311V26.072C568.271 25.736 569.399 25.424 570.695 25.136C572.015 24.824 573.479 24.668 575.087 24.668C575.375 24.668 575.723 24.692 576.131 24.74C576.539 24.764 576.947 24.812 577.355 24.884C577.763 24.932 578.171 25.004 578.579 25.1C578.987 25.172 579.335 25.268 579.623 25.388L578.723 29.816ZM138.302 75.388C138.302 71.932 137.03 70.204 134.486 70.204C133.934 70.204 133.382 70.276 132.83 70.42C132.302 70.564 131.87 70.744 131.534 70.96V80.716C131.798 80.764 132.134 80.812 132.542 80.86C132.95 80.884 133.394 80.896 133.874 80.896C135.338 80.896 136.442 80.392 137.186 79.384C137.93 78.376 138.302 77.044 138.302 75.388ZM143.774 75.532C143.774 77.044 143.546 78.412 143.09 79.636C142.658 80.86 142.022 81.904 141.182 82.768C140.342 83.632 139.31 84.304 138.086 84.784C136.862 85.24 135.47 85.468 133.91 85.468C133.262 85.468 132.578 85.432 131.858 85.36C131.162 85.312 130.466 85.24 129.77 85.144C129.098 85.048 128.45 84.94 127.826 84.82C127.202 84.676 126.65 84.532 126.17 84.388V57.928L131.534 57.064V66.496C132.134 66.232 132.758 66.028 133.406 65.884C134.054 65.74 134.75 65.668 135.494 65.668C136.838 65.668 138.026 65.908 139.058 66.388C140.09 66.844 140.954 67.504 141.65 68.368C142.346 69.232 142.874 70.276 143.234 71.5C143.594 72.7 143.774 74.044 143.774 75.532ZM146.997 75.676C146.997 73.996 147.249 72.532 147.753 71.284C148.281 70.012 148.965 68.956 149.805 68.116C150.645 67.276 151.605 66.64 152.685 66.208C153.789 65.776 154.917 65.56 156.069 65.56C158.757 65.56 160.881 66.388 162.441 68.044C164.001 69.676 164.781 72.088 164.781 75.28C164.781 75.592 164.769 75.94 164.745 76.324C164.721 76.684 164.697 77.008 164.673 77.296H152.505C152.625 78.4 153.141 79.276 154.053 79.924C154.965 80.572 156.189 80.896 157.725 80.896C158.709 80.896 159.669 80.812 160.605 80.644C161.565 80.452 162.345 80.224 162.945 79.96L163.665 84.316C163.377 84.46 162.993 84.604 162.513 84.748C162.033 84.892 161.493 85.012 160.893 85.108C160.317 85.228 159.693 85.324 159.021 85.396C158.349 85.468 157.677 85.504 157.005 85.504C155.301 85.504 153.813 85.252 152.541 84.748C151.293 84.244 150.249 83.56 149.409 82.696C148.593 81.808 147.981 80.764 147.573 79.564C147.189 78.364 146.997 77.068 146.997 75.676ZM159.597 73.624C159.573 73.168 159.489 72.724 159.345 72.292C159.225 71.86 159.021 71.476 158.733 71.14C158.469 70.804 158.121 70.528 157.689 70.312C157.281 70.096 156.765 69.988 156.141 69.988C155.541 69.988 155.025 70.096 154.593 70.312C154.161 70.504 153.801 70.768 153.513 71.104C153.225 71.44 152.997 71.836 152.829 72.292C152.685 72.724 152.577 73.168 152.505 73.624H159.597ZM168.02 75.676C168.02 73.996 168.272 72.532 168.776 71.284C169.304 70.012 169.988 68.956 170.828 68.116C171.668 67.276 172.628 66.64 173.708 66.208C174.812 65.776 175.94 65.56 177.092 65.56C179.78 65.56 181.904 66.388 183.464 68.044C185.024 69.676 185.804 72.088 185.804 75.28C185.804 75.592 185.792 75.94 185.768 76.324C185.744 76.684 185.72 77.008 185.696 77.296H173.528C173.648 78.4 174.164 79.276 175.076 79.924C175.988 80.572 177.212 80.896 178.748 80.896C179.732 80.896 180.692 80.812 181.628 80.644C182.588 80.452 183.368 80.224 183.968 79.96L184.688 84.316C184.4 84.46 184.016 84.604 183.536 84.748C183.056 84.892 182.516 85.012 181.916 85.108C181.34 85.228 180.716 85.324 180.044 85.396C179.372 85.468 178.7 85.504 178.028 85.504C176.324 85.504 174.836 85.252 173.564 84.748C172.316 84.244 171.272 83.56 170.432 82.696C169.616 81.808 169.004 80.764 168.596 79.564C168.212 78.364 168.02 77.068 168.02 75.676ZM180.62 73.624C180.596 73.168 180.512 72.724 180.368 72.292C180.248 71.86 180.044 71.476 179.756 71.14C179.492 70.804 179.144 70.528 178.712 70.312C178.304 70.096 177.788 69.988 177.164 69.988C176.564 69.988 176.048 70.096 175.616 70.312C175.184 70.504 174.824 70.768 174.536 71.104C174.248 71.44 174.02 71.836 173.852 72.292C173.708 72.724 173.6 73.168 173.528 73.624H180.62ZM189.944 66.712C190.856 66.448 192.032 66.208 193.472 65.992C194.912 65.752 196.424 65.632 198.008 65.632C199.616 65.632 200.948 65.848 202.004 66.28C203.084 66.688 203.936 67.276 204.56 68.044C205.184 68.812 205.628 69.724 205.892 70.78C206.156 71.836 206.288 73.012 206.288 74.308V85H200.924V74.956C200.924 73.228 200.696 72.004 200.24 71.284C199.784 70.564 198.932 70.204 197.684 70.204C197.3 70.204 196.892 70.228 196.46 70.276C196.028 70.3 195.644 70.336 195.308 70.384V85H189.944V66.712ZM219.611 61.348L224.975 60.484V66.064H231.419V70.528H224.975V77.188C224.975 78.316 225.167 79.216 225.551 79.888C225.959 80.56 226.763 80.896 227.963 80.896C228.539 80.896 229.127 80.848 229.727 80.752C230.351 80.632 230.915 80.476 231.419 80.284L232.175 84.46C231.527 84.724 230.807 84.952 230.015 85.144C229.223 85.336 228.251 85.432 227.099 85.432C225.635 85.432 224.423 85.24 223.463 84.856C222.503 84.448 221.735 83.896 221.159 83.2C220.583 82.48 220.175 81.616 219.935 80.608C219.719 79.6 219.611 78.484 219.611 77.26V61.348ZM235.788 85V57.928L241.152 57.064V66.136C241.512 66.016 241.968 65.908 242.52 65.812C243.096 65.692 243.648 65.632 244.176 65.632C245.712 65.632 246.984 65.848 247.992 66.28C249.024 66.688 249.84 67.276 250.44 68.044C251.064 68.812 251.496 69.724 251.736 70.78C252 71.836 252.132 73.012 252.132 74.308V85H246.768V74.956C246.768 73.228 246.54 72.004 246.084 71.284C245.652 70.564 244.836 70.204 243.636 70.204C243.156 70.204 242.7 70.252 242.268 70.348C241.86 70.42 241.488 70.504 241.152 70.6V85H235.788ZM262.351 85H256.987V66.064H262.351V85ZM262.855 60.592C262.855 61.576 262.531 62.356 261.883 62.932C261.259 63.484 260.515 63.76 259.651 63.76C258.787 63.76 258.031 63.484 257.383 62.932C256.759 62.356 256.447 61.576 256.447 60.592C256.447 59.608 256.759 58.84 257.383 58.288C258.031 57.712 258.787 57.424 259.651 57.424C260.515 57.424 261.259 57.712 261.883 58.288C262.531 58.84 262.855 59.608 262.855 60.592ZM272.829 81.148C273.813 81.148 274.509 81.052 274.917 80.86C275.325 80.668 275.529 80.296 275.529 79.744C275.529 79.312 275.265 78.94 274.737 78.628C274.209 78.292 273.405 77.92 272.325 77.512C271.485 77.2 270.717 76.876 270.021 76.54C269.349 76.204 268.773 75.808 268.293 75.352C267.813 74.872 267.441 74.308 267.177 73.66C266.913 73.012 266.781 72.232 266.781 71.32C266.781 69.544 267.441 68.14 268.761 67.108C270.081 66.076 271.893 65.56 274.197 65.56C275.349 65.56 276.453 65.668 277.509 65.884C278.565 66.076 279.405 66.292 280.029 66.532L279.093 70.708C278.469 70.492 277.785 70.3 277.041 70.132C276.321 69.964 275.505 69.88 274.593 69.88C272.913 69.88 272.073 70.348 272.073 71.284C272.073 71.5 272.109 71.692 272.181 71.86C272.253 72.028 272.397 72.196 272.613 72.364C272.829 72.508 273.117 72.676 273.477 72.868C273.861 73.036 274.341 73.228 274.917 73.444C276.093 73.876 277.065 74.308 277.833 74.74C278.601 75.148 279.201 75.604 279.633 76.108C280.089 76.588 280.401 77.128 280.569 77.728C280.761 78.328 280.857 79.024 280.857 79.816C280.857 81.688 280.149 83.104 278.733 84.064C277.341 85.024 275.361 85.504 272.793 85.504C271.113 85.504 269.709 85.36 268.581 85.072C267.477 84.784 266.709 84.544 266.277 84.352L267.177 79.996C268.089 80.356 269.025 80.644 269.985 80.86C270.945 81.052 271.893 81.148 272.829 81.148ZM300.75 81.256C301.278 81.256 301.782 81.244 302.262 81.22C302.742 81.196 303.126 81.16 303.414 81.112V77.044C303.198 76.996 302.874 76.948 302.442 76.9C302.01 76.852 301.614 76.828 301.254 76.828C300.75 76.828 300.27 76.864 299.814 76.936C299.382 76.984 298.998 77.092 298.662 77.26C298.326 77.428 298.062 77.656 297.87 77.944C297.678 78.232 297.582 78.592 297.582 79.024C297.582 79.864 297.858 80.452 298.41 80.788C298.986 81.1 299.766 81.256 300.75 81.256ZM300.318 65.56C301.902 65.56 303.222 65.74 304.278 66.1C305.334 66.46 306.174 66.976 306.798 67.648C307.446 68.32 307.902 69.136 308.166 70.096C308.43 71.056 308.562 72.124 308.562 73.3V84.46C307.794 84.628 306.726 84.82 305.358 85.036C303.99 85.276 302.334 85.396 300.39 85.396C299.166 85.396 298.05 85.288 297.042 85.072C296.058 84.856 295.206 84.508 294.486 84.028C293.766 83.524 293.214 82.876 292.83 82.084C292.446 81.292 292.254 80.32 292.254 79.168C292.254 78.064 292.47 77.128 292.902 76.36C293.358 75.592 293.958 74.98 294.702 74.524C295.446 74.068 296.298 73.744 297.258 73.552C298.218 73.336 299.214 73.228 300.246 73.228C300.942 73.228 301.554 73.264 302.082 73.336C302.634 73.384 303.078 73.456 303.414 73.552V73.048C303.414 72.136 303.138 71.404 302.586 70.852C302.034 70.3 301.074 70.024 299.706 70.024C298.794 70.024 297.894 70.096 297.006 70.24C296.118 70.36 295.35 70.54 294.702 70.78L294.018 66.46C294.33 66.364 294.714 66.268 295.17 66.172C295.65 66.052 296.166 65.956 296.718 65.884C297.27 65.788 297.846 65.716 298.446 65.668C299.07 65.596 299.694 65.56 300.318 65.56ZM321.621 57.064C322.629 57.064 323.553 57.172 324.393 57.388C325.233 57.58 325.881 57.772 326.337 57.964L325.293 62.248C324.813 62.032 324.285 61.876 323.709 61.78C323.157 61.66 322.641 61.6 322.161 61.6C321.513 61.6 320.961 61.696 320.505 61.888C320.073 62.056 319.725 62.296 319.461 62.608C319.221 62.92 319.041 63.292 318.921 63.724C318.825 64.156 318.777 64.624 318.777 65.128V66.064H325.401V70.528H318.777V85H313.413V65.056C313.413 62.608 314.097 60.664 315.465 59.224C316.857 57.784 318.909 57.064 321.621 57.064ZM336.705 57.064C337.713 57.064 338.637 57.172 339.477 57.388C340.317 57.58 340.965 57.772 341.421 57.964L340.377 62.248C339.897 62.032 339.369 61.876 338.793 61.78C338.241 61.66 337.725 61.6 337.245 61.6C336.597 61.6 336.045 61.696 335.589 61.888C335.157 62.056 334.809 62.296 334.545 62.608C334.305 62.92 334.125 63.292 334.005 63.724C333.909 64.156 333.861 64.624 333.861 65.128V66.064H340.485V70.528H333.861V85H328.497V65.056C328.497 62.608 329.181 60.664 330.549 59.224C331.941 57.784 333.993 57.064 336.705 57.064ZM361.113 75.496C361.113 76.984 360.897 78.352 360.465 79.6C360.033 80.824 359.409 81.88 358.593 82.768C357.777 83.632 356.793 84.304 355.641 84.784C354.513 85.264 353.241 85.504 351.825 85.504C350.433 85.504 349.161 85.264 348.009 84.784C346.881 84.304 345.909 83.632 345.093 82.768C344.277 81.88 343.641 80.824 343.185 79.6C342.729 78.352 342.501 76.984 342.501 75.496C342.501 74.008 342.729 72.652 343.185 71.428C343.665 70.204 344.313 69.16 345.129 68.296C345.969 67.432 346.953 66.76 348.081 66.28C349.233 65.8 350.481 65.56 351.825 65.56C353.193 65.56 354.441 65.8 355.569 66.28C356.721 66.76 357.705 67.432 358.521 68.296C359.337 69.16 359.973 70.204 360.429 71.428C360.885 72.652 361.113 74.008 361.113 75.496ZM355.641 75.496C355.641 73.84 355.305 72.544 354.633 71.608C353.985 70.648 353.049 70.168 351.825 70.168C350.601 70.168 349.653 70.648 348.981 71.608C348.309 72.544 347.973 73.84 347.973 75.496C347.973 77.152 348.309 78.472 348.981 79.456C349.653 80.416 350.601 80.896 351.825 80.896C353.049 80.896 353.985 80.416 354.633 79.456C355.305 78.472 355.641 77.152 355.641 75.496ZM376.68 70.816C376.2 70.696 375.636 70.576 374.988 70.456C374.34 70.312 373.644 70.24 372.9 70.24C372.564 70.24 372.156 70.276 371.676 70.348C371.22 70.396 370.872 70.456 370.632 70.528V85H365.268V67.072C366.228 66.736 367.356 66.424 368.652 66.136C369.972 65.824 371.436 65.668 373.044 65.668C373.332 65.668 373.68 65.692 374.088 65.74C374.496 65.764 374.904 65.812 375.312 65.884C375.72 65.932 376.128 66.004 376.536 66.1C376.944 66.172 377.292 66.268 377.58 66.388L376.68 70.816ZM384.676 75.388C384.676 77.044 385.048 78.376 385.792 79.384C386.536 80.392 387.64 80.896 389.104 80.896C389.584 80.896 390.028 80.884 390.436 80.86C390.844 80.812 391.18 80.764 391.444 80.716V70.96C391.108 70.744 390.664 70.564 390.112 70.42C389.584 70.276 389.044 70.204 388.492 70.204C385.948 70.204 384.676 71.932 384.676 75.388ZM396.808 84.388C396.328 84.532 395.776 84.676 395.152 84.82C394.528 84.94 393.868 85.048 393.172 85.144C392.5 85.24 391.804 85.312 391.084 85.36C390.388 85.432 389.716 85.468 389.068 85.468C387.508 85.468 386.116 85.24 384.892 84.784C383.668 84.328 382.636 83.68 381.796 82.84C380.956 81.976 380.308 80.944 379.852 79.744C379.42 78.52 379.204 77.152 379.204 75.64C379.204 74.104 379.396 72.724 379.78 71.5C380.164 70.252 380.716 69.196 381.436 68.332C382.156 67.468 383.032 66.808 384.064 66.352C385.12 65.896 386.32 65.668 387.664 65.668C388.408 65.668 389.068 65.74 389.644 65.884C390.244 66.028 390.844 66.232 391.444 66.496V57.928L396.808 57.064V84.388ZM409.067 81.256C409.595 81.256 410.099 81.244 410.579 81.22C411.059 81.196 411.443 81.16 411.731 81.112V77.044C411.515 76.996 411.191 76.948 410.759 76.9C410.327 76.852 409.931 76.828 409.571 76.828C409.067 76.828 408.587 76.864 408.131 76.936C407.699 76.984 407.315 77.092 406.979 77.26C406.643 77.428 406.379 77.656 406.187 77.944C405.995 78.232 405.899 78.592 405.899 79.024C405.899 79.864 406.175 80.452 406.727 80.788C407.303 81.1 408.083 81.256 409.067 81.256ZM408.635 65.56C410.219 65.56 411.539 65.74 412.595 66.1C413.651 66.46 414.491 66.976 415.115 67.648C415.763 68.32 416.219 69.136 416.483 70.096C416.747 71.056 416.879 72.124 416.879 73.3V84.46C416.111 84.628 415.043 84.82 413.675 85.036C412.307 85.276 410.651 85.396 408.707 85.396C407.483 85.396 406.367 85.288 405.359 85.072C404.375 84.856 403.523 84.508 402.803 84.028C402.083 83.524 401.531 82.876 401.147 82.084C400.763 81.292 400.571 80.32 400.571 79.168C400.571 78.064 400.787 77.128 401.219 76.36C401.675 75.592 402.275 74.98 403.019 74.524C403.763 74.068 404.615 73.744 405.575 73.552C406.535 73.336 407.531 73.228 408.563 73.228C409.259 73.228 409.871 73.264 410.399 73.336C410.951 73.384 411.395 73.456 411.731 73.552V73.048C411.731 72.136 411.455 71.404 410.903 70.852C410.351 70.3 409.391 70.024 408.023 70.024C407.111 70.024 406.211 70.096 405.323 70.24C404.435 70.36 403.667 70.54 403.019 70.78L402.335 66.46C402.647 66.364 403.031 66.268 403.487 66.172C403.967 66.052 404.483 65.956 405.035 65.884C405.587 65.788 406.163 65.716 406.763 65.668C407.387 65.596 408.011 65.56 408.635 65.56ZM433.861 75.388C433.861 71.932 432.589 70.204 430.045 70.204C429.493 70.204 428.941 70.276 428.389 70.42C427.861 70.564 427.429 70.744 427.093 70.96V80.716C427.357 80.764 427.693 80.812 428.101 80.86C428.509 80.884 428.953 80.896 429.433 80.896C430.897 80.896 432.001 80.392 432.745 79.384C433.489 78.376 433.861 77.044 433.861 75.388ZM439.333 75.532C439.333 77.044 439.105 78.412 438.649 79.636C438.217 80.86 437.581 81.904 436.741 82.768C435.901 83.632 434.869 84.304 433.645 84.784C432.421 85.24 431.029 85.468 429.469 85.468C428.821 85.468 428.137 85.432 427.417 85.36C426.721 85.312 426.025 85.24 425.329 85.144C424.657 85.048 424.009 84.94 423.385 84.82C422.761 84.676 422.209 84.532 421.729 84.388V57.928L427.093 57.064V66.496C427.693 66.232 428.317 66.028 428.965 65.884C429.613 65.74 430.309 65.668 431.053 65.668C432.397 65.668 433.585 65.908 434.617 66.388C435.649 66.844 436.513 67.504 437.209 68.368C437.905 69.232 438.433 70.276 438.793 71.5C439.153 72.7 439.333 74.044 439.333 75.532ZM451.016 85.36C449.456 85.336 448.184 85.168 447.2 84.856C446.24 84.544 445.472 84.112 444.896 83.56C444.344 82.984 443.96 82.3 443.744 81.508C443.552 80.692 443.456 79.78 443.456 78.772V57.928L448.82 57.064V77.692C448.82 78.172 448.856 78.604 448.928 78.988C449 79.372 449.132 79.696 449.324 79.96C449.54 80.224 449.84 80.44 450.224 80.608C450.608 80.776 451.124 80.884 451.772 80.932L451.016 85.36ZM453.946 75.676C453.946 73.996 454.198 72.532 454.702 71.284C455.23 70.012 455.914 68.956 456.754 68.116C457.594 67.276 458.554 66.64 459.634 66.208C460.738 65.776 461.866 65.56 463.018 65.56C465.706 65.56 467.83 66.388 469.39 68.044C470.95 69.676 471.73 72.088 471.73 75.28C471.73 75.592 471.718 75.94 471.694 76.324C471.67 76.684 471.646 77.008 471.622 77.296H459.454C459.574 78.4 460.09 79.276 461.002 79.924C461.914 80.572 463.138 80.896 464.674 80.896C465.658 80.896 466.618 80.812 467.554 80.644C468.514 80.452 469.294 80.224 469.894 79.96L470.614 84.316C470.326 84.46 469.942 84.604 469.462 84.748C468.982 84.892 468.442 85.012 467.842 85.108C467.266 85.228 466.642 85.324 465.97 85.396C465.298 85.468 464.626 85.504 463.954 85.504C462.25 85.504 460.762 85.252 459.49 84.748C458.242 84.244 457.198 83.56 456.358 82.696C455.542 81.808 454.93 80.764 454.522 79.564C454.138 78.364 453.946 77.068 453.946 75.676ZM466.546 73.624C466.522 73.168 466.438 72.724 466.294 72.292C466.174 71.86 465.97 71.476 465.682 71.14C465.418 70.804 465.07 70.528 464.638 70.312C464.23 70.096 463.714 69.988 463.09 69.988C462.49 69.988 461.974 70.096 461.542 70.312C461.11 70.504 460.75 70.768 460.462 71.104C460.174 71.44 459.946 71.836 459.778 72.292C459.634 72.724 459.526 73.168 459.454 73.624H466.546Z" fill="#030749"/>
<path fill-rule="evenodd" clip-rule="evenodd" d="M412.057 88.1348C382.247 88.49 352.421 89.8992 322.741 92.418C308.63 93.6158 292.243 93.4661 278.557 97.5497C277.875 97.7552 278.005 98.3717 278.019 98.4333C278.049 98.5596 278.173 98.9793 278.716 98.9999C278.775 99.0028 279.191 98.9441 279.351 98.9236C283.392 98.3951 287.419 97.7787 291.463 97.2796C305.427 95.5505 319.432 94.2441 333.457 93.0991C352.073 91.5784 370.849 90.7682 389.515 90.134C399.732 89.7876 410.194 90.2485 420.444 89.5322C424.208 89.5117 427.972 89.5088 431.736 89.5205C447.471 89.5763 463.188 90.1693 478.896 90.9825C483.947 91.2438 487.799 91.5256 492.744 91.7164C494.622 91.7898 497.6 91.8397 499.673 91.872C499.977 91.8779 500.753 91.8837 501.075 91.8867C501.107 91.8925 501.14 91.8925 501.175 91.8925C501.299 91.8925 501.358 91.8837 501.37 91.8837C502.073 91.781 502.008 91.1204 501.99 91.0206C501.987 91.0001 501.881 90.4423 501.276 90.4217C501.131 90.4159 500.095 90.41 499.696 90.4042C497.636 90.3719 494.669 90.322 492.8 90.2515C487.864 90.0607 484.015 89.7789 478.973 89.5176C463.241 88.7044 447.5 88.1084 431.742 88.0527C429.817 88.0468 427.889 88.0439 425.964 88.0468C425.899 87.8795 425.755 87.6916 425.436 87.6094C425.138 87.533 423.003 87.4655 422.18 87.398C416.084 86.8989 416.264 86.9224 409.557 86.5144C399.398 85.8949 397.851 85.7539 387.286 85.4927C368.094 85.0171 348.894 85.0553 329.699 85.1023C320.223 85.1287 310.076 85.7657 300.455 84.5767C303.626 84.2068 306.808 83.9368 309.985 83.6285C320.831 82.5775 331.686 81.9258 342.576 81.4678C368.699 80.3698 394.864 79.9325 420.978 81.4297C415.419 81.4825 409.864 81.6058 404.305 81.685C381.677 82.0138 358.83 81.7673 336.25 83.4729C335.845 83.5052 335.541 83.8575 335.571 84.2597C335.6 84.6648 335.957 84.9672 336.362 84.9378C358.913 83.2322 381.727 83.4817 404.325 83.1529C412.721 83.0325 421.114 82.8153 429.51 82.8799C432.391 82.9034 435.272 83.0091 438.154 83.0443C438.723 83.0531 440.191 83.1647 440.4 83.1177C440.864 83.015 440.964 82.6744 440.994 82.5071C441.008 82.4072 441.056 81.8318 440.347 81.6263C435.512 80.2231 426.587 80.2877 421.888 80.0117C395.451 78.4558 368.962 78.8902 342.514 79.9999C331.597 80.4608 320.716 81.1156 309.84 82.1695C306.041 82.5364 302.233 82.8535 298.448 83.3408C297.837 83.4201 296.464 83.5346 295.8 83.655C295.522 83.7049 295.322 83.7753 295.233 83.8252C294.888 84.0189 294.826 84.3008 294.826 84.4916C294.823 84.6384 294.885 85.1551 295.608 85.296C306.628 87.442 318.62 86.5995 329.702 86.5701C348.885 86.5231 368.071 86.4849 387.25 86.9605C397.789 87.2218 399.33 87.3598 409.468 87.9793C410.469 88.038 411.316 88.0908 412.057 88.1348Z" fill="#E99557"/>
<path fill-rule="evenodd" clip-rule="evenodd" d="M575.781 9.93521C576.797 7.21795 577.439 4.33707 578.04 1.54062C578.167 0.938127 577.794 0.336898 577.204 0.242843C576.617 0.105256 576.037 0.49418 575.913 1.05317C575.333 3.76378 574.721 6.55906 573.745 9.1483C573.534 9.69987 573.817 10.3376 574.379 10.5606C574.94 10.7837 575.57 10.4867 575.781 9.93521Z" fill="#E99557"/>
<path fill-rule="evenodd" clip-rule="evenodd" d="M586.111 19.3139C591.054 15.2225 595.457 10.5156 600.515 6.52161C600.986 6.16741 601.068 5.4735 600.697 5.00378C600.325 4.53402 599.642 4.43215 599.167 4.82984C594.096 8.82271 589.68 13.5285 584.724 17.6187C584.26 18.0173 584.194 18.7125 584.577 19.1833C584.964 19.6104 585.647 19.7125 586.111 19.3139Z" fill="#E99557"/>
<path fill-rule="evenodd" clip-rule="evenodd" d="M602.939 29.2032C600.318 29.1113 597.696 29.0192 595.074 28.9273C594.476 28.8764 593.97 29.3592 593.947 29.9706C593.925 30.582 594.397 31.0601 594.995 31.1111C597.621 31.2033 600.246 31.2958 602.872 31.388C603.474 31.3954 603.977 30.9124 603.996 30.3007C604.012 29.7325 603.54 29.2106 602.939 29.2032Z" fill="#E99557"/>
</svg>
