<svg width="297" height="86" viewBox="0 0 297 86" fill="none" xmlns="http://www.w3.org/2000/svg">
<path d="M28.7468 9.248C27.0028 9.248 25.7388 9.736 24.9548 10.712C24.1868 11.672 23.8028 12.992 23.8028 14.672C23.8028 15.488 23.8988 16.232 24.0908 16.904C24.2828 17.56 24.5708 18.128 24.9548 18.608C25.3388 19.088 25.8188 19.464 26.3948 19.736C26.9708 19.992 27.6428 20.12 28.4108 20.12C28.8268 20.12 29.1788 20.112 29.4668 20.096C29.7708 20.08 30.0348 20.048 30.2588 20V14.216H34.0028V22.448C33.5548 22.624 32.8348 22.808 31.8428 23C30.8508 23.208 29.6268 23.312 28.1708 23.312C26.9228 23.312 25.7868 23.12 24.7628 22.736C23.7548 22.352 22.8908 21.792 22.1708 21.056C21.4508 20.32 20.8908 19.416 20.4908 18.344C20.1068 17.272 19.9148 16.048 19.9148 14.672C19.9148 13.28 20.1308 12.048 20.5628 10.976C20.9948 9.904 21.5868 9 22.3388 8.264C23.0908 7.512 23.9708 6.944 24.9788 6.56C26.0028 6.176 27.0908 5.984 28.2428 5.984C29.0268 5.984 29.7308 6.04 30.3548 6.152C30.9948 6.248 31.5388 6.368 31.9868 6.512C32.4508 6.64 32.8268 6.776 33.1148 6.92C33.4188 7.064 33.6348 7.176 33.7628 7.256L32.6828 10.256C32.1708 9.984 31.5788 9.752 30.9068 9.56C30.2508 9.352 29.5308 9.248 28.7468 9.248ZM44.8544 13.544C44.5344 13.464 44.1584 13.384 43.7264 13.304C43.2944 13.208 42.8304 13.16 42.3344 13.16C42.1104 13.16 41.8384 13.184 41.5184 13.232C41.2144 13.264 40.9824 13.304 40.8224 13.352V23H37.2464V11.048C37.8864 10.824 38.6384 10.616 39.5024 10.424C40.3824 10.216 41.3584 10.112 42.4304 10.112C42.6224 10.112 42.8544 10.128 43.1264 10.16C43.3984 10.176 43.6704 10.208 43.9424 10.256C44.2144 10.288 44.4864 10.336 44.7584 10.4C45.0304 10.448 45.2624 10.512 45.4544 10.592L44.8544 13.544ZM46.537 16.784C46.537 15.664 46.705 14.688 47.041 13.856C47.393 13.008 47.849 12.304 48.409 11.744C48.969 11.184 49.609 10.76 50.329 10.472C51.065 10.184 51.817 10.04 52.585 10.04C54.377 10.04 55.793 10.592 56.833 11.696C57.873 12.784 58.393 14.392 58.393 16.52C58.393 16.728 58.385 16.96 58.369 17.216C58.353 17.456 58.337 17.672 58.321 17.864H50.209C50.289 18.6 50.633 19.184 51.241 19.616C51.849 20.048 52.665 20.264 53.689 20.264C54.345 20.264 54.985 20.208 55.609 20.096C56.249 19.968 56.769 19.816 57.169 19.64L57.649 22.544C57.457 22.64 57.201 22.736 56.881 22.832C56.561 22.928 56.201 23.008 55.801 23.072C55.417 23.152 55.001 23.216 54.553 23.264C54.105 23.312 53.657 23.336 53.209 23.336C52.073 23.336 51.081 23.168 50.233 22.832C49.401 22.496 48.705 22.04 48.145 21.464C47.601 20.872 47.193 20.176 46.921 19.376C46.665 18.576 46.537 17.712 46.537 16.784ZM54.937 15.416C54.921 15.112 54.865 14.816 54.769 14.528C54.689 14.24 54.553 13.984 54.361 13.76C54.185 13.536 53.953 13.352 53.665 13.208C53.393 13.064 53.049 12.992 52.633 12.992C52.233 12.992 51.889 13.064 51.601 13.208C51.313 13.336 51.073 13.512 50.881 13.736C50.689 13.96 50.537 14.224 50.425 14.528C50.329 14.816 50.257 15.112 50.209 15.416H54.937ZM65.9767 20.504C66.3287 20.504 66.6647 20.496 66.9847 20.48C67.3047 20.464 67.5607 20.44 67.7527 20.408V17.696C67.6087 17.664 67.3927 17.632 67.1047 17.6C66.8167 17.568 66.5527 17.552 66.3127 17.552C65.9767 17.552 65.6567 17.576 65.3527 17.624C65.0647 17.656 64.8087 17.728 64.5847 17.84C64.3607 17.952 64.1847 18.104 64.0567 18.296C63.9287 18.488 63.8647 18.728 63.8647 19.016C63.8647 19.576 64.0487 19.968 64.4167 20.192C64.8007 20.4 65.3207 20.504 65.9767 20.504ZM65.6887 10.04C66.7447 10.04 67.6247 10.16 68.3287 10.4C69.0327 10.64 69.5927 10.984 70.0087 11.432C70.4407 11.88 70.7447 12.424 70.9207 13.064C71.0967 13.704 71.1847 14.416 71.1847 15.2V22.64C70.6727 22.752 69.9607 22.88 69.0487 23.024C68.1367 23.184 67.0327 23.264 65.7367 23.264C64.9207 23.264 64.1767 23.192 63.5047 23.048C62.8487 22.904 62.2807 22.672 61.8007 22.352C61.3207 22.016 60.9527 21.584 60.6967 21.056C60.4407 20.528 60.3127 19.88 60.3127 19.112C60.3127 18.376 60.4567 17.752 60.7447 17.24C61.0487 16.728 61.4487 16.32 61.9447 16.016C62.4407 15.712 63.0087 15.496 63.6487 15.368C64.2887 15.224 64.9527 15.152 65.6407 15.152C66.1047 15.152 66.5127 15.176 66.8647 15.224C67.2327 15.256 67.5287 15.304 67.7527 15.368V15.032C67.7527 14.424 67.5687 13.936 67.2007 13.568C66.8327 13.2 66.1927 13.016 65.2807 13.016C64.6727 13.016 64.0727 13.064 63.4807 13.16C62.8887 13.24 62.3767 13.36 61.9447 13.52L61.4887 10.64C61.6967 10.576 61.9527 10.512 62.2567 10.448C62.5767 10.368 62.9207 10.304 63.2887 10.256C63.6567 10.192 64.0407 10.144 64.4407 10.112C64.8567 10.064 65.2727 10.04 65.6887 10.04ZM74.2983 7.232L77.8743 6.656V10.376H82.1703V13.352H77.8743V17.792C77.8743 18.544 78.0023 19.144 78.2583 19.592C78.5303 20.04 79.0663 20.264 79.8663 20.264C80.2503 20.264 80.6423 20.232 81.0423 20.168C81.4583 20.088 81.8343 19.984 82.1703 19.856L82.6743 22.64C82.2423 22.816 81.7623 22.968 81.2343 23.096C80.7063 23.224 80.0583 23.288 79.2903 23.288C78.3143 23.288 77.5063 23.16 76.8663 22.904C76.2263 22.632 75.7143 22.264 75.3303 21.8C74.9463 21.32 74.6743 20.744 74.5143 20.072C74.3703 19.4 74.2983 18.656 74.2983 17.84V7.232ZM90.848 23V4.952L94.424 4.376V10.424C94.664 10.344 94.968 10.272 95.336 10.208C95.72 10.128 96.088 10.088 96.44 10.088C97.464 10.088 98.312 10.232 98.984 10.52C99.672 10.792 100.216 11.184 100.616 11.696C101.032 12.208 101.32 12.816 101.48 13.52C101.656 14.224 101.744 15.008 101.744 15.872V23H98.168V16.304C98.168 15.152 98.016 14.336 97.712 13.856C97.424 13.376 96.88 13.136 96.08 13.136C95.76 13.136 95.456 13.168 95.168 13.232C94.896 13.28 94.648 13.336 94.424 13.4V23H90.848ZM104.381 16.784C104.381 15.664 104.549 14.688 104.885 13.856C105.237 13.008 105.693 12.304 106.253 11.744C106.813 11.184 107.453 10.76 108.173 10.472C108.909 10.184 109.661 10.04 110.429 10.04C112.221 10.04 113.637 10.592 114.677 11.696C115.717 12.784 116.237 14.392 116.237 16.52C116.237 16.728 116.229 16.96 116.213 17.216C116.197 17.456 116.181 17.672 116.165 17.864H108.053C108.133 18.6 108.477 19.184 109.085 19.616C109.693 20.048 110.509 20.264 111.533 20.264C112.189 20.264 112.829 20.208 113.453 20.096C114.093 19.968 114.613 19.816 115.013 19.64L115.493 22.544C115.301 22.64 115.045 22.736 114.725 22.832C114.405 22.928 114.045 23.008 113.645 23.072C113.261 23.152 112.845 23.216 112.397 23.264C111.949 23.312 111.501 23.336 111.053 23.336C109.917 23.336 108.925 23.168 108.077 22.832C107.245 22.496 106.549 22.04 105.989 21.464C105.445 20.872 105.037 20.176 104.765 19.376C104.509 18.576 104.381 17.712 104.381 16.784ZM112.781 15.416C112.765 15.112 112.709 14.816 112.613 14.528C112.533 14.24 112.397 13.984 112.205 13.76C112.029 13.536 111.797 13.352 111.509 13.208C111.237 13.064 110.893 12.992 110.477 12.992C110.077 12.992 109.733 13.064 109.445 13.208C109.157 13.336 108.917 13.512 108.725 13.736C108.533 13.96 108.381 14.224 108.269 14.528C108.173 14.816 108.101 15.112 108.053 15.416H112.781ZM123.82 20.504C124.172 20.504 124.508 20.496 124.828 20.48C125.148 20.464 125.404 20.44 125.596 20.408V17.696C125.452 17.664 125.236 17.632 124.948 17.6C124.66 17.568 124.396 17.552 124.156 17.552C123.82 17.552 123.5 17.576 123.196 17.624C122.908 17.656 122.652 17.728 122.428 17.84C122.204 17.952 122.028 18.104 121.9 18.296C121.772 18.488 121.708 18.728 121.708 19.016C121.708 19.576 121.892 19.968 122.26 20.192C122.644 20.4 123.164 20.504 123.82 20.504ZM123.532 10.04C124.588 10.04 125.468 10.16 126.172 10.4C126.876 10.64 127.436 10.984 127.852 11.432C128.284 11.88 128.588 12.424 128.764 13.064C128.94 13.704 129.028 14.416 129.028 15.2V22.64C128.516 22.752 127.804 22.88 126.892 23.024C125.98 23.184 124.876 23.264 123.58 23.264C122.764 23.264 122.02 23.192 121.348 23.048C120.692 22.904 120.124 22.672 119.644 22.352C119.164 22.016 118.796 21.584 118.54 21.056C118.284 20.528 118.156 19.88 118.156 19.112C118.156 18.376 118.3 17.752 118.588 17.24C118.892 16.728 119.292 16.32 119.788 16.016C120.284 15.712 120.852 15.496 121.492 15.368C122.132 15.224 122.796 15.152 123.484 15.152C123.948 15.152 124.356 15.176 124.708 15.224C125.076 15.256 125.372 15.304 125.596 15.368V15.032C125.596 14.424 125.412 13.936 125.044 13.568C124.676 13.2 124.036 13.016 123.124 13.016C122.516 13.016 121.916 13.064 121.324 13.16C120.732 13.24 120.22 13.36 119.788 13.52L119.332 10.64C119.54 10.576 119.796 10.512 120.1 10.448C120.42 10.368 120.764 10.304 121.132 10.256C121.5 10.192 121.884 10.144 122.284 10.112C122.7 10.064 123.116 10.04 123.532 10.04ZM137.302 23.24C136.262 23.224 135.414 23.112 134.758 22.904C134.118 22.696 133.606 22.408 133.222 22.04C132.854 21.656 132.598 21.2 132.454 20.672C132.326 20.128 132.262 19.52 132.262 18.848V4.952L135.838 4.376V18.128C135.838 18.448 135.862 18.736 135.91 18.992C135.958 19.248 136.046 19.464 136.174 19.64C136.318 19.816 136.518 19.96 136.774 20.072C137.03 20.184 137.374 20.256 137.806 20.288L137.302 23.24ZM139.736 7.232L143.312 6.656V10.376H147.608V13.352H143.312V17.792C143.312 18.544 143.44 19.144 143.696 19.592C143.968 20.04 144.504 20.264 145.304 20.264C145.688 20.264 146.08 20.232 146.48 20.168C146.896 20.088 147.272 19.984 147.608 19.856L148.112 22.64C147.68 22.816 147.2 22.968 146.672 23.096C146.144 23.224 145.496 23.288 144.728 23.288C143.752 23.288 142.944 23.16 142.304 22.904C141.664 22.632 141.152 22.264 140.768 21.8C140.384 21.32 140.112 20.744 139.952 20.072C139.808 19.4 139.736 18.656 139.736 17.84V7.232ZM150.52 23V4.952L154.096 4.376V10.424C154.336 10.344 154.64 10.272 155.008 10.208C155.392 10.128 155.76 10.088 156.112 10.088C157.136 10.088 157.984 10.232 158.656 10.52C159.344 10.792 159.888 11.184 160.288 11.696C160.704 12.208 160.992 12.816 161.152 13.52C161.328 14.224 161.416 15.008 161.416 15.872V23H157.84V16.304C157.84 15.152 157.688 14.336 157.384 13.856C157.096 13.376 156.552 13.136 155.752 13.136C155.432 13.136 155.128 13.168 154.84 13.232C154.568 13.28 154.32 13.336 154.096 13.4V23H150.52ZM173.994 23H170.418V10.376H173.994V23ZM174.33 6.728C174.33 7.384 174.114 7.904 173.682 8.288C173.266 8.656 172.77 8.84 172.194 8.84C171.618 8.84 171.114 8.656 170.682 8.288C170.266 7.904 170.058 7.384 170.058 6.728C170.058 6.072 170.266 5.56 170.682 5.192C171.114 4.808 171.618 4.616 172.194 4.616C172.77 4.616 173.266 4.808 173.682 5.192C174.114 5.56 174.33 6.072 174.33 6.728ZM177.356 10.808C177.964 10.632 178.748 10.472 179.708 10.328C180.668 10.168 181.676 10.088 182.732 10.088C183.804 10.088 184.692 10.232 185.396 10.52C186.116 10.792 186.684 11.184 187.1 11.696C187.516 12.208 187.812 12.816 187.988 13.52C188.164 14.224 188.252 15.008 188.252 15.872V23H184.676V16.304C184.676 15.152 184.524 14.336 184.22 13.856C183.916 13.376 183.348 13.136 182.516 13.136C182.26 13.136 181.988 13.152 181.7 13.184C181.412 13.2 181.156 13.224 180.932 13.256V23H177.356V10.808ZM195.113 20.432C195.769 20.432 196.233 20.368 196.505 20.24C196.777 20.112 196.913 19.864 196.913 19.496C196.913 19.208 196.737 18.96 196.385 18.752C196.033 18.528 195.497 18.28 194.777 18.008C194.217 17.8 193.705 17.584 193.241 17.36C192.793 17.136 192.409 16.872 192.089 16.568C191.769 16.248 191.521 15.872 191.345 15.44C191.169 15.008 191.081 14.488 191.081 13.88C191.081 12.696 191.521 11.76 192.401 11.072C193.281 10.384 194.489 10.04 196.025 10.04C196.793 10.04 197.529 10.112 198.233 10.256C198.937 10.384 199.497 10.528 199.913 10.688L199.289 13.472C198.873 13.328 198.417 13.2 197.921 13.088C197.441 12.976 196.897 12.92 196.289 12.92C195.169 12.92 194.609 13.232 194.609 13.856C194.609 14 194.633 14.128 194.681 14.24C194.729 14.352 194.825 14.464 194.969 14.576C195.113 14.672 195.305 14.784 195.545 14.912C195.801 15.024 196.121 15.152 196.505 15.296C197.289 15.584 197.937 15.872 198.449 16.16C198.961 16.432 199.361 16.736 199.649 17.072C199.953 17.392 200.161 17.752 200.273 18.152C200.401 18.552 200.465 19.016 200.465 19.544C200.465 20.792 199.993 21.736 199.049 22.376C198.121 23.016 196.801 23.336 195.089 23.336C193.969 23.336 193.033 23.24 192.281 23.048C191.545 22.856 191.033 22.696 190.745 22.568L191.345 19.664C191.953 19.904 192.577 20.096 193.217 20.24C193.857 20.368 194.489 20.432 195.113 20.432ZM213.913 22.568C213.305 22.744 212.521 22.904 211.561 23.048C210.601 23.208 209.593 23.288 208.537 23.288C207.465 23.288 206.569 23.144 205.849 22.856C205.145 22.568 204.585 22.168 204.169 21.656C203.753 21.128 203.457 20.504 203.281 19.784C203.105 19.064 203.017 18.272 203.017 17.408V10.376H206.593V16.976C206.593 18.128 206.745 18.96 207.049 19.472C207.353 19.984 207.921 20.24 208.753 20.24C209.009 20.24 209.281 20.232 209.569 20.216C209.857 20.184 210.113 20.152 210.337 20.12V10.376H213.913V22.568ZM224.878 13.544C224.558 13.464 224.182 13.384 223.75 13.304C223.318 13.208 222.854 13.16 222.358 13.16C222.134 13.16 221.862 13.184 221.542 13.232C221.238 13.264 221.006 13.304 220.846 13.352V23H217.27V11.048C217.91 10.824 218.662 10.616 219.526 10.424C220.406 10.216 221.382 10.112 222.454 10.112C222.646 10.112 222.878 10.128 223.15 10.16C223.422 10.176 223.694 10.208 223.966 10.256C224.238 10.288 224.51 10.336 224.782 10.4C225.054 10.448 225.286 10.512 225.478 10.592L224.878 13.544ZM231.984 20.504C232.336 20.504 232.672 20.496 232.992 20.48C233.312 20.464 233.568 20.44 233.76 20.408V17.696C233.616 17.664 233.4 17.632 233.112 17.6C232.824 17.568 232.56 17.552 232.32 17.552C231.984 17.552 231.664 17.576 231.36 17.624C231.072 17.656 230.816 17.728 230.592 17.84C230.368 17.952 230.192 18.104 230.064 18.296C229.936 18.488 229.872 18.728 229.872 19.016C229.872 19.576 230.056 19.968 230.424 20.192C230.808 20.4 231.328 20.504 231.984 20.504ZM231.696 10.04C232.752 10.04 233.632 10.16 234.336 10.4C235.04 10.64 235.6 10.984 236.016 11.432C236.448 11.88 236.752 12.424 236.928 13.064C237.104 13.704 237.192 14.416 237.192 15.2V22.64C236.68 22.752 235.968 22.88 235.056 23.024C234.144 23.184 233.04 23.264 231.744 23.264C230.928 23.264 230.184 23.192 229.512 23.048C228.856 22.904 228.288 22.672 227.808 22.352C227.328 22.016 226.96 21.584 226.704 21.056C226.448 20.528 226.32 19.88 226.32 19.112C226.32 18.376 226.464 17.752 226.752 17.24C227.056 16.728 227.456 16.32 227.952 16.016C228.448 15.712 229.016 15.496 229.656 15.368C230.296 15.224 230.96 15.152 231.648 15.152C232.112 15.152 232.52 15.176 232.872 15.224C233.24 15.256 233.536 15.304 233.76 15.368V15.032C233.76 14.424 233.576 13.936 233.208 13.568C232.84 13.2 232.2 13.016 231.288 13.016C230.68 13.016 230.08 13.064 229.488 13.16C228.896 13.24 228.384 13.36 227.952 13.52L227.496 10.64C227.704 10.576 227.96 10.512 228.264 10.448C228.584 10.368 228.928 10.304 229.296 10.256C229.664 10.192 230.048 10.144 230.448 10.112C230.864 10.064 231.28 10.04 231.696 10.04ZM240.426 10.808C241.034 10.632 241.818 10.472 242.778 10.328C243.738 10.168 244.746 10.088 245.802 10.088C246.874 10.088 247.762 10.232 248.466 10.52C249.186 10.792 249.754 11.184 250.17 11.696C250.586 12.208 250.882 12.816 251.058 13.52C251.234 14.224 251.322 15.008 251.322 15.872V23H247.746V16.304C247.746 15.152 247.594 14.336 247.29 13.856C246.986 13.376 246.418 13.136 245.586 13.136C245.33 13.136 245.058 13.152 244.77 13.184C244.482 13.2 244.226 13.224 244.002 13.256V23H240.426V10.808ZM253.959 16.688C253.959 15.776 254.103 14.92 254.391 14.12C254.695 13.304 255.127 12.6 255.687 12.008C256.247 11.4 256.927 10.92 257.727 10.568C258.527 10.216 259.439 10.04 260.463 10.04C261.135 10.04 261.751 10.104 262.311 10.232C262.871 10.344 263.415 10.512 263.943 10.736L263.199 13.592C262.863 13.464 262.495 13.352 262.095 13.256C261.695 13.16 261.247 13.112 260.751 13.112C259.695 13.112 258.903 13.44 258.375 14.096C257.863 14.752 257.607 15.616 257.607 16.688C257.607 17.824 257.847 18.704 258.327 19.328C258.823 19.952 259.679 20.264 260.895 20.264C261.327 20.264 261.791 20.224 262.287 20.144C262.783 20.064 263.239 19.936 263.655 19.76L264.159 22.688C263.743 22.864 263.223 23.016 262.599 23.144C261.975 23.272 261.287 23.336 260.535 23.336C259.383 23.336 258.391 23.168 257.559 22.832C256.727 22.48 256.039 22.008 255.495 21.416C254.967 20.824 254.575 20.128 254.319 19.328C254.079 18.512 253.959 17.632 253.959 16.688ZM265.35 16.784C265.35 15.664 265.518 14.688 265.854 13.856C266.206 13.008 266.662 12.304 267.222 11.744C267.782 11.184 268.422 10.76 269.142 10.472C269.878 10.184 270.63 10.04 271.398 10.04C273.19 10.04 274.606 10.592 275.646 11.696C276.686 12.784 277.206 14.392 277.206 16.52C277.206 16.728 277.198 16.96 277.182 17.216C277.166 17.456 277.15 17.672 277.134 17.864H269.022C269.102 18.6 269.446 19.184 270.054 19.616C270.662 20.048 271.478 20.264 272.502 20.264C273.158 20.264 273.798 20.208 274.422 20.096C275.062 19.968 275.582 19.816 275.982 19.64L276.462 22.544C276.27 22.64 276.014 22.736 275.694 22.832C275.374 22.928 275.014 23.008 274.614 23.072C274.23 23.152 273.814 23.216 273.366 23.264C272.918 23.312 272.47 23.336 272.022 23.336C270.886 23.336 269.894 23.168 269.046 22.832C268.214 22.496 267.518 22.04 266.958 21.464C266.414 20.872 266.006 20.176 265.734 19.376C265.478 18.576 265.35 17.712 265.35 16.784ZM273.75 15.416C273.734 15.112 273.678 14.816 273.582 14.528C273.502 14.24 273.366 13.984 273.174 13.76C272.998 13.536 272.766 13.352 272.478 13.208C272.206 13.064 271.862 12.992 271.446 12.992C271.046 12.992 270.702 13.064 270.414 13.208C270.126 13.336 269.886 13.512 269.694 13.736C269.502 13.96 269.35 14.224 269.238 14.528C269.142 14.816 269.07 15.112 269.022 15.416H273.75ZM39.4144 51V32.952L42.9904 32.376V38.424C43.2304 38.344 43.5344 38.272 43.9024 38.208C44.2864 38.128 44.6544 38.088 45.0064 38.088C46.0304 38.088 46.8784 38.232 47.5504 38.52C48.2384 38.792 48.7824 39.184 49.1824 39.696C49.5984 40.208 49.8864 40.816 50.0464 41.52C50.2224 42.224 50.3104 43.008 50.3104 43.872V51H46.7344V44.304C46.7344 43.152 46.5824 42.336 46.2784 41.856C45.9904 41.376 45.4464 41.136 44.6464 41.136C44.3264 41.136 44.0224 41.168 43.7344 41.232C43.4624 41.28 43.2144 41.336 42.9904 41.4V51H39.4144ZM58.3712 48.504C58.7232 48.504 59.0592 48.496 59.3792 48.48C59.6992 48.464 59.9552 48.44 60.1472 48.408V45.696C60.0032 45.664 59.7872 45.632 59.4992 45.6C59.2112 45.568 58.9472 45.552 58.7072 45.552C58.3712 45.552 58.0512 45.576 57.7472 45.624C57.4592 45.656 57.2032 45.728 56.9792 45.84C56.7552 45.952 56.5792 46.104 56.4512 46.296C56.3232 46.488 56.2592 46.728 56.2592 47.016C56.2592 47.576 56.4432 47.968 56.8112 48.192C57.1952 48.4 57.7152 48.504 58.3712 48.504ZM58.0832 38.04C59.1392 38.04 60.0192 38.16 60.7232 38.4C61.4272 38.64 61.9872 38.984 62.4032 39.432C62.8352 39.88 63.1392 40.424 63.3152 41.064C63.4912 41.704 63.5792 42.416 63.5792 43.2V50.64C63.0672 50.752 62.3552 50.88 61.4432 51.024C60.5312 51.184 59.4272 51.264 58.1312 51.264C57.3152 51.264 56.5712 51.192 55.8992 51.048C55.2432 50.904 54.6752 50.672 54.1952 50.352C53.7152 50.016 53.3472 49.584 53.0912 49.056C52.8352 48.528 52.7072 47.88 52.7072 47.112C52.7072 46.376 52.8512 45.752 53.1392 45.24C53.4432 44.728 53.8432 44.32 54.3392 44.016C54.8352 43.712 55.4032 43.496 56.0432 43.368C56.6832 43.224 57.3472 43.152 58.0352 43.152C58.4992 43.152 58.9072 43.176 59.2592 43.224C59.6272 43.256 59.9232 43.304 60.1472 43.368V43.032C60.1472 42.424 59.9632 41.936 59.5952 41.568C59.2272 41.2 58.5872 41.016 57.6752 41.016C57.0672 41.016 56.4672 41.064 55.8752 41.16C55.2832 41.24 54.7712 41.36 54.3392 41.52L53.8832 38.64C54.0912 38.576 54.3472 38.512 54.6512 38.448C54.9712 38.368 55.3152 38.304 55.6832 38.256C56.0512 38.192 56.4352 38.144 56.8352 38.112C57.2512 38.064 57.6672 38.04 58.0832 38.04ZM70.4368 48.432C71.0928 48.432 71.5568 48.368 71.8288 48.24C72.1008 48.112 72.2368 47.864 72.2368 47.496C72.2368 47.208 72.0608 46.96 71.7088 46.752C71.3568 46.528 70.8208 46.28 70.1008 46.008C69.5408 45.8 69.0288 45.584 68.5648 45.36C68.1168 45.136 67.7328 44.872 67.4128 44.568C67.0928 44.248 66.8448 43.872 66.6688 43.44C66.4928 43.008 66.4048 42.488 66.4048 41.88C66.4048 40.696 66.8448 39.76 67.7248 39.072C68.6048 38.384 69.8128 38.04 71.3488 38.04C72.1168 38.04 72.8528 38.112 73.5568 38.256C74.2608 38.384 74.8208 38.528 75.2368 38.688L74.6128 41.472C74.1968 41.328 73.7408 41.2 73.2448 41.088C72.7648 40.976 72.2208 40.92 71.6128 40.92C70.4928 40.92 69.9328 41.232 69.9328 41.856C69.9328 42 69.9568 42.128 70.0048 42.24C70.0528 42.352 70.1488 42.464 70.2928 42.576C70.4368 42.672 70.6288 42.784 70.8688 42.912C71.1248 43.024 71.4448 43.152 71.8288 43.296C72.6128 43.584 73.2608 43.872 73.7728 44.16C74.2848 44.432 74.6848 44.736 74.9728 45.072C75.2768 45.392 75.4848 45.752 75.5968 46.152C75.7248 46.552 75.7888 47.016 75.7888 47.544C75.7888 48.792 75.3168 49.736 74.3728 50.376C73.4448 51.016 72.1248 51.336 70.4128 51.336C69.2928 51.336 68.3568 51.24 67.6048 51.048C66.8688 50.856 66.3568 50.696 66.0688 50.568L66.6688 47.664C67.2768 47.904 67.9008 48.096 68.5408 48.24C69.1808 48.368 69.8128 48.432 70.4368 48.432ZM84.2269 38.808C84.8349 38.632 85.6189 38.472 86.5789 38.328C87.5389 38.168 88.5469 38.088 89.6029 38.088C90.6749 38.088 91.5629 38.232 92.2669 38.52C92.9869 38.792 93.5549 39.184 93.9709 39.696C94.3869 40.208 94.6829 40.816 94.8589 41.52C95.0349 42.224 95.1229 43.008 95.1229 43.872V51H91.5469V44.304C91.5469 43.152 91.3949 42.336 91.0909 41.856C90.7869 41.376 90.2189 41.136 89.3869 41.136C89.1309 41.136 88.8589 41.152 88.5709 41.184C88.2829 41.2 88.0269 41.224 87.8029 41.256V51H84.2269V38.808ZM97.7597 44.784C97.7597 43.664 97.9277 42.688 98.2637 41.856C98.6157 41.008 99.0717 40.304 99.6317 39.744C100.192 39.184 100.832 38.76 101.552 38.472C102.288 38.184 103.04 38.04 103.808 38.04C105.6 38.04 107.016 38.592 108.056 39.696C109.096 40.784 109.616 42.392 109.616 44.52C109.616 44.728 109.608 44.96 109.592 45.216C109.576 45.456 109.56 45.672 109.544 45.864H101.432C101.512 46.6 101.856 47.184 102.464 47.616C103.072 48.048 103.888 48.264 104.912 48.264C105.568 48.264 106.208 48.208 106.832 48.096C107.472 47.968 107.992 47.816 108.392 47.64L108.872 50.544C108.68 50.64 108.424 50.736 108.104 50.832C107.784 50.928 107.424 51.008 107.024 51.072C106.64 51.152 106.224 51.216 105.776 51.264C105.328 51.312 104.88 51.336 104.432 51.336C103.296 51.336 102.304 51.168 101.456 50.832C100.624 50.496 99.9277 50.04 99.3677 49.464C98.8237 48.872 98.4157 48.176 98.1437 47.376C97.8877 46.576 97.7597 45.712 97.7597 44.784ZM106.16 43.416C106.144 43.112 106.088 42.816 105.992 42.528C105.912 42.24 105.776 41.984 105.584 41.76C105.408 41.536 105.176 41.352 104.888 41.208C104.616 41.064 104.272 40.992 103.856 40.992C103.456 40.992 103.112 41.064 102.824 41.208C102.536 41.336 102.296 41.512 102.104 41.736C101.912 41.96 101.76 42.224 101.648 42.528C101.552 42.816 101.48 43.112 101.432 43.416H106.16ZM115.807 51C114.991 49.4 114.159 47.528 113.311 45.384C112.479 43.24 111.687 40.904 110.935 38.376H114.727C114.887 39 115.071 39.68 115.279 40.416C115.503 41.136 115.727 41.872 115.951 42.624C116.191 43.36 116.423 44.08 116.647 44.784C116.887 45.488 117.119 46.128 117.343 46.704C117.551 46.128 117.775 45.488 118.015 44.784C118.255 44.08 118.487 43.36 118.711 42.624C118.951 41.872 119.175 41.136 119.383 40.416C119.607 39.68 119.799 39 119.959 38.376H123.655C122.903 40.904 122.103 43.24 121.255 45.384C120.423 47.528 119.599 49.4 118.783 51H115.807ZM124.643 44.784C124.643 43.664 124.811 42.688 125.146 41.856C125.499 41.008 125.955 40.304 126.515 39.744C127.075 39.184 127.715 38.76 128.435 38.472C129.171 38.184 129.923 38.04 130.691 38.04C132.483 38.04 133.899 38.592 134.939 39.696C135.979 40.784 136.499 42.392 136.499 44.52C136.499 44.728 136.491 44.96 136.475 45.216C136.459 45.456 136.443 45.672 136.427 45.864H128.315C128.395 46.6 128.739 47.184 129.347 47.616C129.955 48.048 130.771 48.264 131.795 48.264C132.451 48.264 133.091 48.208 133.715 48.096C134.355 47.968 134.875 47.816 135.275 47.64L135.755 50.544C135.563 50.64 135.307 50.736 134.987 50.832C134.667 50.928 134.307 51.008 133.907 51.072C133.523 51.152 133.107 51.216 132.659 51.264C132.211 51.312 131.763 51.336 131.315 51.336C130.179 51.336 129.187 51.168 128.339 50.832C127.507 50.496 126.811 50.04 126.251 49.464C125.707 48.872 125.299 48.176 125.027 47.376C124.771 46.576 124.643 45.712 124.643 44.784ZM133.043 43.416C133.027 43.112 132.971 42.816 132.875 42.528C132.795 42.24 132.659 41.984 132.467 41.76C132.291 41.536 132.059 41.352 131.771 41.208C131.499 41.064 131.155 40.992 130.739 40.992C130.339 40.992 129.995 41.064 129.707 41.208C129.419 41.336 129.179 41.512 128.987 41.736C128.795 41.96 128.643 42.224 128.531 42.528C128.435 42.816 128.363 43.112 128.315 43.416H133.043ZM146.866 41.544C146.546 41.464 146.17 41.384 145.738 41.304C145.306 41.208 144.842 41.16 144.346 41.16C144.122 41.16 143.85 41.184 143.53 41.232C143.226 41.264 142.994 41.304 142.834 41.352V51H139.258V39.048C139.898 38.824 140.65 38.616 141.514 38.424C142.394 38.216 143.37 38.112 144.442 38.112C144.634 38.112 144.866 38.128 145.138 38.16C145.41 38.176 145.682 38.208 145.954 38.256C146.226 38.288 146.498 38.336 146.77 38.4C147.042 38.448 147.274 38.512 147.466 38.592L146.866 41.544ZM163.237 44.592C163.237 42.288 162.389 41.136 160.693 41.136C160.325 41.136 159.957 41.184 159.589 41.28C159.237 41.376 158.949 41.496 158.725 41.64V48.144C158.901 48.176 159.125 48.208 159.397 48.24C159.669 48.256 159.965 48.264 160.285 48.264C161.261 48.264 161.997 47.928 162.493 47.256C162.989 46.584 163.237 45.696 163.237 44.592ZM166.885 44.688C166.885 45.696 166.733 46.608 166.429 47.424C166.141 48.24 165.717 48.936 165.157 49.512C164.597 50.088 163.909 50.536 163.093 50.856C162.277 51.16 161.349 51.312 160.309 51.312C159.877 51.312 159.421 51.288 158.941 51.24C158.477 51.208 158.013 51.16 157.549 51.096C157.101 51.032 156.669 50.96 156.253 50.88C155.837 50.784 155.469 50.688 155.149 50.592V32.952L158.725 32.376V38.664C159.125 38.488 159.541 38.352 159.973 38.256C160.405 38.16 160.869 38.112 161.365 38.112C162.261 38.112 163.053 38.272 163.741 38.592C164.429 38.896 165.005 39.336 165.469 39.912C165.933 40.488 166.285 41.184 166.525 42C166.765 42.8 166.885 43.696 166.885 44.688ZM169.033 44.784C169.033 43.664 169.201 42.688 169.537 41.856C169.889 41.008 170.345 40.304 170.905 39.744C171.465 39.184 172.105 38.76 172.825 38.472C173.561 38.184 174.313 38.04 175.081 38.04C176.873 38.04 178.289 38.592 179.329 39.696C180.369 40.784 180.889 42.392 180.889 44.52C180.889 44.728 180.881 44.96 180.865 45.216C180.849 45.456 180.833 45.672 180.817 45.864H172.705C172.785 46.6 173.129 47.184 173.737 47.616C174.345 48.048 175.161 48.264 176.185 48.264C176.841 48.264 177.481 48.208 178.105 48.096C178.745 47.968 179.265 47.816 179.665 47.64L180.145 50.544C179.953 50.64 179.697 50.736 179.377 50.832C179.057 50.928 178.697 51.008 178.297 51.072C177.913 51.152 177.497 51.216 177.049 51.264C176.601 51.312 176.153 51.336 175.705 51.336C174.569 51.336 173.577 51.168 172.729 50.832C171.897 50.496 171.201 50.04 170.641 49.464C170.097 48.872 169.689 48.176 169.417 47.376C169.161 46.576 169.033 45.712 169.033 44.784ZM177.433 43.416C177.417 43.112 177.361 42.816 177.265 42.528C177.185 42.24 177.049 41.984 176.857 41.76C176.681 41.536 176.449 41.352 176.161 41.208C175.889 41.064 175.545 40.992 175.129 40.992C174.729 40.992 174.385 41.064 174.097 41.208C173.809 41.336 173.569 41.512 173.377 41.736C173.185 41.96 173.033 42.224 172.921 42.528C172.825 42.816 172.753 43.112 172.705 43.416H177.433ZM183.049 44.784C183.049 43.664 183.217 42.688 183.553 41.856C183.905 41.008 184.361 40.304 184.921 39.744C185.481 39.184 186.121 38.76 186.841 38.472C187.577 38.184 188.329 38.04 189.097 38.04C190.889 38.04 192.305 38.592 193.345 39.696C194.385 40.784 194.905 42.392 194.905 44.52C194.905 44.728 194.897 44.96 194.881 45.216C194.865 45.456 194.849 45.672 194.833 45.864H186.721C186.801 46.6 187.145 47.184 187.753 47.616C188.361 48.048 189.177 48.264 190.201 48.264C190.857 48.264 191.497 48.208 192.121 48.096C192.761 47.968 193.281 47.816 193.681 47.64L194.161 50.544C193.969 50.64 193.713 50.736 193.393 50.832C193.073 50.928 192.713 51.008 192.313 51.072C191.929 51.152 191.513 51.216 191.065 51.264C190.617 51.312 190.169 51.336 189.721 51.336C188.585 51.336 187.593 51.168 186.745 50.832C185.913 50.496 185.217 50.04 184.657 49.464C184.113 48.872 183.705 48.176 183.433 47.376C183.177 46.576 183.049 45.712 183.049 44.784ZM191.449 43.416C191.433 43.112 191.377 42.816 191.281 42.528C191.201 42.24 191.065 41.984 190.873 41.76C190.697 41.536 190.465 41.352 190.177 41.208C189.905 41.064 189.561 40.992 189.145 40.992C188.745 40.992 188.401 41.064 188.113 41.208C187.825 41.336 187.585 41.512 187.393 41.736C187.201 41.96 187.049 42.224 186.937 42.528C186.841 42.816 186.769 43.112 186.721 43.416H191.449ZM197.664 38.808C198.272 38.632 199.056 38.472 200.016 38.328C200.976 38.168 201.984 38.088 203.04 38.088C204.112 38.088 205 38.232 205.704 38.52C206.424 38.792 206.992 39.184 207.408 39.696C207.824 40.208 208.12 40.816 208.296 41.52C208.472 42.224 208.56 43.008 208.56 43.872V51H204.984V44.304C204.984 43.152 204.832 42.336 204.528 41.856C204.224 41.376 203.656 41.136 202.824 41.136C202.568 41.136 202.296 41.152 202.008 41.184C201.72 41.2 201.464 41.224 201.24 41.256V51H197.664V38.808ZM217.443 35.232L221.019 34.656V38.376H225.315V41.352H221.019V45.792C221.019 46.544 221.147 47.144 221.403 47.592C221.675 48.04 222.211 48.264 223.011 48.264C223.395 48.264 223.787 48.232 224.187 48.168C224.603 48.088 224.979 47.984 225.315 47.856L225.819 50.64C225.387 50.816 224.907 50.968 224.379 51.096C223.851 51.224 223.203 51.288 222.435 51.288C221.459 51.288 220.651 51.16 220.011 50.904C219.371 50.632 218.859 50.264 218.475 49.8C218.091 49.32 217.819 48.744 217.659 48.072C217.515 47.4 217.443 46.656 217.443 45.84V35.232ZM228.227 51V32.952L231.803 32.376V38.424C232.043 38.344 232.347 38.272 232.715 38.208C233.099 38.128 233.467 38.088 233.819 38.088C234.843 38.088 235.691 38.232 236.363 38.52C237.051 38.792 237.595 39.184 237.995 39.696C238.411 40.208 238.699 40.816 238.859 41.52C239.035 42.224 239.123 43.008 239.123 43.872V51H235.547V44.304C235.547 43.152 235.395 42.336 235.091 41.856C234.803 41.376 234.259 41.136 233.459 41.136C233.139 41.136 232.835 41.168 232.547 41.232C232.275 41.28 232.027 41.336 231.803 41.4V51H228.227ZM245.936 51H242.36V38.376H245.936V51ZM246.272 34.728C246.272 35.384 246.056 35.904 245.624 36.288C245.208 36.656 244.712 36.84 244.136 36.84C243.56 36.84 243.056 36.656 242.624 36.288C242.208 35.904 242 35.384 242 34.728C242 34.072 242.208 33.56 242.624 33.192C243.056 32.808 243.56 32.616 244.136 32.616C244.712 32.616 245.208 32.808 245.624 33.192C246.056 33.56 246.272 34.072 246.272 34.728ZM252.921 48.432C253.577 48.432 254.041 48.368 254.313 48.24C254.585 48.112 254.721 47.864 254.721 47.496C254.721 47.208 254.545 46.96 254.193 46.752C253.841 46.528 253.305 46.28 252.585 46.008C252.025 45.8 251.513 45.584 251.049 45.36C250.601 45.136 250.217 44.872 249.897 44.568C249.577 44.248 249.329 43.872 249.153 43.44C248.977 43.008 248.889 42.488 248.889 41.88C248.889 40.696 249.329 39.76 250.209 39.072C251.089 38.384 252.297 38.04 253.833 38.04C254.601 38.04 255.337 38.112 256.041 38.256C256.745 38.384 257.305 38.528 257.721 38.688L257.097 41.472C256.681 41.328 256.225 41.2 255.729 41.088C255.249 40.976 254.705 40.92 254.097 40.92C252.977 40.92 252.417 41.232 252.417 41.856C252.417 42 252.441 42.128 252.489 42.24C252.537 42.352 252.633 42.464 252.777 42.576C252.921 42.672 253.113 42.784 253.353 42.912C253.609 43.024 253.929 43.152 254.313 43.296C255.097 43.584 255.745 43.872 256.257 44.16C256.769 44.432 257.169 44.736 257.457 45.072C257.761 45.392 257.969 45.752 258.081 46.152C258.209 46.552 258.273 47.016 258.273 47.544C258.273 48.792 257.801 49.736 256.857 50.376C255.929 51.016 254.609 51.336 252.897 51.336C251.777 51.336 250.841 51.24 250.089 51.048C249.353 50.856 248.841 50.696 248.553 50.568L249.153 47.664C249.761 47.904 250.385 48.096 251.025 48.24C251.665 48.368 252.297 48.432 252.921 48.432ZM94.2188 76.504C94.5708 76.504 94.9068 76.496 95.2268 76.48C95.5468 76.464 95.8028 76.44 95.9948 76.408V73.696C95.8508 73.664 95.6348 73.632 95.3468 73.6C95.0588 73.568 94.7948 73.552 94.5548 73.552C94.2188 73.552 93.8988 73.576 93.5948 73.624C93.3068 73.656 93.0508 73.728 92.8268 73.84C92.6028 73.952 92.4268 74.104 92.2988 74.296C92.1708 74.488 92.1068 74.728 92.1068 75.016C92.1068 75.576 92.2908 75.968 92.6588 76.192C93.0428 76.4 93.5628 76.504 94.2188 76.504ZM93.9308 66.04C94.9868 66.04 95.8668 66.16 96.5708 66.4C97.2748 66.64 97.8348 66.984 98.2508 67.432C98.6828 67.88 98.9868 68.424 99.1628 69.064C99.3388 69.704 99.4268 70.416 99.4268 71.2V78.64C98.9148 78.752 98.2028 78.88 97.2908 79.024C96.3788 79.184 95.2748 79.264 93.9788 79.264C93.1628 79.264 92.4188 79.192 91.7468 79.048C91.0908 78.904 90.5228 78.672 90.0428 78.352C89.5628 78.016 89.1948 77.584 88.9388 77.056C88.6828 76.528 88.5548 75.88 88.5548 75.112C88.5548 74.376 88.6988 73.752 88.9868 73.24C89.2908 72.728 89.6908 72.32 90.1868 72.016C90.6828 71.712 91.2508 71.496 91.8908 71.368C92.5308 71.224 93.1948 71.152 93.8828 71.152C94.3468 71.152 94.7548 71.176 95.1068 71.224C95.4748 71.256 95.7708 71.304 95.9948 71.368V71.032C95.9948 70.424 95.8108 69.936 95.4428 69.568C95.0748 69.2 94.4348 69.016 93.5228 69.016C92.9148 69.016 92.3148 69.064 91.7228 69.16C91.1308 69.24 90.6188 69.36 90.1868 69.52L89.7308 66.64C89.9388 66.576 90.1948 66.512 90.4988 66.448C90.8188 66.368 91.1628 66.304 91.5308 66.256C91.8988 66.192 92.2828 66.144 92.6828 66.112C93.0988 66.064 93.5148 66.04 93.9308 66.04ZM108.132 60.376C108.804 60.376 109.42 60.448 109.98 60.592C110.54 60.72 110.972 60.848 111.276 60.976L110.58 63.832C110.26 63.688 109.908 63.584 109.524 63.52C109.156 63.44 108.812 63.4 108.492 63.4C108.06 63.4 107.692 63.464 107.388 63.592C107.1 63.704 106.868 63.864 106.692 64.072C106.532 64.28 106.412 64.528 106.332 64.816C106.268 65.104 106.236 65.416 106.236 65.752V66.376H110.652V69.352H106.236V79H102.66V65.704C102.66 64.072 103.116 62.776 104.028 61.816C104.956 60.856 106.324 60.376 108.132 60.376ZM118.188 60.376C118.86 60.376 119.476 60.448 120.036 60.592C120.596 60.72 121.028 60.848 121.332 60.976L120.636 63.832C120.316 63.688 119.964 63.584 119.58 63.52C119.212 63.44 118.868 63.4 118.548 63.4C118.116 63.4 117.748 63.464 117.444 63.592C117.156 63.704 116.924 63.864 116.748 64.072C116.588 64.28 116.468 64.528 116.388 64.816C116.324 65.104 116.292 65.416 116.292 65.752V66.376H120.708V69.352H116.292V79H112.716V65.704C112.716 64.072 113.172 62.776 114.084 61.816C115.012 60.856 116.38 60.376 118.188 60.376ZM134.461 72.664C134.461 73.656 134.317 74.568 134.029 75.4C133.741 76.216 133.325 76.92 132.781 77.512C132.237 78.088 131.581 78.536 130.813 78.856C130.061 79.176 129.213 79.336 128.269 79.336C127.341 79.336 126.493 79.176 125.725 78.856C124.973 78.536 124.325 78.088 123.781 77.512C123.237 76.92 122.813 76.216 122.509 75.4C122.205 74.568 122.053 73.656 122.053 72.664C122.053 71.672 122.205 70.768 122.509 69.952C122.829 69.136 123.261 68.44 123.805 67.864C124.365 67.288 125.021 66.84 125.773 66.52C126.541 66.2 127.373 66.04 128.269 66.04C129.181 66.04 130.013 66.2 130.765 66.52C131.533 66.84 132.189 67.288 132.733 67.864C133.277 68.44 133.701 69.136 134.005 69.952C134.309 70.768 134.461 71.672 134.461 72.664ZM130.813 72.664C130.813 71.56 130.589 70.696 130.141 70.072C129.709 69.432 129.085 69.112 128.269 69.112C127.453 69.112 126.821 69.432 126.373 70.072C125.925 70.696 125.701 71.56 125.701 72.664C125.701 73.768 125.925 74.648 126.373 75.304C126.821 75.944 127.453 76.264 128.269 76.264C129.085 76.264 129.709 75.944 130.141 75.304C130.589 74.648 130.813 73.768 130.813 72.664ZM144.839 69.544C144.519 69.464 144.143 69.384 143.711 69.304C143.279 69.208 142.815 69.16 142.319 69.16C142.095 69.16 141.823 69.184 141.503 69.232C141.199 69.264 140.967 69.304 140.807 69.352V79H137.231V67.048C137.871 66.824 138.623 66.616 139.487 66.424C140.367 66.216 141.343 66.112 142.415 66.112C142.607 66.112 142.839 66.128 143.111 66.16C143.383 66.176 143.655 66.208 143.927 66.256C144.199 66.288 144.471 66.336 144.743 66.4C145.015 66.448 145.247 66.512 145.439 66.592L144.839 69.544ZM150.169 72.592C150.169 73.696 150.417 74.584 150.913 75.256C151.409 75.928 152.145 76.264 153.121 76.264C153.441 76.264 153.737 76.256 154.009 76.24C154.281 76.208 154.505 76.176 154.681 76.144V69.64C154.457 69.496 154.161 69.376 153.793 69.28C153.441 69.184 153.081 69.136 152.713 69.136C151.017 69.136 150.169 70.288 150.169 72.592ZM158.257 78.592C157.937 78.688 157.569 78.784 157.153 78.88C156.737 78.96 156.297 79.032 155.833 79.096C155.385 79.16 154.921 79.208 154.441 79.24C153.977 79.288 153.529 79.312 153.097 79.312C152.057 79.312 151.129 79.16 150.313 78.856C149.497 78.552 148.809 78.12 148.249 77.56C147.689 76.984 147.257 76.296 146.953 75.496C146.665 74.68 146.521 73.768 146.521 72.76C146.521 71.736 146.649 70.816 146.905 70C147.161 69.168 147.529 68.464 148.009 67.888C148.489 67.312 149.073 66.872 149.761 66.568C150.465 66.264 151.265 66.112 152.161 66.112C152.657 66.112 153.097 66.16 153.481 66.256C153.881 66.352 154.281 66.488 154.681 66.664V60.952L158.257 60.376V78.592ZM166.43 76.504C166.782 76.504 167.118 76.496 167.438 76.48C167.758 76.464 168.014 76.44 168.206 76.408V73.696C168.062 73.664 167.846 73.632 167.558 73.6C167.27 73.568 167.006 73.552 166.766 73.552C166.43 73.552 166.11 73.576 165.806 73.624C165.518 73.656 165.262 73.728 165.038 73.84C164.814 73.952 164.638 74.104 164.51 74.296C164.382 74.488 164.318 74.728 164.318 75.016C164.318 75.576 164.502 75.968 164.87 76.192C165.254 76.4 165.774 76.504 166.43 76.504ZM166.142 66.04C167.198 66.04 168.078 66.16 168.782 66.4C169.486 66.64 170.046 66.984 170.462 67.432C170.894 67.88 171.198 68.424 171.374 69.064C171.55 69.704 171.638 70.416 171.638 71.2V78.64C171.126 78.752 170.414 78.88 169.502 79.024C168.59 79.184 167.486 79.264 166.19 79.264C165.374 79.264 164.63 79.192 163.958 79.048C163.302 78.904 162.734 78.672 162.254 78.352C161.774 78.016 161.406 77.584 161.15 77.056C160.894 76.528 160.766 75.88 160.766 75.112C160.766 74.376 160.91 73.752 161.198 73.24C161.502 72.728 161.902 72.32 162.398 72.016C162.894 71.712 163.462 71.496 164.102 71.368C164.742 71.224 165.406 71.152 166.094 71.152C166.558 71.152 166.966 71.176 167.318 71.224C167.686 71.256 167.982 71.304 168.206 71.368V71.032C168.206 70.424 168.022 69.936 167.654 69.568C167.286 69.2 166.646 69.016 165.734 69.016C165.126 69.016 164.526 69.064 163.934 69.16C163.342 69.24 162.83 69.36 162.398 69.52L161.942 66.64C162.15 66.576 162.406 66.512 162.71 66.448C163.03 66.368 163.374 66.304 163.742 66.256C164.11 66.192 164.494 66.144 164.894 66.112C165.31 66.064 165.726 66.04 166.142 66.04ZM182.959 72.592C182.959 70.288 182.111 69.136 180.415 69.136C180.047 69.136 179.679 69.184 179.311 69.28C178.959 69.376 178.671 69.496 178.447 69.64V76.144C178.623 76.176 178.847 76.208 179.119 76.24C179.391 76.256 179.687 76.264 180.007 76.264C180.983 76.264 181.719 75.928 182.215 75.256C182.711 74.584 182.959 73.696 182.959 72.592ZM186.607 72.688C186.607 73.696 186.455 74.608 186.151 75.424C185.863 76.24 185.439 76.936 184.879 77.512C184.319 78.088 183.631 78.536 182.815 78.856C181.999 79.16 181.071 79.312 180.031 79.312C179.599 79.312 179.143 79.288 178.663 79.24C178.199 79.208 177.735 79.16 177.271 79.096C176.823 79.032 176.391 78.96 175.975 78.88C175.559 78.784 175.191 78.688 174.871 78.592V60.952L178.447 60.376V66.664C178.847 66.488 179.263 66.352 179.695 66.256C180.127 66.16 180.591 66.112 181.087 66.112C181.983 66.112 182.775 66.272 183.463 66.592C184.151 66.896 184.727 67.336 185.191 67.912C185.655 68.488 186.007 69.184 186.247 70C186.487 70.8 186.607 71.696 186.607 72.688ZM194.396 79.24C193.356 79.224 192.508 79.112 191.852 78.904C191.212 78.696 190.7 78.408 190.316 78.04C189.948 77.656 189.692 77.2 189.548 76.672C189.42 76.128 189.356 75.52 189.356 74.848V60.952L192.932 60.376V74.128C192.932 74.448 192.956 74.736 193.004 74.992C193.052 75.248 193.14 75.464 193.268 75.64C193.412 75.816 193.612 75.96 193.868 76.072C194.124 76.184 194.468 76.256 194.9 76.288L194.396 79.24ZM196.35 72.784C196.35 71.664 196.518 70.688 196.854 69.856C197.206 69.008 197.662 68.304 198.222 67.744C198.782 67.184 199.422 66.76 200.142 66.472C200.878 66.184 201.63 66.04 202.398 66.04C204.19 66.04 205.606 66.592 206.646 67.696C207.686 68.784 208.206 70.392 208.206 72.52C208.206 72.728 208.198 72.96 208.182 73.216C208.166 73.456 208.15 73.672 208.134 73.864H200.022C200.102 74.6 200.446 75.184 201.054 75.616C201.662 76.048 202.478 76.264 203.502 76.264C204.158 76.264 204.798 76.208 205.422 76.096C206.062 75.968 206.582 75.816 206.982 75.64L207.462 78.544C207.27 78.64 207.014 78.736 206.694 78.832C206.374 78.928 206.014 79.008 205.614 79.072C205.23 79.152 204.814 79.216 204.366 79.264C203.918 79.312 203.47 79.336 203.022 79.336C201.886 79.336 200.894 79.168 200.046 78.832C199.214 78.496 198.518 78.04 197.958 77.464C197.414 76.872 197.006 76.176 196.734 75.376C196.478 74.576 196.35 73.712 196.35 72.784ZM204.75 71.416C204.734 71.112 204.678 70.816 204.582 70.528C204.502 70.24 204.366 69.984 204.174 69.76C203.998 69.536 203.766 69.352 203.478 69.208C203.206 69.064 202.862 68.992 202.446 68.992C202.046 68.992 201.702 69.064 201.414 69.208C201.126 69.336 200.886 69.512 200.694 69.736C200.502 69.96 200.35 70.224 200.238 70.528C200.142 70.816 200.07 71.112 200.022 71.416H204.75Z" fill="#030749"/>
<path fill-rule="evenodd" clip-rule="evenodd" d="M158.731 80.0241C142.336 80.2195 125.932 80.9946 109.607 82.3799C101.846 83.0387 92.8334 82.9563 85.3062 85.2023C84.9311 85.3153 85.0025 85.6544 85.0106 85.6883C85.0269 85.7578 85.0951 85.9886 85.3938 85.9999C85.4263 86.0016 85.6552 85.9693 85.7429 85.958C87.9657 85.6673 90.1804 85.3283 92.4048 85.0538C100.085 84.1028 107.787 83.3842 115.501 82.7545C125.74 81.9181 136.067 81.4725 146.333 81.1237C151.953 80.9332 157.707 81.1867 163.344 80.7927C165.414 80.7814 167.485 80.7798 169.555 80.7863C178.209 80.817 186.853 81.1431 195.493 81.5904C198.271 81.7341 200.39 81.8891 203.109 81.994C204.142 82.0344 205.78 82.0619 206.92 82.0796C207.087 82.0828 207.514 82.086 207.691 82.0877C207.709 82.0909 207.727 82.0909 207.746 82.0909C207.815 82.0909 207.847 82.086 207.854 82.086C208.24 82.0295 208.204 81.6662 208.195 81.6113C208.193 81.6 208.135 81.2933 207.802 81.282C207.722 81.2787 207.152 81.2755 206.933 81.2723C205.8 81.2545 204.168 81.2271 203.14 81.1883C200.425 81.0834 198.308 80.9284 195.535 80.7847C186.882 80.3374 178.225 80.0096 169.558 79.979C168.499 79.9757 167.439 79.9741 166.38 79.9757C166.345 79.8837 166.265 79.7804 166.09 79.7352C165.926 79.6932 164.752 79.656 164.299 79.6189C160.946 79.3444 161.045 79.3573 157.356 79.1329C151.769 78.7922 150.918 78.7147 145.107 78.571C134.552 78.3094 123.992 78.3304 113.434 78.3562C108.223 78.3708 102.642 78.7211 97.3505 78.0672C99.0943 77.8638 100.845 77.7152 102.592 77.5457C108.557 76.9676 114.527 76.6092 120.517 76.3573C134.885 75.7534 149.275 75.5128 163.638 76.3363C160.581 76.3654 157.525 76.4332 154.468 76.4768C142.022 76.6576 129.457 76.522 117.037 77.4601C116.815 77.4779 116.648 77.6716 116.664 77.8928C116.68 78.1156 116.877 78.282 117.099 78.2658C129.502 77.3277 142.05 77.4649 154.479 77.2841C159.097 77.2179 163.713 77.0984 168.33 77.1339C169.915 77.1469 171.5 77.205 173.085 77.2244C173.398 77.2292 174.205 77.2906 174.32 77.2647C174.575 77.2082 174.63 77.0209 174.646 76.9289C174.655 76.874 174.681 76.5575 174.291 76.4445C171.631 75.6727 166.723 75.7082 164.138 75.5564C149.598 74.7007 135.029 74.9396 120.483 75.55C114.478 75.8035 108.494 76.1636 102.512 76.7432C100.422 76.945 98.3279 77.1194 96.2464 77.3875C95.9103 77.431 95.1553 77.494 94.79 77.5602C94.6373 77.5877 94.5269 77.6264 94.4782 77.6539C94.2882 77.7604 94.2541 77.9154 94.2541 78.0204C94.2525 78.1011 94.2866 78.3853 94.6844 78.4628C100.746 79.6431 107.341 79.1797 113.436 79.1636C123.987 79.1377 134.539 79.1167 145.088 79.3783C150.884 79.522 151.732 79.5979 157.307 79.9386C157.858 79.9709 158.324 79.9999 158.731 80.0241Z" fill="#E99557"/>
<path fill-rule="evenodd" clip-rule="evenodd" d="M274.476 6.06859C274.866 4.95181 275.115 3.76906 275.349 2.62104C275.399 2.37371 275.261 2.12837 275.039 2.09156C274.819 2.03689 274.6 2.19803 274.552 2.42752C274.326 3.54029 274.089 4.68786 273.714 5.75206C273.634 5.97876 273.738 6.23932 273.948 6.32909C274.158 6.41885 274.395 6.29529 274.476 6.06859Z" fill="#E99557"/>
<path fill-rule="evenodd" clip-rule="evenodd" d="M278.328 9.88233C280.196 8.1907 281.863 6.24839 283.774 4.59634C283.952 4.44977 283.985 4.1651 283.847 3.97366C283.709 3.7822 283.452 3.74246 283.273 3.90687C281.357 5.55849 279.685 7.50038 277.812 9.19159C277.636 9.35633 277.61 9.64149 277.752 9.83331C277.896 10.0073 278.152 10.0471 278.328 9.88233Z" fill="#E99557"/>
<path fill-rule="evenodd" clip-rule="evenodd" d="M284.617 13.8862C283.633 13.8563 282.649 13.8263 281.665 13.7963C281.44 13.7772 281.249 13.9766 281.238 14.2273C281.228 14.478 281.404 14.6726 281.629 14.6917C282.614 14.7217 283.6 14.7519 284.585 14.7819C284.811 14.7832 285.002 14.5838 285.011 14.333C285.018 14.1 284.843 13.8875 284.617 13.8862Z" fill="#E99557"/>
</svg>
