<svg width="524" height="89" viewBox="0 0 524 89" fill="none" xmlns="http://www.w3.org/2000/svg">
<path d="M14.212 12.518C11.7413 12.518 9.95067 13.2093 8.84 14.592C7.752 15.952 7.208 17.822 7.208 20.202C7.208 21.358 7.344 22.412 7.616 23.364C7.888 24.2933 8.296 25.098 8.84 25.778C9.384 26.458 10.064 26.9907 10.88 27.376C11.696 27.7387 12.648 27.92 13.736 27.92C14.3253 27.92 14.824 27.9087 15.232 27.886C15.6627 27.8633 16.0367 27.818 16.354 27.75V19.556H21.658V31.218C21.0233 31.4673 20.0033 31.728 18.598 32C17.1927 32.2947 15.4587 32.442 13.396 32.442C11.628 32.442 10.0187 32.17 8.568 31.626C7.14 31.082 5.916 30.2887 4.896 29.246C3.876 28.2033 3.08267 26.9227 2.516 25.404C1.972 23.8853 1.7 22.1513 1.7 20.202C1.7 18.23 2.006 16.4847 2.618 14.966C3.23 13.4473 4.06867 12.1667 5.134 11.124C6.19933 10.0587 7.446 9.254 8.874 8.71C10.3247 8.166 11.866 7.894 13.498 7.894C14.6087 7.894 15.606 7.97333 16.49 8.132C17.3967 8.268 18.1673 8.438 18.802 8.642C19.4593 8.82333 19.992 9.016 20.4 9.22C20.8307 9.424 21.1367 9.58267 21.318 9.696L19.788 13.946C19.0627 13.5607 18.224 13.232 17.272 12.96C16.3427 12.6653 15.3227 12.518 14.212 12.518ZM37.031 18.604C36.5777 18.4907 36.045 18.3773 35.433 18.264C34.821 18.128 34.1637 18.06 33.461 18.06C33.1437 18.06 32.7584 18.094 32.305 18.162C31.8744 18.2073 31.5457 18.264 31.319 18.332V32H26.253V15.068C27.1597 14.7507 28.225 14.456 29.449 14.184C30.6957 13.8893 32.0784 13.742 33.597 13.742C33.869 13.742 34.1977 13.7647 34.583 13.81C34.9684 13.8327 35.3537 13.878 35.739 13.946C36.1244 13.9913 36.5097 14.0593 36.895 14.15C37.2804 14.218 37.609 14.3087 37.881 14.422L37.031 18.604ZM39.4148 23.194C39.4148 21.6073 39.6528 20.2247 40.1288 19.046C40.6274 17.8447 41.2734 16.8473 42.0668 16.054C42.8601 15.2607 43.7668 14.66 44.7868 14.252C45.8294 13.844 46.8948 13.64 47.9828 13.64C50.5214 13.64 52.5274 14.422 54.0008 15.986C55.4741 17.5273 56.2108 19.8053 56.2108 22.82C56.2108 23.1147 56.1994 23.4433 56.1768 23.806C56.1541 24.146 56.1314 24.452 56.1088 24.724H44.6168C44.7301 25.7667 45.2174 26.594 46.0788 27.206C46.9401 27.818 48.0961 28.124 49.5468 28.124C50.4761 28.124 51.3828 28.0447 52.2668 27.886C53.1734 27.7047 53.9101 27.4893 54.4768 27.24L55.1568 31.354C54.8848 31.49 54.5221 31.626 54.0688 31.762C53.6154 31.898 53.1054 32.0113 52.5388 32.102C51.9948 32.2153 51.4054 32.306 50.7708 32.374C50.1361 32.442 49.5014 32.476 48.8668 32.476C47.2574 32.476 45.8521 32.238 44.6508 31.762C43.4721 31.286 42.4861 30.64 41.6928 29.824C40.9221 28.9853 40.3441 27.9993 39.9588 26.866C39.5961 25.7327 39.4148 24.5087 39.4148 23.194ZM51.3148 21.256C51.2921 20.8253 51.2128 20.406 51.0768 19.998C50.9634 19.59 50.7708 19.2273 50.4988 18.91C50.2494 18.5927 49.9208 18.332 49.5128 18.128C49.1274 17.924 48.6401 17.822 48.0508 17.822C47.4841 17.822 46.9968 17.924 46.5888 18.128C46.1808 18.3093 45.8408 18.5587 45.5688 18.876C45.2968 19.1933 45.0814 19.5673 44.9228 19.998C44.7868 20.406 44.6848 20.8253 44.6168 21.256H51.3148ZM66.9542 28.464C67.4529 28.464 67.9289 28.4527 68.3822 28.43C68.8356 28.4073 69.1982 28.3733 69.4702 28.328V24.486C69.2662 24.4407 68.9602 24.3953 68.5522 24.35C68.1442 24.3047 67.7702 24.282 67.4302 24.282C66.9542 24.282 66.5009 24.316 66.0702 24.384C65.6622 24.4293 65.2996 24.5313 64.9822 24.69C64.6649 24.8487 64.4156 25.064 64.2342 25.336C64.0529 25.608 63.9622 25.948 63.9622 26.356C63.9622 27.1493 64.2229 27.7047 64.7442 28.022C65.2882 28.3167 66.0249 28.464 66.9542 28.464ZM66.5462 13.64C68.0422 13.64 69.2889 13.81 70.2862 14.15C71.2836 14.49 72.0769 14.9773 72.6662 15.612C73.2782 16.2467 73.7089 17.0173 73.9582 17.924C74.2076 18.8307 74.3322 19.8393 74.3322 20.95V31.49C73.6069 31.6487 72.5982 31.83 71.3062 32.034C70.0142 32.2607 68.4502 32.374 66.6142 32.374C65.4582 32.374 64.4042 32.272 63.4522 32.068C62.5229 31.864 61.7182 31.5353 61.0382 31.082C60.3582 30.606 59.8369 29.994 59.4742 29.246C59.1116 28.498 58.9302 27.58 58.9302 26.492C58.9302 25.4493 59.1342 24.5653 59.5422 23.84C59.9729 23.1147 60.5396 22.5367 61.2422 22.106C61.9449 21.6753 62.7496 21.3693 63.6562 21.188C64.5629 20.984 65.5036 20.882 66.4782 20.882C67.1356 20.882 67.7136 20.916 68.2122 20.984C68.7336 21.0293 69.1529 21.0973 69.4702 21.188V20.712C69.4702 19.8507 69.2096 19.1593 68.6882 18.638C68.1669 18.1167 67.2602 17.856 65.9682 17.856C65.1069 17.856 64.2569 17.924 63.4182 18.06C62.5796 18.1733 61.8542 18.3433 61.2422 18.57L60.5962 14.49C60.8909 14.3993 61.2536 14.3087 61.6842 14.218C62.1376 14.1047 62.6249 14.014 63.1462 13.946C63.6676 13.8553 64.2116 13.7873 64.7782 13.742C65.3676 13.674 65.9569 13.64 66.5462 13.64ZM78.7432 9.662L83.8092 8.846V14.116H89.8952V18.332H83.8092V24.622C83.8092 25.6873 83.9905 26.5373 84.3532 27.172C84.7385 27.8067 85.4979 28.124 86.6312 28.124C87.1752 28.124 87.7305 28.0787 88.2972 27.988C88.8865 27.8747 89.4192 27.7273 89.8952 27.546L90.6092 31.49C89.9972 31.7393 89.3172 31.9547 88.5692 32.136C87.8212 32.3173 86.9032 32.408 85.8152 32.408C84.4325 32.408 83.2879 32.2267 82.3812 31.864C81.4745 31.4787 80.7492 30.9573 80.2052 30.3C79.6612 29.62 79.2759 28.804 79.0492 27.852C78.8452 26.9 78.7432 25.846 78.7432 24.69V9.662ZM102.189 32V6.432L107.255 5.616V14.184C107.595 14.0707 108.025 13.9687 108.547 13.878C109.091 13.7647 109.612 13.708 110.111 13.708C111.561 13.708 112.763 13.912 113.715 14.32C114.689 14.7053 115.46 15.2607 116.027 15.986C116.616 16.7113 117.024 17.5727 117.251 18.57C117.5 19.5673 117.625 20.678 117.625 21.902V32H112.559V22.514C112.559 20.882 112.343 19.726 111.913 19.046C111.505 18.366 110.734 18.026 109.601 18.026C109.147 18.026 108.717 18.0713 108.309 18.162C107.923 18.23 107.572 18.3093 107.255 18.4V32H102.189ZM121.36 23.194C121.36 21.6073 121.598 20.2247 122.074 19.046C122.573 17.8447 123.219 16.8473 124.012 16.054C124.805 15.2607 125.712 14.66 126.732 14.252C127.775 13.844 128.84 13.64 129.928 13.64C132.467 13.64 134.473 14.422 135.946 15.986C137.419 17.5273 138.156 19.8053 138.156 22.82C138.156 23.1147 138.145 23.4433 138.122 23.806C138.099 24.146 138.077 24.452 138.054 24.724H126.562C126.675 25.7667 127.163 26.594 128.024 27.206C128.885 27.818 130.041 28.124 131.492 28.124C132.421 28.124 133.328 28.0447 134.212 27.886C135.119 27.7047 135.855 27.4893 136.422 27.24L137.102 31.354C136.83 31.49 136.467 31.626 136.014 31.762C135.561 31.898 135.051 32.0113 134.484 32.102C133.94 32.2153 133.351 32.306 132.716 32.374C132.081 32.442 131.447 32.476 130.812 32.476C129.203 32.476 127.797 32.238 126.596 31.762C125.417 31.286 124.431 30.64 123.638 29.824C122.867 28.9853 122.289 27.9993 121.904 26.866C121.541 25.7327 121.36 24.5087 121.36 23.194ZM133.26 21.256C133.237 20.8253 133.158 20.406 133.022 19.998C132.909 19.59 132.716 19.2273 132.444 18.91C132.195 18.5927 131.866 18.332 131.458 18.128C131.073 17.924 130.585 17.822 129.996 17.822C129.429 17.822 128.942 17.924 128.534 18.128C128.126 18.3093 127.786 18.5587 127.514 18.876C127.242 19.1933 127.027 19.5673 126.868 19.998C126.732 20.406 126.63 20.8253 126.562 21.256H133.26ZM148.9 28.464C149.398 28.464 149.874 28.4527 150.328 28.43C150.781 28.4073 151.144 28.3733 151.416 28.328V24.486C151.212 24.4407 150.906 24.3953 150.498 24.35C150.09 24.3047 149.716 24.282 149.376 24.282C148.9 24.282 148.446 24.316 148.016 24.384C147.608 24.4293 147.245 24.5313 146.928 24.69C146.61 24.8487 146.361 25.064 146.18 25.336C145.998 25.608 145.908 25.948 145.908 26.356C145.908 27.1493 146.168 27.7047 146.69 28.022C147.234 28.3167 147.97 28.464 148.9 28.464ZM148.492 13.64C149.988 13.64 151.234 13.81 152.232 14.15C153.229 14.49 154.022 14.9773 154.612 15.612C155.224 16.2467 155.654 17.0173 155.904 17.924C156.153 18.8307 156.278 19.8393 156.278 20.95V31.49C155.552 31.6487 154.544 31.83 153.252 32.034C151.96 32.2607 150.396 32.374 148.56 32.374C147.404 32.374 146.35 32.272 145.398 32.068C144.468 31.864 143.664 31.5353 142.984 31.082C142.304 30.606 141.782 29.994 141.42 29.246C141.057 28.498 140.876 27.58 140.876 26.492C140.876 25.4493 141.08 24.5653 141.488 23.84C141.918 23.1147 142.485 22.5367 143.188 22.106C143.89 21.6753 144.695 21.3693 145.602 21.188C146.508 20.984 147.449 20.882 148.424 20.882C149.081 20.882 149.659 20.916 150.158 20.984C150.679 21.0293 151.098 21.0973 151.416 21.188V20.712C151.416 19.8507 151.155 19.1593 150.634 18.638C150.112 18.1167 149.206 17.856 147.914 17.856C147.052 17.856 146.202 17.924 145.364 18.06C144.525 18.1733 143.8 18.3433 143.188 18.57L142.542 14.49C142.836 14.3993 143.199 14.3087 143.63 14.218C144.083 14.1047 144.57 14.014 145.092 13.946C145.613 13.8553 146.157 13.7873 146.724 13.742C147.313 13.674 147.902 13.64 148.492 13.64ZM167.999 32.34C166.525 32.3173 165.324 32.1587 164.395 31.864C163.488 31.5693 162.763 31.1613 162.219 30.64C161.697 30.096 161.335 29.45 161.131 28.702C160.949 27.9313 160.859 27.07 160.859 26.118V6.432L165.925 5.616V25.098C165.925 25.5513 165.959 25.9593 166.027 26.322C166.095 26.6847 166.219 26.9907 166.401 27.24C166.605 27.4893 166.888 27.6933 167.251 27.852C167.613 28.0107 168.101 28.1127 168.713 28.158L167.999 32.34ZM171.446 9.662L176.512 8.846V14.116H182.598V18.332H176.512V24.622C176.512 25.6873 176.694 26.5373 177.056 27.172C177.442 27.8067 178.201 28.124 179.334 28.124C179.878 28.124 180.434 28.0787 181 27.988C181.59 27.8747 182.122 27.7273 182.598 27.546L183.312 31.49C182.7 31.7393 182.02 31.9547 181.272 32.136C180.524 32.3173 179.606 32.408 178.518 32.408C177.136 32.408 175.991 32.2267 175.084 31.864C174.178 31.4787 173.452 30.9573 172.908 30.3C172.364 29.62 171.979 28.804 171.752 27.852C171.548 26.9 171.446 25.846 171.446 24.69V9.662ZM186.724 32V6.432L191.79 5.616V14.184C192.13 14.0707 192.56 13.9687 193.082 13.878C193.626 13.7647 194.147 13.708 194.646 13.708C196.096 13.708 197.298 13.912 198.25 14.32C199.224 14.7053 199.995 15.2607 200.562 15.986C201.151 16.7113 201.559 17.5727 201.786 18.57C202.035 19.5673 202.16 20.678 202.16 21.902V32H197.094V22.514C197.094 20.882 196.878 19.726 196.448 19.046C196.04 18.366 195.269 18.026 194.136 18.026C193.682 18.026 193.252 18.0713 192.844 18.162C192.458 18.23 192.107 18.3093 191.79 18.4V32H186.724ZM219.979 32H214.913V14.116H219.979V32ZM220.455 8.948C220.455 9.87733 220.149 10.614 219.537 11.158C218.948 11.6793 218.245 11.94 217.429 11.94C216.613 11.94 215.899 11.6793 215.287 11.158C214.698 10.614 214.403 9.87733 214.403 8.948C214.403 8.01867 214.698 7.29333 215.287 6.772C215.899 6.228 216.613 5.956 217.429 5.956C218.245 5.956 218.948 6.228 219.537 6.772C220.149 7.29333 220.455 8.01867 220.455 8.948ZM224.741 14.728C225.603 14.4787 226.713 14.252 228.073 14.048C229.433 13.8213 230.861 13.708 232.357 13.708C233.876 13.708 235.134 13.912 236.131 14.32C237.151 14.7053 237.956 15.2607 238.545 15.986C239.135 16.7113 239.554 17.5727 239.803 18.57C240.053 19.5673 240.177 20.678 240.177 21.902V32H235.111V22.514C235.111 20.882 234.896 19.726 234.465 19.046C234.035 18.366 233.23 18.026 232.051 18.026C231.689 18.026 231.303 18.0487 230.895 18.094C230.487 18.1167 230.125 18.1507 229.807 18.196V32H224.741V14.728ZM249.897 28.362C250.826 28.362 251.483 28.2713 251.869 28.09C252.254 27.9087 252.447 27.5573 252.447 27.036C252.447 26.628 252.197 26.2767 251.699 25.982C251.2 25.6647 250.441 25.3133 249.421 24.928C248.627 24.6333 247.902 24.3273 247.245 24.01C246.61 23.6927 246.066 23.3187 245.613 22.888C245.159 22.4347 244.808 21.902 244.559 21.29C244.309 20.678 244.185 19.9413 244.185 19.08C244.185 17.4027 244.808 16.0767 246.055 15.102C247.301 14.1273 249.013 13.64 251.189 13.64C252.277 13.64 253.319 13.742 254.317 13.946C255.314 14.1273 256.107 14.3313 256.697 14.558L255.813 18.502C255.223 18.298 254.577 18.1167 253.875 17.958C253.195 17.7993 252.424 17.72 251.563 17.72C249.976 17.72 249.183 18.162 249.183 19.046C249.183 19.25 249.217 19.4313 249.285 19.59C249.353 19.7487 249.489 19.9073 249.693 20.066C249.897 20.202 250.169 20.3607 250.509 20.542C250.871 20.7007 251.325 20.882 251.869 21.086C252.979 21.494 253.897 21.902 254.623 22.31C255.348 22.6953 255.915 23.126 256.323 23.602C256.753 24.0553 257.048 24.5653 257.207 25.132C257.388 25.6987 257.479 26.356 257.479 27.104C257.479 28.872 256.81 30.2093 255.473 31.116C254.158 32.0227 252.288 32.476 249.863 32.476C248.276 32.476 246.95 32.34 245.885 32.068C244.842 31.796 244.117 31.5693 243.709 31.388L244.559 27.274C245.42 27.614 246.304 27.886 247.211 28.09C248.117 28.2713 249.013 28.362 249.897 28.362ZM276.531 31.388C275.669 31.6373 274.559 31.864 273.199 32.068C271.839 32.2947 270.411 32.408 268.915 32.408C267.396 32.408 266.127 32.204 265.107 31.796C264.109 31.388 263.316 30.8213 262.727 30.096C262.137 29.348 261.718 28.464 261.469 27.444C261.219 26.424 261.095 25.302 261.095 24.078V14.116H266.161V23.466C266.161 25.098 266.376 26.2767 266.807 27.002C267.237 27.7273 268.042 28.09 269.221 28.09C269.583 28.09 269.969 28.0787 270.377 28.056C270.785 28.0107 271.147 27.9653 271.465 27.92V14.116H276.531V31.388ZM292.064 18.604C291.611 18.4907 291.078 18.3773 290.466 18.264C289.854 18.128 289.197 18.06 288.494 18.06C288.177 18.06 287.792 18.094 287.338 18.162C286.908 18.2073 286.579 18.264 286.352 18.332V32H281.286V15.068C282.193 14.7507 283.258 14.456 284.482 14.184C285.729 13.8893 287.112 13.742 288.63 13.742C288.902 13.742 289.231 13.7647 289.616 13.81C290.002 13.8327 290.387 13.878 290.772 13.946C291.158 13.9913 291.543 14.0593 291.928 14.15C292.314 14.218 292.642 14.3087 292.914 14.422L292.064 18.604ZM302.132 28.464C302.631 28.464 303.107 28.4527 303.56 28.43C304.013 28.4073 304.376 28.3733 304.648 28.328V24.486C304.444 24.4407 304.138 24.3953 303.73 24.35C303.322 24.3047 302.948 24.282 302.608 24.282C302.132 24.282 301.679 24.316 301.248 24.384C300.84 24.4293 300.477 24.5313 300.16 24.69C299.843 24.8487 299.593 25.064 299.412 25.336C299.231 25.608 299.14 25.948 299.14 26.356C299.14 27.1493 299.401 27.7047 299.922 28.022C300.466 28.3167 301.203 28.464 302.132 28.464ZM301.724 13.64C303.22 13.64 304.467 13.81 305.464 14.15C306.461 14.49 307.255 14.9773 307.844 15.612C308.456 16.2467 308.887 17.0173 309.136 17.924C309.385 18.8307 309.51 19.8393 309.51 20.95V31.49C308.785 31.6487 307.776 31.83 306.484 32.034C305.192 32.2607 303.628 32.374 301.792 32.374C300.636 32.374 299.582 32.272 298.63 32.068C297.701 31.864 296.896 31.5353 296.216 31.082C295.536 30.606 295.015 29.994 294.652 29.246C294.289 28.498 294.108 27.58 294.108 26.492C294.108 25.4493 294.312 24.5653 294.72 23.84C295.151 23.1147 295.717 22.5367 296.42 22.106C297.123 21.6753 297.927 21.3693 298.834 21.188C299.741 20.984 300.681 20.882 301.656 20.882C302.313 20.882 302.891 20.916 303.39 20.984C303.911 21.0293 304.331 21.0973 304.648 21.188V20.712C304.648 19.8507 304.387 19.1593 303.866 18.638C303.345 18.1167 302.438 17.856 301.146 17.856C300.285 17.856 299.435 17.924 298.596 18.06C297.757 18.1733 297.032 18.3433 296.42 18.57L295.774 14.49C296.069 14.3993 296.431 14.3087 296.862 14.218C297.315 14.1047 297.803 14.014 298.324 13.946C298.845 13.8553 299.389 13.7873 299.956 13.742C300.545 13.674 301.135 13.64 301.724 13.64ZM314.091 14.728C314.952 14.4787 316.063 14.252 317.423 14.048C318.783 13.8213 320.211 13.708 321.707 13.708C323.226 13.708 324.484 13.912 325.481 14.32C326.501 14.7053 327.306 15.2607 327.895 15.986C328.484 16.7113 328.904 17.5727 329.153 18.57C329.402 19.5673 329.527 20.678 329.527 21.902V32H324.461V22.514C324.461 20.882 324.246 19.726 323.815 19.046C323.384 18.366 322.58 18.026 321.401 18.026C321.038 18.026 320.653 18.0487 320.245 18.094C319.837 18.1167 319.474 18.1507 319.157 18.196V32H314.091V14.728ZM333.262 23.058C333.262 21.766 333.466 20.5533 333.874 19.42C334.305 18.264 334.917 17.2667 335.71 16.428C336.504 15.5667 337.467 14.8867 338.6 14.388C339.734 13.8893 341.026 13.64 342.476 13.64C343.428 13.64 344.301 13.7307 345.094 13.912C345.888 14.0707 346.658 14.3087 347.406 14.626L346.352 18.672C345.876 18.4907 345.355 18.332 344.788 18.196C344.222 18.06 343.587 17.992 342.884 17.992C341.388 17.992 340.266 18.4567 339.518 19.386C338.793 20.3153 338.43 21.5393 338.43 23.058C338.43 24.6673 338.77 25.914 339.45 26.798C340.153 27.682 341.366 28.124 343.088 28.124C343.7 28.124 344.358 28.0673 345.06 27.954C345.763 27.8407 346.409 27.6593 346.998 27.41L347.712 31.558C347.123 31.8073 346.386 32.0227 345.502 32.204C344.618 32.3853 343.644 32.476 342.578 32.476C340.946 32.476 339.541 32.238 338.362 31.762C337.184 31.2633 336.209 30.5947 335.438 29.756C334.69 28.9173 334.135 27.9313 333.772 26.798C333.432 25.642 333.262 24.3953 333.262 23.058ZM349.399 23.194C349.399 21.6073 349.637 20.2247 350.113 19.046C350.612 17.8447 351.258 16.8473 352.051 16.054C352.844 15.2607 353.751 14.66 354.771 14.252C355.814 13.844 356.879 13.64 357.967 13.64C360.506 13.64 362.512 14.422 363.985 15.986C365.458 17.5273 366.195 19.8053 366.195 22.82C366.195 23.1147 366.184 23.4433 366.161 23.806C366.138 24.146 366.116 24.452 366.093 24.724H354.601C354.714 25.7667 355.202 26.594 356.063 27.206C356.924 27.818 358.08 28.124 359.531 28.124C360.46 28.124 361.367 28.0447 362.251 27.886C363.158 27.7047 363.894 27.4893 364.461 27.24L365.141 31.354C364.869 31.49 364.506 31.626 364.053 31.762C363.6 31.898 363.09 32.0113 362.523 32.102C361.979 32.2153 361.39 32.306 360.755 32.374C360.12 32.442 359.486 32.476 358.851 32.476C357.242 32.476 355.836 32.238 354.635 31.762C353.456 31.286 352.47 30.64 351.677 29.824C350.906 28.9853 350.328 27.9993 349.943 26.866C349.58 25.7327 349.399 24.5087 349.399 23.194ZM361.299 21.256C361.276 20.8253 361.197 20.406 361.061 19.998C360.948 19.59 360.755 19.2273 360.483 18.91C360.234 18.5927 359.905 18.332 359.497 18.128C359.112 17.924 358.624 17.822 358.035 17.822C357.468 17.822 356.981 17.924 356.573 18.128C356.165 18.3093 355.825 18.5587 355.553 18.876C355.281 19.1933 355.066 19.5673 354.907 19.998C354.771 20.406 354.669 20.8253 354.601 21.256H361.299ZM378.273 32V6.432L383.339 5.616V14.184C383.679 14.0707 384.109 13.9687 384.631 13.878C385.175 13.7647 385.696 13.708 386.195 13.708C387.645 13.708 388.847 13.912 389.799 14.32C390.773 14.7053 391.544 15.2607 392.111 15.986C392.7 16.7113 393.108 17.5727 393.335 18.57C393.584 19.5673 393.709 20.678 393.709 21.902V32H388.643V22.514C388.643 20.882 388.427 19.726 387.997 19.046C387.589 18.366 386.818 18.026 385.685 18.026C385.231 18.026 384.801 18.0713 384.393 18.162C384.007 18.23 383.656 18.3093 383.339 18.4V32H378.273ZM405.128 28.464C405.627 28.464 406.103 28.4527 406.556 28.43C407.009 28.4073 407.372 28.3733 407.644 28.328V24.486C407.44 24.4407 407.134 24.3953 406.726 24.35C406.318 24.3047 405.944 24.282 405.604 24.282C405.128 24.282 404.675 24.316 404.244 24.384C403.836 24.4293 403.473 24.5313 403.156 24.69C402.839 24.8487 402.589 25.064 402.408 25.336C402.227 25.608 402.136 25.948 402.136 26.356C402.136 27.1493 402.397 27.7047 402.918 28.022C403.462 28.3167 404.199 28.464 405.128 28.464ZM404.72 13.64C406.216 13.64 407.463 13.81 408.46 14.15C409.457 14.49 410.251 14.9773 410.84 15.612C411.452 16.2467 411.883 17.0173 412.132 17.924C412.381 18.8307 412.506 19.8393 412.506 20.95V31.49C411.781 31.6487 410.772 31.83 409.48 32.034C408.188 32.2607 406.624 32.374 404.788 32.374C403.632 32.374 402.578 32.272 401.626 32.068C400.697 31.864 399.892 31.5353 399.212 31.082C398.532 30.606 398.011 29.994 397.648 29.246C397.285 28.498 397.104 27.58 397.104 26.492C397.104 25.4493 397.308 24.5653 397.716 23.84C398.147 23.1147 398.713 22.5367 399.416 22.106C400.119 21.6753 400.923 21.3693 401.83 21.188C402.737 20.984 403.677 20.882 404.652 20.882C405.309 20.882 405.887 20.916 406.386 20.984C406.907 21.0293 407.327 21.0973 407.644 21.188V20.712C407.644 19.8507 407.383 19.1593 406.862 18.638C406.341 18.1167 405.434 17.856 404.142 17.856C403.281 17.856 402.431 17.924 401.592 18.06C400.753 18.1733 400.028 18.3433 399.416 18.57L398.77 14.49C399.065 14.3993 399.427 14.3087 399.858 14.218C400.311 14.1047 400.799 14.014 401.32 13.946C401.841 13.8553 402.385 13.7873 402.952 13.742C403.541 13.674 404.131 13.64 404.72 13.64ZM422.221 28.362C423.15 28.362 423.808 28.2713 424.193 28.09C424.578 27.9087 424.771 27.5573 424.771 27.036C424.771 26.628 424.522 26.2767 424.023 25.982C423.524 25.6647 422.765 25.3133 421.745 24.928C420.952 24.6333 420.226 24.3273 419.569 24.01C418.934 23.6927 418.39 23.3187 417.937 22.888C417.484 22.4347 417.132 21.902 416.883 21.29C416.634 20.678 416.509 19.9413 416.509 19.08C416.509 17.4027 417.132 16.0767 418.379 15.102C419.626 14.1273 421.337 13.64 423.513 13.64C424.601 13.64 425.644 13.742 426.641 13.946C427.638 14.1273 428.432 14.3313 429.021 14.558L428.137 18.502C427.548 18.298 426.902 18.1167 426.199 17.958C425.519 17.7993 424.748 17.72 423.887 17.72C422.3 17.72 421.507 18.162 421.507 19.046C421.507 19.25 421.541 19.4313 421.609 19.59C421.677 19.7487 421.813 19.9073 422.017 20.066C422.221 20.202 422.493 20.3607 422.833 20.542C423.196 20.7007 423.649 20.882 424.193 21.086C425.304 21.494 426.222 21.902 426.947 22.31C427.672 22.6953 428.239 23.126 428.647 23.602C429.078 24.0553 429.372 24.5653 429.531 25.132C429.712 25.6987 429.803 26.356 429.803 27.104C429.803 28.872 429.134 30.2093 427.797 31.116C426.482 32.0227 424.612 32.476 422.187 32.476C420.6 32.476 419.274 32.34 418.209 32.068C417.166 31.796 416.441 31.5693 416.033 31.388L416.883 27.274C417.744 27.614 418.628 27.886 419.535 28.09C420.442 28.2713 421.337 28.362 422.221 28.362ZM2.38 53.728C3.24133 53.4787 4.352 53.252 5.712 53.048C7.072 52.8213 8.5 52.708 9.996 52.708C11.5147 52.708 12.7727 52.912 13.77 53.32C14.79 53.7053 15.5947 54.2607 16.184 54.986C16.7733 55.7113 17.1927 56.5727 17.442 57.57C17.6913 58.5673 17.816 59.678 17.816 60.902V71H12.75V61.514C12.75 59.882 12.5347 58.726 12.104 58.046C11.6733 57.366 10.8687 57.026 9.69 57.026C9.32733 57.026 8.942 57.0487 8.534 57.094C8.126 57.1167 7.76333 57.1507 7.446 57.196V71H2.38V53.728ZM21.5515 62.194C21.5515 60.6073 21.7895 59.2247 22.2655 58.046C22.7642 56.8447 23.4102 55.8473 24.2035 55.054C24.9968 54.2607 25.9035 53.66 26.9235 53.252C27.9662 52.844 29.0315 52.64 30.1195 52.64C32.6582 52.64 34.6642 53.422 36.1375 54.986C37.6108 56.5273 38.3475 58.8053 38.3475 61.82C38.3475 62.1147 38.3362 62.4433 38.3135 62.806C38.2908 63.146 38.2682 63.452 38.2455 63.724H26.7535C26.8668 64.7667 27.3542 65.594 28.2155 66.206C29.0768 66.818 30.2328 67.124 31.6835 67.124C32.6128 67.124 33.5195 67.0447 34.4035 66.886C35.3102 66.7047 36.0468 66.4893 36.6135 66.24L37.2935 70.354C37.0215 70.49 36.6588 70.626 36.2055 70.762C35.7522 70.898 35.2422 71.0113 34.6755 71.102C34.1315 71.2153 33.5422 71.306 32.9075 71.374C32.2728 71.442 31.6382 71.476 31.0035 71.476C29.3942 71.476 27.9888 71.238 26.7875 70.762C25.6088 70.286 24.6228 69.64 23.8295 68.824C23.0588 67.9853 22.4808 66.9993 22.0955 65.866C21.7328 64.7327 21.5515 63.5087 21.5515 62.194ZM33.4515 60.256C33.4288 59.8253 33.3495 59.406 33.2135 58.998C33.1002 58.59 32.9075 58.2273 32.6355 57.91C32.3862 57.5927 32.0575 57.332 31.6495 57.128C31.2642 56.924 30.7768 56.822 30.1875 56.822C29.6208 56.822 29.1335 56.924 28.7255 57.128C28.3175 57.3093 27.9775 57.5587 27.7055 57.876C27.4335 58.1933 27.2182 58.5673 27.0595 58.998C26.9235 59.406 26.8215 59.8253 26.7535 60.256H33.4515ZM47.119 71C45.963 68.7333 44.7843 66.0813 43.583 63.044C42.4043 60.0067 41.2823 56.6973 40.217 53.116H45.589C45.8156 54 46.0763 54.9633 46.371 56.006C46.6883 57.026 47.0056 58.0687 47.323 59.134C47.663 60.1767 47.9916 61.1967 48.309 62.194C48.649 63.1913 48.9776 64.098 49.295 64.914C49.5896 64.098 49.907 63.1913 50.247 62.194C50.587 61.1967 50.9156 60.1767 51.233 59.134C51.573 58.0687 51.8903 57.026 52.185 56.006C52.5023 54.9633 52.7743 54 53.001 53.116H58.237C57.1716 56.6973 56.0383 60.0067 54.837 63.044C53.6583 66.0813 52.491 68.7333 51.335 71H47.119ZM59.6355 62.194C59.6355 60.6073 59.8735 59.2247 60.3495 58.046C60.8481 56.8447 61.4941 55.8473 62.2875 55.054C63.0808 54.2607 63.9875 53.66 65.0075 53.252C66.0501 52.844 67.1155 52.64 68.2035 52.64C70.7421 52.64 72.7481 53.422 74.2215 54.986C75.6948 56.5273 76.4315 58.8053 76.4315 61.82C76.4315 62.1147 76.4201 62.4433 76.3975 62.806C76.3748 63.146 76.3521 63.452 76.3295 63.724H64.8375C64.9508 64.7667 65.4381 65.594 66.2995 66.206C67.1608 66.818 68.3168 67.124 69.7675 67.124C70.6968 67.124 71.6035 67.0447 72.4875 66.886C73.3941 66.7047 74.1308 66.4893 74.6975 66.24L75.3775 70.354C75.1055 70.49 74.7428 70.626 74.2895 70.762C73.8361 70.898 73.3261 71.0113 72.7595 71.102C72.2155 71.2153 71.6261 71.306 70.9915 71.374C70.3568 71.442 69.7221 71.476 69.0875 71.476C67.4781 71.476 66.0728 71.238 64.8715 70.762C63.6928 70.286 62.7068 69.64 61.9135 68.824C61.1428 67.9853 60.5648 66.9993 60.1795 65.866C59.8168 64.7327 59.6355 63.5087 59.6355 62.194ZM71.5355 60.256C71.5128 59.8253 71.4335 59.406 71.2975 58.998C71.1841 58.59 70.9915 58.2273 70.7195 57.91C70.4701 57.5927 70.1415 57.332 69.7335 57.128C69.3481 56.924 68.8608 56.822 68.2715 56.822C67.7048 56.822 67.2175 56.924 66.8095 57.128C66.4015 57.3093 66.0615 57.5587 65.7895 57.876C65.5175 58.1933 65.3021 58.5673 65.1435 58.998C65.0075 59.406 64.9055 59.8253 64.8375 60.256H71.5355ZM91.1189 57.604C90.6656 57.4907 90.1329 57.3773 89.5209 57.264C88.9089 57.128 88.2516 57.06 87.5489 57.06C87.2316 57.06 86.8463 57.094 86.3929 57.162C85.9623 57.2073 85.6336 57.264 85.4069 57.332V71H80.3409V54.068C81.2476 53.7507 82.3129 53.456 83.5369 53.184C84.7836 52.8893 86.1663 52.742 87.6849 52.742C87.9569 52.742 88.2856 52.7647 88.6709 52.81C89.0563 52.8327 89.4416 52.878 89.8269 52.946C90.2123 52.9913 90.5976 53.0593 90.9829 53.15C91.3683 53.218 91.6969 53.3087 91.9689 53.422L91.1189 57.604ZM114.311 61.922C114.311 58.658 113.109 57.026 110.707 57.026C110.185 57.026 109.664 57.094 109.143 57.23C108.644 57.366 108.236 57.536 107.919 57.74V66.954C108.168 66.9993 108.485 67.0447 108.871 67.09C109.256 67.1127 109.675 67.124 110.129 67.124C111.511 67.124 112.554 66.648 113.257 65.696C113.959 64.744 114.311 63.486 114.311 61.922ZM119.479 62.058C119.479 63.486 119.263 64.778 118.833 65.934C118.425 67.09 117.824 68.076 117.031 68.892C116.237 69.708 115.263 70.3427 114.107 70.796C112.951 71.2267 111.636 71.442 110.163 71.442C109.551 71.442 108.905 71.408 108.225 71.34C107.567 71.2947 106.91 71.2267 106.253 71.136C105.618 71.0453 105.006 70.9433 104.417 70.83C103.827 70.694 103.306 70.558 102.853 70.422V45.432L107.919 44.616V53.524C108.485 53.2747 109.075 53.082 109.687 52.946C110.299 52.81 110.956 52.742 111.659 52.742C112.928 52.742 114.05 52.9687 115.025 53.422C115.999 53.8527 116.815 54.476 117.473 55.292C118.13 56.108 118.629 57.094 118.969 58.25C119.309 59.3833 119.479 60.6527 119.479 62.058ZM122.522 62.194C122.522 60.6073 122.76 59.2247 123.236 58.046C123.735 56.8447 124.381 55.8473 125.174 55.054C125.968 54.2607 126.874 53.66 127.894 53.252C128.937 52.844 130.002 52.64 131.09 52.64C133.629 52.64 135.635 53.422 137.108 54.986C138.582 56.5273 139.318 58.8053 139.318 61.82C139.318 62.1147 139.307 62.4433 139.284 62.806C139.262 63.146 139.239 63.452 139.216 63.724H127.724C127.838 64.7667 128.325 65.594 129.186 66.206C130.048 66.818 131.204 67.124 132.654 67.124C133.584 67.124 134.49 67.0447 135.374 66.886C136.281 66.7047 137.018 66.4893 137.584 66.24L138.264 70.354C137.992 70.49 137.63 70.626 137.176 70.762C136.723 70.898 136.213 71.0113 135.646 71.102C135.102 71.2153 134.513 71.306 133.878 71.374C133.244 71.442 132.609 71.476 131.974 71.476C130.365 71.476 128.96 71.238 127.758 70.762C126.58 70.286 125.594 69.64 124.8 68.824C124.03 67.9853 123.452 66.9993 123.066 65.866C122.704 64.7327 122.522 63.5087 122.522 62.194ZM134.422 60.256C134.4 59.8253 134.32 59.406 134.184 58.998C134.071 58.59 133.878 58.2273 133.606 57.91C133.357 57.5927 133.028 57.332 132.62 57.128C132.235 56.924 131.748 56.822 131.158 56.822C130.592 56.822 130.104 56.924 129.696 57.128C129.288 57.3093 128.948 57.5587 128.676 57.876C128.404 58.1933 128.189 58.5673 128.03 58.998C127.894 59.406 127.792 59.8253 127.724 60.256H134.422ZM142.378 62.194C142.378 60.6073 142.616 59.2247 143.092 58.046C143.59 56.8447 144.236 55.8473 145.03 55.054C145.823 54.2607 146.73 53.66 147.75 53.252C148.792 52.844 149.858 52.64 150.946 52.64C153.484 52.64 155.49 53.422 156.964 54.986C158.437 56.5273 159.174 58.8053 159.174 61.82C159.174 62.1147 159.162 62.4433 159.14 62.806C159.117 63.146 159.094 63.452 159.072 63.724H147.58C147.693 64.7667 148.18 65.594 149.042 66.206C149.903 66.818 151.059 67.124 152.51 67.124C153.439 67.124 154.346 67.0447 155.23 66.886C156.136 66.7047 156.873 66.4893 157.44 66.24L158.12 70.354C157.848 70.49 157.485 70.626 157.032 70.762C156.578 70.898 156.068 71.0113 155.502 71.102C154.958 71.2153 154.368 71.306 153.734 71.374C153.099 71.442 152.464 71.476 151.83 71.476C150.22 71.476 148.815 71.238 147.614 70.762C146.435 70.286 145.449 69.64 144.656 68.824C143.885 67.9853 143.307 66.9993 142.922 65.866C142.559 64.7327 142.378 63.5087 142.378 62.194ZM154.278 60.256C154.255 59.8253 154.176 59.406 154.04 58.998C153.926 58.59 153.734 58.2273 153.462 57.91C153.212 57.5927 152.884 57.332 152.476 57.128C152.09 56.924 151.603 56.822 151.014 56.822C150.447 56.822 149.96 56.924 149.552 57.128C149.144 57.3093 148.804 57.5587 148.532 57.876C148.26 58.1933 148.044 58.5673 147.886 58.998C147.75 59.406 147.648 59.8253 147.58 60.256H154.278ZM163.083 53.728C163.944 53.4787 165.055 53.252 166.415 53.048C167.775 52.8213 169.203 52.708 170.699 52.708C172.218 52.708 173.476 52.912 174.473 53.32C175.493 53.7053 176.298 54.2607 176.887 54.986C177.476 55.7113 177.896 56.5727 178.145 57.57C178.394 58.5673 178.519 59.678 178.519 60.902V71H173.453V61.514C173.453 59.882 173.238 58.726 172.807 58.046C172.376 57.366 171.572 57.026 170.393 57.026C170.03 57.026 169.645 57.0487 169.237 57.094C168.829 57.1167 168.466 57.1507 168.149 57.196V71H163.083V53.728ZM191.103 48.662L196.169 47.846V53.116H202.255V57.332H196.169V63.622C196.169 64.6873 196.35 65.5373 196.713 66.172C197.098 66.8067 197.857 67.124 198.991 67.124C199.535 67.124 200.09 67.0787 200.657 66.988C201.246 66.8747 201.779 66.7273 202.255 66.546L202.969 70.49C202.357 70.7393 201.677 70.9547 200.929 71.136C200.181 71.3173 199.263 71.408 198.175 71.408C196.792 71.408 195.647 71.2267 194.741 70.864C193.834 70.4787 193.109 69.9573 192.565 69.3C192.021 68.62 191.635 67.804 191.409 66.852C191.205 65.9 191.103 64.846 191.103 63.69V48.662ZM206.38 71V45.432L211.446 44.616V53.184C211.786 53.0707 212.217 52.9687 212.738 52.878C213.282 52.7647 213.803 52.708 214.302 52.708C215.753 52.708 216.954 52.912 217.906 53.32C218.881 53.7053 219.651 54.2607 220.218 54.986C220.807 55.7113 221.215 56.5727 221.442 57.57C221.691 58.5673 221.816 59.678 221.816 60.902V71H216.75V61.514C216.75 59.882 216.535 58.726 216.104 58.046C215.696 57.366 214.925 57.026 213.792 57.026C213.339 57.026 212.908 57.0713 212.5 57.162C212.115 57.23 211.763 57.3093 211.446 57.4V71H206.38ZM231.467 71H226.401V53.116H231.467V71ZM231.943 47.948C231.943 48.8773 231.637 49.614 231.025 50.158C230.436 50.6793 229.733 50.94 228.917 50.94C228.101 50.94 227.387 50.6793 226.775 50.158C226.186 49.614 225.891 48.8773 225.891 47.948C225.891 47.0187 226.186 46.2933 226.775 45.772C227.387 45.228 228.101 44.956 228.917 44.956C229.733 44.956 230.436 45.228 231.025 45.772C231.637 46.2933 231.943 47.0187 231.943 47.948ZM241.364 67.362C242.293 67.362 242.95 67.2713 243.336 67.09C243.721 66.9087 243.914 66.5573 243.914 66.036C243.914 65.628 243.664 65.2767 243.166 64.982C242.667 64.6647 241.908 64.3133 240.888 63.928C240.094 63.6333 239.369 63.3273 238.712 63.01C238.077 62.6927 237.533 62.3187 237.08 61.888C236.626 61.4347 236.275 60.902 236.026 60.29C235.776 59.678 235.652 58.9413 235.652 58.08C235.652 56.4027 236.275 55.0767 237.522 54.102C238.768 53.1273 240.48 52.64 242.656 52.64C243.744 52.64 244.786 52.742 245.784 52.946C246.781 53.1273 247.574 53.3313 248.164 53.558L247.28 57.502C246.69 57.298 246.044 57.1167 245.342 56.958C244.662 56.7993 243.891 56.72 243.03 56.72C241.443 56.72 240.65 57.162 240.65 58.046C240.65 58.25 240.684 58.4313 240.752 58.59C240.82 58.7487 240.956 58.9073 241.16 59.066C241.364 59.202 241.636 59.3607 241.976 59.542C242.338 59.7007 242.792 59.882 243.336 60.086C244.446 60.494 245.364 60.902 246.09 61.31C246.815 61.6953 247.382 62.126 247.79 62.602C248.22 63.0553 248.515 63.5653 248.674 64.132C248.855 64.6987 248.946 65.356 248.946 66.104C248.946 67.872 248.277 69.2093 246.94 70.116C245.625 71.0227 243.755 71.476 241.33 71.476C239.743 71.476 238.417 71.34 237.352 71.068C236.309 70.796 235.584 70.5693 235.176 70.388L236.026 66.274C236.887 66.614 237.771 66.886 238.678 67.09C239.584 67.2713 240.48 67.362 241.364 67.362ZM267.734 67.464C268.232 67.464 268.708 67.4527 269.162 67.43C269.615 67.4073 269.978 67.3733 270.25 67.328V63.486C270.046 63.4407 269.74 63.3953 269.332 63.35C268.924 63.3047 268.55 63.282 268.21 63.282C267.734 63.282 267.28 63.316 266.85 63.384C266.442 63.4293 266.079 63.5313 265.762 63.69C265.444 63.8487 265.195 64.064 265.014 64.336C264.832 64.608 264.742 64.948 264.742 65.356C264.742 66.1493 265.002 66.7047 265.524 67.022C266.068 67.3167 266.804 67.464 267.734 67.464ZM267.326 52.64C268.822 52.64 270.068 52.81 271.066 53.15C272.063 53.49 272.856 53.9773 273.446 54.612C274.058 55.2467 274.488 56.0173 274.738 56.924C274.987 57.8307 275.112 58.8393 275.112 59.95V70.49C274.386 70.6487 273.378 70.83 272.086 71.034C270.794 71.2607 269.23 71.374 267.394 71.374C266.238 71.374 265.184 71.272 264.232 71.068C263.302 70.864 262.498 70.5353 261.818 70.082C261.138 69.606 260.616 68.994 260.254 68.246C259.891 67.498 259.71 66.58 259.71 65.492C259.71 64.4493 259.914 63.5653 260.322 62.84C260.752 62.1147 261.319 61.5367 262.022 61.106C262.724 60.6753 263.529 60.3693 264.436 60.188C265.342 59.984 266.283 59.882 267.258 59.882C267.915 59.882 268.493 59.916 268.992 59.984C269.513 60.0293 269.932 60.0973 270.25 60.188V59.712C270.25 58.8507 269.989 58.1593 269.468 57.638C268.946 57.1167 268.04 56.856 266.748 56.856C265.886 56.856 265.036 56.924 264.198 57.06C263.359 57.1733 262.634 57.3433 262.022 57.57L261.376 53.49C261.67 53.3993 262.033 53.3087 262.464 53.218C262.917 53.1047 263.404 53.014 263.926 52.946C264.447 52.8553 264.991 52.7873 265.558 52.742C266.147 52.674 266.736 52.64 267.326 52.64ZM287.445 44.616C288.397 44.616 289.269 44.718 290.063 44.922C290.856 45.1033 291.468 45.2847 291.899 45.466L290.913 49.512C290.459 49.308 289.961 49.1607 289.417 49.07C288.895 48.9567 288.408 48.9 287.955 48.9C287.343 48.9 286.821 48.9907 286.391 49.172C285.983 49.3307 285.654 49.5573 285.405 49.852C285.178 50.1467 285.008 50.498 284.895 50.906C284.804 51.314 284.759 51.756 284.759 52.232V53.116H291.015V57.332H284.759V71H279.693V52.164C279.693 49.852 280.339 48.016 281.631 46.656C282.945 45.296 284.883 44.616 287.445 44.616ZM301.691 44.616C302.643 44.616 303.515 44.718 304.309 44.922C305.102 45.1033 305.714 45.2847 306.145 45.466L305.159 49.512C304.705 49.308 304.207 49.1607 303.663 49.07C303.141 48.9567 302.654 48.9 302.201 48.9C301.589 48.9 301.067 48.9907 300.637 49.172C300.229 49.3307 299.9 49.5573 299.651 49.852C299.424 50.1467 299.254 50.498 299.141 50.906C299.05 51.314 299.005 51.756 299.005 52.232V53.116H305.261V57.332H299.005V71H293.939V52.164C293.939 49.852 294.585 48.016 295.877 46.656C297.191 45.296 299.129 44.616 301.691 44.616ZM324.743 62.024C324.743 63.4293 324.539 64.7213 324.131 65.9C323.723 67.056 323.133 68.0533 322.363 68.892C321.592 69.708 320.663 70.3427 319.575 70.796C318.509 71.2493 317.308 71.476 315.971 71.476C314.656 71.476 313.455 71.2493 312.367 70.796C311.301 70.3427 310.383 69.708 309.613 68.892C308.842 68.0533 308.241 67.056 307.811 65.9C307.38 64.7213 307.165 63.4293 307.165 62.024C307.165 60.6187 307.38 59.338 307.811 58.182C308.264 57.026 308.876 56.04 309.647 55.224C310.44 54.408 311.369 53.7733 312.435 53.32C313.523 52.8667 314.701 52.64 315.971 52.64C317.263 52.64 318.441 52.8667 319.507 53.32C320.595 53.7733 321.524 54.408 322.295 55.224C323.065 56.04 323.666 57.026 324.097 58.182C324.527 59.338 324.743 60.6187 324.743 62.024ZM319.575 62.024C319.575 60.46 319.257 59.236 318.623 58.352C318.011 57.4453 317.127 56.992 315.971 56.992C314.815 56.992 313.919 57.4453 313.285 58.352C312.65 59.236 312.333 60.46 312.333 62.024C312.333 63.588 312.65 64.8347 313.285 65.764C313.919 66.6707 314.815 67.124 315.971 67.124C317.127 67.124 318.011 66.6707 318.623 65.764C319.257 64.8347 319.575 63.588 319.575 62.024ZM339.445 57.604C338.992 57.4907 338.459 57.3773 337.847 57.264C337.235 57.128 336.578 57.06 335.875 57.06C335.558 57.06 335.172 57.094 334.719 57.162C334.288 57.2073 333.96 57.264 333.733 57.332V71H328.667V54.068C329.574 53.7507 330.639 53.456 331.863 53.184C333.11 52.8893 334.492 52.742 336.011 52.742C336.283 52.742 336.612 52.7647 336.997 52.81C337.382 52.8327 337.768 52.878 338.153 52.946C338.538 52.9913 338.924 53.0593 339.309 53.15C339.694 53.218 340.023 53.3087 340.295 53.422L339.445 57.604ZM346.997 61.922C346.997 63.486 347.348 64.744 348.051 65.696C348.753 66.648 349.796 67.124 351.179 67.124C351.632 67.124 352.051 67.1127 352.437 67.09C352.822 67.0447 353.139 66.9993 353.389 66.954V57.74C353.071 57.536 352.652 57.366 352.131 57.23C351.632 57.094 351.122 57.026 350.601 57.026C348.198 57.026 346.997 58.658 346.997 61.922ZM358.455 70.422C358.001 70.558 357.48 70.694 356.891 70.83C356.301 70.9433 355.678 71.0453 355.021 71.136C354.386 71.2267 353.729 71.2947 353.049 71.34C352.391 71.408 351.757 71.442 351.145 71.442C349.671 71.442 348.357 71.2267 347.201 70.796C346.045 70.3653 345.07 69.7533 344.277 68.96C343.483 68.144 342.871 67.1693 342.441 66.036C342.033 64.88 341.829 63.588 341.829 62.16C341.829 60.7093 342.01 59.406 342.373 58.25C342.735 57.0713 343.257 56.074 343.937 55.258C344.617 54.442 345.444 53.8187 346.419 53.388C347.416 52.9573 348.549 52.742 349.819 52.742C350.521 52.742 351.145 52.81 351.689 52.946C352.255 53.082 352.822 53.2747 353.389 53.524V45.432L358.455 44.616V70.422ZM370.032 67.464C370.531 67.464 371.007 67.4527 371.46 67.43C371.914 67.4073 372.276 67.3733 372.548 67.328V63.486C372.344 63.4407 372.038 63.3953 371.63 63.35C371.222 63.3047 370.848 63.282 370.508 63.282C370.032 63.282 369.579 63.316 369.148 63.384C368.74 63.4293 368.378 63.5313 368.06 63.69C367.743 63.8487 367.494 64.064 367.312 64.336C367.131 64.608 367.04 64.948 367.04 65.356C367.04 66.1493 367.301 66.7047 367.822 67.022C368.366 67.3167 369.103 67.464 370.032 67.464ZM369.624 52.64C371.12 52.64 372.367 52.81 373.364 53.15C374.362 53.49 375.155 53.9773 375.744 54.612C376.356 55.2467 376.787 56.0173 377.036 56.924C377.286 57.8307 377.41 58.8393 377.41 59.95V70.49C376.685 70.6487 375.676 70.83 374.384 71.034C373.092 71.2607 371.528 71.374 369.692 71.374C368.536 71.374 367.482 71.272 366.53 71.068C365.601 70.864 364.796 70.5353 364.116 70.082C363.436 69.606 362.915 68.994 362.552 68.246C362.19 67.498 362.008 66.58 362.008 65.492C362.008 64.4493 362.212 63.5653 362.62 62.84C363.051 62.1147 363.618 61.5367 364.32 61.106C365.023 60.6753 365.828 60.3693 366.734 60.188C367.641 59.984 368.582 59.882 369.556 59.882C370.214 59.882 370.792 59.916 371.29 59.984C371.812 60.0293 372.231 60.0973 372.548 60.188V59.712C372.548 58.8507 372.288 58.1593 371.766 57.638C371.245 57.1167 370.338 56.856 369.046 56.856C368.185 56.856 367.335 56.924 366.496 57.06C365.658 57.1733 364.932 57.3433 364.32 57.57L363.674 53.49C363.969 53.3993 364.332 53.3087 364.762 53.218C365.216 53.1047 365.703 53.014 366.224 52.946C366.746 52.8553 367.29 52.7873 367.856 52.742C368.446 52.674 369.035 52.64 369.624 52.64ZM393.449 61.922C393.449 58.658 392.248 57.026 389.845 57.026C389.324 57.026 388.803 57.094 388.281 57.23C387.783 57.366 387.375 57.536 387.057 57.74V66.954C387.307 66.9993 387.624 67.0447 388.009 67.09C388.395 67.1127 388.814 67.124 389.267 67.124C390.65 67.124 391.693 66.648 392.395 65.696C393.098 64.744 393.449 63.486 393.449 61.922ZM398.617 62.058C398.617 63.486 398.402 64.778 397.971 65.934C397.563 67.09 396.963 68.076 396.169 68.892C395.376 69.708 394.401 70.3427 393.245 70.796C392.089 71.2267 390.775 71.442 389.301 71.442C388.689 71.442 388.043 71.408 387.363 71.34C386.706 71.2947 386.049 71.2267 385.391 71.136C384.757 71.0453 384.145 70.9433 383.555 70.83C382.966 70.694 382.445 70.558 381.991 70.422V45.432L387.057 44.616V53.524C387.624 53.2747 388.213 53.082 388.825 52.946C389.437 52.81 390.095 52.742 390.797 52.742C392.067 52.742 393.189 52.9687 394.163 53.422C395.138 53.8527 395.954 54.476 396.611 55.292C397.269 56.108 397.767 57.094 398.107 58.25C398.447 59.3833 398.617 60.6527 398.617 62.058ZM409.651 71.34C408.178 71.3173 406.976 71.1587 406.047 70.864C405.14 70.5693 404.415 70.1613 403.871 69.64C403.35 69.096 402.987 68.45 402.783 67.702C402.602 66.9313 402.511 66.07 402.511 65.118V45.432L407.577 44.616V64.098C407.577 64.5513 407.611 64.9593 407.679 65.322C407.747 65.6847 407.872 65.9907 408.053 66.24C408.257 66.4893 408.54 66.6933 408.903 66.852C409.266 67.0107 409.753 67.1127 410.365 67.158L409.651 71.34ZM412.419 62.194C412.419 60.6073 412.657 59.2247 413.133 58.046C413.631 56.8447 414.277 55.8473 415.071 55.054C415.864 54.2607 416.771 53.66 417.791 53.252C418.833 52.844 419.899 52.64 420.987 52.64C423.525 52.64 425.531 53.422 427.005 54.986C428.478 56.5273 429.215 58.8053 429.215 61.82C429.215 62.1147 429.203 62.4433 429.181 62.806C429.158 63.146 429.135 63.452 429.113 63.724H417.621C417.734 64.7667 418.221 65.594 419.083 66.206C419.944 66.818 421.1 67.124 422.551 67.124C423.48 67.124 424.387 67.0447 425.271 66.886C426.177 66.7047 426.914 66.4893 427.481 66.24L428.161 70.354C427.889 70.49 427.526 70.626 427.073 70.762C426.619 70.898 426.109 71.0113 425.543 71.102C424.999 71.2153 424.409 71.306 423.775 71.374C423.14 71.442 422.505 71.476 421.871 71.476C420.261 71.476 418.856 71.238 417.655 70.762C416.476 70.286 415.49 69.64 414.697 68.824C413.926 67.9853 413.348 66.9993 412.963 65.866C412.6 64.7327 412.419 63.5087 412.419 62.194ZM424.319 60.256C424.296 59.8253 424.217 59.406 424.081 58.998C423.967 58.59 423.775 58.2273 423.503 57.91C423.253 57.5927 422.925 57.332 422.517 57.128C422.131 56.924 421.644 56.822 421.055 56.822C420.488 56.822 420.001 56.924 419.593 57.128C419.185 57.3093 418.845 57.5587 418.573 57.876C418.301 58.1933 418.085 58.5673 417.927 58.998C417.791 59.406 417.689 59.8253 417.621 60.256H424.319Z" fill="#030749"/>
<path fill-rule="evenodd" clip-rule="evenodd" d="M372.057 78.1348C342.247 78.49 312.421 79.8992 282.741 82.418C268.63 83.6158 252.243 83.4661 238.557 87.5497C237.875 87.7552 238.005 88.3717 238.019 88.4333C238.049 88.5596 238.173 88.9793 238.716 88.9999C238.775 89.0028 239.191 88.9441 239.351 88.9236C243.392 88.3951 247.419 87.7787 251.463 87.2796C265.427 85.5505 279.432 84.2441 293.457 83.0991C312.073 81.5784 330.849 80.7682 349.515 80.134C359.732 79.7876 370.194 80.2485 380.444 79.5322C384.208 79.5117 387.972 79.5088 391.736 79.5205C407.471 79.5763 423.188 80.1693 438.896 80.9825C443.947 81.2438 447.799 81.5256 452.744 81.7164C454.622 81.7898 457.6 81.8397 459.673 81.872C459.977 81.8779 460.753 81.8837 461.075 81.8867C461.107 81.8925 461.14 81.8925 461.175 81.8925C461.299 81.8925 461.358 81.8837 461.37 81.8837C462.073 81.781 462.008 81.1204 461.99 81.0206C461.987 81.0001 461.881 80.4423 461.276 80.4217C461.131 80.4159 460.095 80.41 459.696 80.4042C457.636 80.3719 454.669 80.322 452.8 80.2515C447.864 80.0607 444.015 79.7789 438.973 79.5176C423.241 78.7044 407.5 78.1084 391.742 78.0527C389.817 78.0468 387.889 78.0439 385.964 78.0468C385.9 77.8795 385.755 77.6916 385.436 77.6094C385.138 77.533 383.004 77.4655 382.18 77.398C376.084 76.8989 376.264 76.9224 369.557 76.5144C359.398 75.8949 357.852 75.7539 347.286 75.4927C328.094 75.0171 308.894 75.0553 289.699 75.1023C280.223 75.1287 270.076 75.7657 260.455 74.5767C263.626 74.2068 266.808 73.9368 269.985 73.6285C280.831 72.5775 291.686 71.9258 302.576 71.4678C328.699 70.3698 354.864 69.9325 380.978 71.4297C375.42 71.4825 369.864 71.6058 364.305 71.685C341.677 72.0138 318.83 71.7673 296.25 73.4729C295.845 73.5052 295.541 73.8575 295.571 74.2597C295.6 74.6648 295.958 74.9672 296.362 74.9378C318.913 73.2322 341.727 73.4817 364.326 73.1529C372.721 73.0325 381.114 72.8153 389.51 72.8799C392.391 72.9034 395.272 73.0091 398.154 73.0443C398.723 73.0531 400.191 73.1647 400.4 73.1177C400.864 73.015 400.964 72.6744 400.994 72.5071C401.008 72.4072 401.056 71.8318 400.347 71.6263C395.512 70.2231 386.587 70.2877 381.888 70.0117C355.451 68.4558 328.962 68.8902 302.514 69.9999C291.597 70.4608 280.716 71.1156 269.84 72.1695C266.041 72.5364 262.233 72.8535 258.448 73.3408C257.837 73.4201 256.464 73.5346 255.8 73.655C255.522 73.7049 255.322 73.7753 255.233 73.8252C254.888 74.0189 254.826 74.3008 254.826 74.4916C254.823 74.6384 254.885 75.1551 255.608 75.296C266.628 77.442 278.62 76.5995 289.702 76.5701C308.885 76.5231 328.071 76.4849 347.25 76.9605C357.79 77.2218 359.331 77.3598 369.468 77.9793C370.469 78.038 371.316 78.0908 372.057 78.1348Z" fill="#E99557"/>
<path fill-rule="evenodd" clip-rule="evenodd" d="M85.78 39.9362C86.7964 37.2189 87.4378 34.338 88.0387 31.5416C88.1661 30.9391 87.7929 30.3379 87.203 30.2438C86.6164 30.1062 86.0361 30.4952 85.9124 31.0542C85.3323 33.7648 84.7205 36.56 83.7443 39.1493C83.5334 39.7008 83.8165 40.3386 84.3779 40.5616C84.9389 40.7846 85.5687 40.4877 85.78 39.9362Z" fill="#E99557"/>
<path fill-rule="evenodd" clip-rule="evenodd" d="M96.1102 49.3149C101.053 45.2235 105.456 40.5166 110.514 36.5226C110.985 36.1684 111.067 35.4745 110.696 35.0048C110.324 34.535 109.641 34.4331 109.166 34.8308C104.095 38.8237 99.6787 43.5294 94.7227 47.6197C94.2587 48.0183 94.1933 48.7135 94.5763 49.1842C94.9626 49.6114 95.6462 49.7135 96.1102 49.3149Z" fill="#E99557"/>
<path fill-rule="evenodd" clip-rule="evenodd" d="M112.938 59.2042C110.317 59.1123 107.695 59.0202 105.073 58.9283C104.475 58.8773 103.969 59.3602 103.946 59.9716C103.924 60.583 104.396 61.0611 104.994 61.112C107.62 61.2043 110.245 61.2967 112.871 61.3889C113.473 61.3964 113.976 60.9134 113.995 60.3017C114.011 59.7335 113.539 59.2116 112.938 59.2042Z" fill="#E99557"/>
</svg>
