<svg width="597" height="99" viewBox="0 0 597 99" fill="none" xmlns="http://www.w3.org/2000/svg">
<path d="M15.048 23.372C12.432 23.372 10.536 24.104 9.36 25.568C8.208 27.008 7.632 28.988 7.632 31.508C7.632 32.732 7.776 33.848 8.064 34.856C8.352 35.84 8.784 36.692 9.36 37.412C9.936 38.132 10.656 38.696 11.52 39.104C12.384 39.488 13.392 39.68 14.544 39.68C15.168 39.68 15.696 39.668 16.128 39.644C16.584 39.62 16.98 39.572 17.316 39.5V30.824H22.932V43.172C22.26 43.436 21.18 43.712 19.692 44C18.204 44.312 16.368 44.468 14.184 44.468C12.312 44.468 10.608 44.18 9.072 43.604C7.56 43.028 6.264 42.188 5.184 41.084C4.104 39.98 3.264 38.624 2.664 37.016C2.088 35.408 1.8 33.572 1.8 31.508C1.8 29.42 2.124 27.572 2.772 25.964C3.42 24.356 4.308 23 5.436 21.896C6.564 20.768 7.884 19.916 9.396 19.34C10.932 18.764 12.564 18.476 14.292 18.476C15.468 18.476 16.524 18.56 17.46 18.728C18.42 18.872 19.236 19.052 19.908 19.268C20.604 19.46 21.168 19.664 21.6 19.88C22.056 20.096 22.38 20.264 22.572 20.384L20.952 24.884C20.184 24.476 19.296 24.128 18.288 23.84C17.304 23.528 16.224 23.372 15.048 23.372ZM39.2093 29.816C38.7293 29.696 38.1653 29.576 37.5173 29.456C36.8693 29.312 36.1733 29.24 35.4293 29.24C35.0933 29.24 34.6853 29.276 34.2053 29.348C33.7493 29.396 33.4013 29.456 33.1613 29.528V44H27.7973V26.072C28.7573 25.736 29.8853 25.424 31.1813 25.136C32.5013 24.824 33.9653 24.668 35.5733 24.668C35.8613 24.668 36.2093 24.692 36.6173 24.74C37.0253 24.764 37.4333 24.812 37.8413 24.884C38.2493 24.932 38.6573 25.004 39.0653 25.1C39.4733 25.172 39.8213 25.268 40.1093 25.388L39.2093 29.816ZM41.7333 34.676C41.7333 32.996 41.9853 31.532 42.4893 30.284C43.0173 29.012 43.7013 27.956 44.5413 27.116C45.3813 26.276 46.3413 25.64 47.4213 25.208C48.5253 24.776 49.6533 24.56 50.8053 24.56C53.4933 24.56 55.6173 25.388 57.1773 27.044C58.7373 28.676 59.5173 31.088 59.5173 34.28C59.5173 34.592 59.5053 34.94 59.4813 35.324C59.4573 35.684 59.4333 36.008 59.4093 36.296H47.2413C47.3613 37.4 47.8773 38.276 48.7893 38.924C49.7013 39.572 50.9253 39.896 52.4613 39.896C53.4453 39.896 54.4053 39.812 55.3413 39.644C56.3013 39.452 57.0813 39.224 57.6813 38.96L58.4013 43.316C58.1133 43.46 57.7293 43.604 57.2493 43.748C56.7693 43.892 56.2293 44.012 55.6293 44.108C55.0533 44.228 54.4293 44.324 53.7573 44.396C53.0853 44.468 52.4133 44.504 51.7413 44.504C50.0373 44.504 48.5493 44.252 47.2773 43.748C46.0293 43.244 44.9853 42.56 44.1453 41.696C43.3293 40.808 42.7173 39.764 42.3093 38.564C41.9253 37.364 41.7333 36.068 41.7333 34.676ZM54.3333 32.624C54.3093 32.168 54.2253 31.724 54.0813 31.292C53.9613 30.86 53.7573 30.476 53.4693 30.14C53.2053 29.804 52.8573 29.528 52.4253 29.312C52.0173 29.096 51.5013 28.988 50.8773 28.988C50.2773 28.988 49.7613 29.096 49.3293 29.312C48.8973 29.504 48.5373 29.768 48.2493 30.104C47.9613 30.44 47.7333 30.836 47.5653 31.292C47.4213 31.724 47.3133 32.168 47.2413 32.624H54.3333ZM70.8927 40.256C71.4207 40.256 71.9247 40.244 72.4047 40.22C72.8847 40.196 73.2687 40.16 73.5567 40.112V36.044C73.3407 35.996 73.0167 35.948 72.5847 35.9C72.1527 35.852 71.7567 35.828 71.3967 35.828C70.8927 35.828 70.4127 35.864 69.9567 35.936C69.5247 35.984 69.1407 36.092 68.8047 36.26C68.4687 36.428 68.2047 36.656 68.0127 36.944C67.8207 37.232 67.7247 37.592 67.7247 38.024C67.7247 38.864 68.0007 39.452 68.5527 39.788C69.1287 40.1 69.9087 40.256 70.8927 40.256ZM70.4607 24.56C72.0447 24.56 73.3647 24.74 74.4207 25.1C75.4767 25.46 76.3167 25.976 76.9407 26.648C77.5887 27.32 78.0447 28.136 78.3087 29.096C78.5727 30.056 78.7047 31.124 78.7047 32.3V43.46C77.9367 43.628 76.8687 43.82 75.5007 44.036C74.1327 44.276 72.4767 44.396 70.5327 44.396C69.3087 44.396 68.1927 44.288 67.1847 44.072C66.2007 43.856 65.3487 43.508 64.6287 43.028C63.9087 42.524 63.3567 41.876 62.9727 41.084C62.5887 40.292 62.3967 39.32 62.3967 38.168C62.3967 37.064 62.6127 36.128 63.0447 35.36C63.5007 34.592 64.1007 33.98 64.8447 33.524C65.5887 33.068 66.4407 32.744 67.4007 32.552C68.3607 32.336 69.3567 32.228 70.3887 32.228C71.0847 32.228 71.6967 32.264 72.2247 32.336C72.7767 32.384 73.2207 32.456 73.5567 32.552V32.048C73.5567 31.136 73.2807 30.404 72.7287 29.852C72.1767 29.3 71.2167 29.024 69.8487 29.024C68.9367 29.024 68.0367 29.096 67.1487 29.24C66.2607 29.36 65.4927 29.54 64.8447 29.78L64.1607 25.46C64.4727 25.364 64.8567 25.268 65.3127 25.172C65.7927 25.052 66.3087 24.956 66.8607 24.884C67.4127 24.788 67.9887 24.716 68.5887 24.668C69.2127 24.596 69.8367 24.56 70.4607 24.56ZM83.3752 20.348L88.7392 19.484V25.064H95.1832V29.528H88.7392V36.188C88.7392 37.316 88.9312 38.216 89.3152 38.888C89.7232 39.56 90.5272 39.896 91.7272 39.896C92.3032 39.896 92.8912 39.848 93.4912 39.752C94.1152 39.632 94.6792 39.476 95.1832 39.284L95.9392 43.46C95.2912 43.724 94.5712 43.952 93.7792 44.144C92.9872 44.336 92.0152 44.432 90.8632 44.432C89.3992 44.432 88.1872 44.24 87.2272 43.856C86.2672 43.448 85.4992 42.896 84.9232 42.2C84.3472 41.48 83.9392 40.616 83.6992 39.608C83.4832 38.6 83.3752 37.484 83.3752 36.26V20.348ZM108.2 44V16.928L113.564 16.064V25.136C113.924 25.016 114.38 24.908 114.932 24.812C115.508 24.692 116.06 24.632 116.588 24.632C118.124 24.632 119.396 24.848 120.404 25.28C121.436 25.688 122.252 26.276 122.852 27.044C123.476 27.812 123.908 28.724 124.148 29.78C124.412 30.836 124.544 32.012 124.544 33.308V44H119.18V33.956C119.18 32.228 118.952 31.004 118.496 30.284C118.064 29.564 117.248 29.204 116.048 29.204C115.568 29.204 115.112 29.252 114.68 29.348C114.272 29.42 113.9 29.504 113.564 29.6V44H108.2ZM128.499 34.676C128.499 32.996 128.751 31.532 129.255 30.284C129.783 29.012 130.467 27.956 131.307 27.116C132.147 26.276 133.107 25.64 134.187 25.208C135.291 24.776 136.419 24.56 137.571 24.56C140.259 24.56 142.383 25.388 143.943 27.044C145.503 28.676 146.283 31.088 146.283 34.28C146.283 34.592 146.271 34.94 146.247 35.324C146.223 35.684 146.199 36.008 146.175 36.296H134.007C134.127 37.4 134.643 38.276 135.555 38.924C136.467 39.572 137.691 39.896 139.227 39.896C140.211 39.896 141.171 39.812 142.107 39.644C143.067 39.452 143.847 39.224 144.447 38.96L145.167 43.316C144.879 43.46 144.495 43.604 144.015 43.748C143.535 43.892 142.995 44.012 142.395 44.108C141.819 44.228 141.195 44.324 140.523 44.396C139.851 44.468 139.179 44.504 138.507 44.504C136.803 44.504 135.315 44.252 134.043 43.748C132.795 43.244 131.751 42.56 130.911 41.696C130.095 40.808 129.483 39.764 129.075 38.564C128.691 37.364 128.499 36.068 128.499 34.676ZM141.099 32.624C141.075 32.168 140.991 31.724 140.847 31.292C140.727 30.86 140.523 30.476 140.235 30.14C139.971 29.804 139.623 29.528 139.191 29.312C138.783 29.096 138.267 28.988 137.643 28.988C137.043 28.988 136.527 29.096 136.095 29.312C135.663 29.504 135.303 29.768 135.015 30.104C134.727 30.44 134.499 30.836 134.331 31.292C134.187 31.724 134.079 32.168 134.007 32.624H141.099ZM157.658 40.256C158.186 40.256 158.69 40.244 159.17 40.22C159.65 40.196 160.034 40.16 160.322 40.112V36.044C160.106 35.996 159.782 35.948 159.35 35.9C158.918 35.852 158.522 35.828 158.162 35.828C157.658 35.828 157.178 35.864 156.722 35.936C156.29 35.984 155.906 36.092 155.57 36.26C155.234 36.428 154.97 36.656 154.778 36.944C154.586 37.232 154.49 37.592 154.49 38.024C154.49 38.864 154.766 39.452 155.318 39.788C155.894 40.1 156.674 40.256 157.658 40.256ZM157.226 24.56C158.81 24.56 160.13 24.74 161.186 25.1C162.242 25.46 163.082 25.976 163.706 26.648C164.354 27.32 164.81 28.136 165.074 29.096C165.338 30.056 165.47 31.124 165.47 32.3V43.46C164.702 43.628 163.634 43.82 162.266 44.036C160.898 44.276 159.242 44.396 157.298 44.396C156.074 44.396 154.958 44.288 153.95 44.072C152.966 43.856 152.114 43.508 151.394 43.028C150.674 42.524 150.122 41.876 149.738 41.084C149.354 40.292 149.162 39.32 149.162 38.168C149.162 37.064 149.378 36.128 149.81 35.36C150.266 34.592 150.866 33.98 151.61 33.524C152.354 33.068 153.206 32.744 154.166 32.552C155.126 32.336 156.122 32.228 157.154 32.228C157.85 32.228 158.462 32.264 158.99 32.336C159.542 32.384 159.986 32.456 160.322 32.552V32.048C160.322 31.136 160.046 30.404 159.494 29.852C158.942 29.3 157.982 29.024 156.614 29.024C155.702 29.024 154.802 29.096 153.914 29.24C153.026 29.36 152.258 29.54 151.61 29.78L150.926 25.46C151.238 25.364 151.622 25.268 152.078 25.172C152.558 25.052 153.074 24.956 153.626 24.884C154.178 24.788 154.754 24.716 155.354 24.668C155.978 24.596 156.602 24.56 157.226 24.56ZM177.881 44.36C176.321 44.336 175.049 44.168 174.065 43.856C173.105 43.544 172.337 43.112 171.761 42.56C171.209 41.984 170.825 41.3 170.609 40.508C170.417 39.692 170.321 38.78 170.321 37.772V16.928L175.685 16.064V36.692C175.685 37.172 175.721 37.604 175.793 37.988C175.865 38.372 175.997 38.696 176.189 38.96C176.405 39.224 176.705 39.44 177.089 39.608C177.473 39.776 177.989 39.884 178.637 39.932L177.881 44.36ZM181.531 20.348L186.895 19.484V25.064H193.339V29.528H186.895V36.188C186.895 37.316 187.087 38.216 187.471 38.888C187.879 39.56 188.683 39.896 189.883 39.896C190.459 39.896 191.047 39.848 191.647 39.752C192.271 39.632 192.835 39.476 193.339 39.284L194.095 43.46C193.447 43.724 192.727 43.952 191.935 44.144C191.143 44.336 190.171 44.432 189.019 44.432C187.555 44.432 186.343 44.24 185.383 43.856C184.423 43.448 183.655 42.896 183.079 42.2C182.503 41.48 182.095 40.616 181.855 39.608C181.639 38.6 181.531 37.484 181.531 36.26V20.348ZM197.708 44V16.928L203.072 16.064V25.136C203.432 25.016 203.888 24.908 204.439 24.812C205.016 24.692 205.568 24.632 206.096 24.632C207.632 24.632 208.904 24.848 209.912 25.28C210.944 25.688 211.76 26.276 212.36 27.044C212.984 27.812 213.416 28.724 213.656 29.78C213.92 30.836 214.052 32.012 214.052 33.308V44H208.688V33.956C208.688 32.228 208.46 31.004 208.004 30.284C207.572 29.564 206.756 29.204 205.556 29.204C205.076 29.204 204.62 29.252 204.188 29.348C203.78 29.42 203.408 29.504 203.072 29.6V44H197.708ZM232.919 44H227.555V25.064H232.919V44ZM233.423 19.592C233.423 20.576 233.099 21.356 232.451 21.932C231.827 22.484 231.083 22.76 230.219 22.76C229.355 22.76 228.599 22.484 227.951 21.932C227.327 21.356 227.015 20.576 227.015 19.592C227.015 18.608 227.327 17.84 227.951 17.288C228.599 16.712 229.355 16.424 230.219 16.424C231.083 16.424 231.827 16.712 232.451 17.288C233.099 17.84 233.423 18.608 233.423 19.592ZM237.961 25.712C238.873 25.448 240.049 25.208 241.489 24.992C242.929 24.752 244.441 24.632 246.025 24.632C247.633 24.632 248.965 24.848 250.021 25.28C251.101 25.688 251.953 26.276 252.577 27.044C253.201 27.812 253.645 28.724 253.909 29.78C254.173 30.836 254.305 32.012 254.305 33.308V44H248.941V33.956C248.941 32.228 248.713 31.004 248.257 30.284C247.801 29.564 246.949 29.204 245.701 29.204C245.317 29.204 244.909 29.228 244.477 29.276C244.045 29.3 243.661 29.336 243.325 29.384V44H237.961V25.712ZM264.597 40.148C265.581 40.148 266.277 40.052 266.685 39.86C267.093 39.668 267.297 39.296 267.297 38.744C267.297 38.312 267.033 37.94 266.505 37.628C265.977 37.292 265.173 36.92 264.093 36.512C263.253 36.2 262.485 35.876 261.789 35.54C261.117 35.204 260.541 34.808 260.061 34.352C259.581 33.872 259.209 33.308 258.945 32.66C258.681 32.012 258.549 31.232 258.549 30.32C258.549 28.544 259.209 27.14 260.529 26.108C261.849 25.076 263.661 24.56 265.965 24.56C267.117 24.56 268.221 24.668 269.277 24.884C270.333 25.076 271.173 25.292 271.797 25.532L270.861 29.708C270.237 29.492 269.553 29.3 268.809 29.132C268.089 28.964 267.273 28.88 266.361 28.88C264.681 28.88 263.841 29.348 263.841 30.284C263.841 30.5 263.877 30.692 263.949 30.86C264.021 31.028 264.165 31.196 264.381 31.364C264.597 31.508 264.885 31.676 265.245 31.868C265.629 32.036 266.109 32.228 266.685 32.444C267.861 32.876 268.833 33.308 269.601 33.74C270.369 34.148 270.969 34.604 271.401 35.108C271.857 35.588 272.169 36.128 272.337 36.728C272.529 37.328 272.625 38.024 272.625 38.816C272.625 40.688 271.917 42.104 270.501 43.064C269.109 44.024 267.129 44.504 264.561 44.504C262.881 44.504 261.477 44.36 260.349 44.072C259.245 43.784 258.477 43.544 258.045 43.352L258.945 38.996C259.857 39.356 260.793 39.644 261.753 39.86C262.713 40.052 263.661 40.148 264.597 40.148ZM292.797 43.352C291.885 43.616 290.709 43.856 289.269 44.072C287.829 44.312 286.317 44.432 284.733 44.432C283.125 44.432 281.781 44.216 280.701 43.784C279.645 43.352 278.805 42.752 278.181 41.984C277.557 41.192 277.113 40.256 276.849 39.176C276.585 38.096 276.453 36.908 276.453 35.612V25.064H281.817V34.964C281.817 36.692 282.045 37.94 282.501 38.708C282.957 39.476 283.809 39.86 285.057 39.86C285.441 39.86 285.849 39.848 286.281 39.824C286.713 39.776 287.097 39.728 287.433 39.68V25.064H292.797V43.352ZM309.245 29.816C308.765 29.696 308.201 29.576 307.553 29.456C306.905 29.312 306.209 29.24 305.465 29.24C305.129 29.24 304.721 29.276 304.241 29.348C303.785 29.396 303.437 29.456 303.197 29.528V44H297.833V26.072C298.793 25.736 299.921 25.424 301.217 25.136C302.537 24.824 304.001 24.668 305.609 24.668C305.897 24.668 306.245 24.692 306.653 24.74C307.061 24.764 307.469 24.812 307.877 24.884C308.285 24.932 308.693 25.004 309.101 25.1C309.509 25.172 309.857 25.268 310.145 25.388L309.245 29.816ZM319.904 40.256C320.432 40.256 320.936 40.244 321.416 40.22C321.896 40.196 322.28 40.16 322.568 40.112V36.044C322.352 35.996 322.028 35.948 321.596 35.9C321.164 35.852 320.768 35.828 320.408 35.828C319.904 35.828 319.424 35.864 318.968 35.936C318.536 35.984 318.152 36.092 317.816 36.26C317.48 36.428 317.216 36.656 317.024 36.944C316.832 37.232 316.736 37.592 316.736 38.024C316.736 38.864 317.012 39.452 317.564 39.788C318.14 40.1 318.92 40.256 319.904 40.256ZM319.472 24.56C321.056 24.56 322.376 24.74 323.432 25.1C324.488 25.46 325.328 25.976 325.952 26.648C326.6 27.32 327.056 28.136 327.32 29.096C327.584 30.056 327.716 31.124 327.716 32.3V43.46C326.948 43.628 325.88 43.82 324.512 44.036C323.144 44.276 321.488 44.396 319.544 44.396C318.32 44.396 317.204 44.288 316.196 44.072C315.212 43.856 314.36 43.508 313.64 43.028C312.92 42.524 312.368 41.876 311.984 41.084C311.6 40.292 311.408 39.32 311.408 38.168C311.408 37.064 311.624 36.128 312.056 35.36C312.512 34.592 313.112 33.98 313.856 33.524C314.6 33.068 315.452 32.744 316.412 32.552C317.372 32.336 318.368 32.228 319.4 32.228C320.096 32.228 320.708 32.264 321.236 32.336C321.788 32.384 322.232 32.456 322.568 32.552V32.048C322.568 31.136 322.292 30.404 321.74 29.852C321.188 29.3 320.228 29.024 318.86 29.024C317.948 29.024 317.048 29.096 316.16 29.24C315.272 29.36 314.504 29.54 313.856 29.78L313.172 25.46C313.484 25.364 313.868 25.268 314.324 25.172C314.804 25.052 315.32 24.956 315.872 24.884C316.424 24.788 317 24.716 317.6 24.668C318.224 24.596 318.848 24.56 319.472 24.56ZM332.567 25.712C333.479 25.448 334.655 25.208 336.095 24.992C337.535 24.752 339.047 24.632 340.631 24.632C342.239 24.632 343.571 24.848 344.627 25.28C345.707 25.688 346.559 26.276 347.183 27.044C347.807 27.812 348.251 28.724 348.515 29.78C348.779 30.836 348.911 32.012 348.911 33.308V44H343.547V33.956C343.547 32.228 343.319 31.004 342.863 30.284C342.407 29.564 341.555 29.204 340.307 29.204C339.923 29.204 339.515 29.228 339.083 29.276C338.651 29.3 338.267 29.336 337.931 29.384V44H332.567V25.712ZM352.866 34.532C352.866 33.164 353.082 31.88 353.514 30.68C353.97 29.456 354.618 28.4 355.458 27.512C356.298 26.6 357.318 25.88 358.518 25.352C359.718 24.824 361.086 24.56 362.622 24.56C363.63 24.56 364.554 24.656 365.394 24.848C366.234 25.016 367.05 25.268 367.842 25.604L366.726 29.888C366.222 29.696 365.67 29.528 365.07 29.384C364.47 29.24 363.798 29.168 363.054 29.168C361.47 29.168 360.282 29.66 359.49 30.644C358.722 31.628 358.338 32.924 358.338 34.532C358.338 36.236 358.698 37.556 359.418 38.492C360.162 39.428 361.446 39.896 363.27 39.896C363.918 39.896 364.614 39.836 365.358 39.716C366.102 39.596 366.786 39.404 367.41 39.14L368.166 43.532C367.542 43.796 366.762 44.024 365.826 44.216C364.89 44.408 363.858 44.504 362.73 44.504C361.002 44.504 359.514 44.252 358.266 43.748C357.018 43.22 355.986 42.512 355.17 41.624C354.378 40.736 353.79 39.692 353.406 38.492C353.046 37.268 352.866 35.948 352.866 34.532ZM369.952 34.676C369.952 32.996 370.204 31.532 370.708 30.284C371.236 29.012 371.92 27.956 372.76 27.116C373.6 26.276 374.56 25.64 375.64 25.208C376.744 24.776 377.872 24.56 379.024 24.56C381.712 24.56 383.836 25.388 385.396 27.044C386.956 28.676 387.736 31.088 387.736 34.28C387.736 34.592 387.724 34.94 387.7 35.324C387.676 35.684 387.652 36.008 387.628 36.296H375.46C375.58 37.4 376.096 38.276 377.008 38.924C377.92 39.572 379.144 39.896 380.68 39.896C381.664 39.896 382.624 39.812 383.56 39.644C384.52 39.452 385.3 39.224 385.9 38.96L386.62 43.316C386.332 43.46 385.948 43.604 385.468 43.748C384.988 43.892 384.448 44.012 383.848 44.108C383.272 44.228 382.648 44.324 381.976 44.396C381.304 44.468 380.632 44.504 379.96 44.504C378.256 44.504 376.768 44.252 375.496 43.748C374.248 43.244 373.204 42.56 372.364 41.696C371.548 40.808 370.936 39.764 370.528 38.564C370.144 37.364 369.952 36.068 369.952 34.676ZM382.552 32.624C382.528 32.168 382.444 31.724 382.3 31.292C382.18 30.86 381.976 30.476 381.688 30.14C381.424 29.804 381.076 29.528 380.644 29.312C380.236 29.096 379.72 28.988 379.096 28.988C378.496 28.988 377.98 29.096 377.548 29.312C377.116 29.504 376.756 29.768 376.468 30.104C376.18 30.44 375.952 30.836 375.784 31.292C375.64 31.724 375.532 32.168 375.46 32.624H382.552ZM400.524 44V16.928L405.888 16.064V25.136C406.248 25.016 406.704 24.908 407.256 24.812C407.832 24.692 408.384 24.632 408.912 24.632C410.448 24.632 411.72 24.848 412.728 25.28C413.76 25.688 414.576 26.276 415.176 27.044C415.8 27.812 416.232 28.724 416.472 29.78C416.736 30.836 416.868 32.012 416.868 33.308V44H411.504V33.956C411.504 32.228 411.276 31.004 410.82 30.284C410.388 29.564 409.572 29.204 408.372 29.204C407.892 29.204 407.436 29.252 407.004 29.348C406.596 29.42 406.224 29.504 405.888 29.6V44H400.524ZM428.959 40.256C429.487 40.256 429.991 40.244 430.471 40.22C430.951 40.196 431.335 40.16 431.623 40.112V36.044C431.407 35.996 431.083 35.948 430.651 35.9C430.219 35.852 429.823 35.828 429.463 35.828C428.959 35.828 428.479 35.864 428.023 35.936C427.591 35.984 427.207 36.092 426.871 36.26C426.535 36.428 426.271 36.656 426.079 36.944C425.887 37.232 425.791 37.592 425.791 38.024C425.791 38.864 426.067 39.452 426.619 39.788C427.195 40.1 427.975 40.256 428.959 40.256ZM428.527 24.56C430.111 24.56 431.431 24.74 432.487 25.1C433.543 25.46 434.383 25.976 435.007 26.648C435.655 27.32 436.111 28.136 436.375 29.096C436.639 30.056 436.771 31.124 436.771 32.3V43.46C436.003 43.628 434.935 43.82 433.567 44.036C432.199 44.276 430.543 44.396 428.599 44.396C427.375 44.396 426.259 44.288 425.251 44.072C424.267 43.856 423.415 43.508 422.695 43.028C421.975 42.524 421.423 41.876 421.039 41.084C420.655 40.292 420.463 39.32 420.463 38.168C420.463 37.064 420.679 36.128 421.111 35.36C421.567 34.592 422.167 33.98 422.911 33.524C423.655 33.068 424.507 32.744 425.467 32.552C426.427 32.336 427.423 32.228 428.455 32.228C429.151 32.228 429.763 32.264 430.291 32.336C430.843 32.384 431.287 32.456 431.623 32.552V32.048C431.623 31.136 431.347 30.404 430.795 29.852C430.243 29.3 429.283 29.024 427.915 29.024C427.003 29.024 426.103 29.096 425.215 29.24C424.327 29.36 423.559 29.54 422.911 29.78L422.227 25.46C422.539 25.364 422.923 25.268 423.379 25.172C423.859 25.052 424.375 24.956 424.927 24.884C425.479 24.788 426.055 24.716 426.655 24.668C427.279 24.596 427.903 24.56 428.527 24.56ZM447.058 40.148C448.042 40.148 448.738 40.052 449.146 39.86C449.554 39.668 449.758 39.296 449.758 38.744C449.758 38.312 449.494 37.94 448.966 37.628C448.438 37.292 447.634 36.92 446.554 36.512C445.714 36.2 444.946 35.876 444.25 35.54C443.578 35.204 443.002 34.808 442.522 34.352C442.042 33.872 441.67 33.308 441.406 32.66C441.142 32.012 441.01 31.232 441.01 30.32C441.01 28.544 441.67 27.14 442.99 26.108C444.31 25.076 446.122 24.56 448.426 24.56C449.578 24.56 450.682 24.668 451.738 24.884C452.794 25.076 453.634 25.292 454.258 25.532L453.322 29.708C452.698 29.492 452.014 29.3 451.27 29.132C450.55 28.964 449.734 28.88 448.822 28.88C447.142 28.88 446.302 29.348 446.302 30.284C446.302 30.5 446.338 30.692 446.41 30.86C446.482 31.028 446.626 31.196 446.842 31.364C447.058 31.508 447.346 31.676 447.706 31.868C448.09 32.036 448.57 32.228 449.146 32.444C450.322 32.876 451.294 33.308 452.062 33.74C452.83 34.148 453.43 34.604 453.862 35.108C454.318 35.588 454.63 36.128 454.798 36.728C454.99 37.328 455.086 38.024 455.086 38.816C455.086 40.688 454.378 42.104 452.962 43.064C451.57 44.024 449.59 44.504 447.022 44.504C445.342 44.504 443.938 44.36 442.81 44.072C441.706 43.784 440.938 43.544 440.506 43.352L441.406 38.996C442.318 39.356 443.254 39.644 444.214 39.86C445.174 40.052 446.122 40.148 447.058 40.148ZM467.743 25.712C468.655 25.448 469.831 25.208 471.271 24.992C472.711 24.752 474.223 24.632 475.807 24.632C477.415 24.632 478.747 24.848 479.803 25.28C480.883 25.688 481.735 26.276 482.359 27.044C482.983 27.812 483.427 28.724 483.691 29.78C483.955 30.836 484.087 32.012 484.087 33.308V44H478.723V33.956C478.723 32.228 478.495 31.004 478.039 30.284C477.583 29.564 476.731 29.204 475.483 29.204C475.099 29.204 474.691 29.228 474.259 29.276C473.827 29.3 473.443 29.336 473.107 29.384V44H467.743V25.712ZM488.042 34.676C488.042 32.996 488.294 31.532 488.798 30.284C489.326 29.012 490.01 27.956 490.85 27.116C491.69 26.276 492.65 25.64 493.73 25.208C494.834 24.776 495.962 24.56 497.114 24.56C499.802 24.56 501.926 25.388 503.486 27.044C505.046 28.676 505.826 31.088 505.826 34.28C505.826 34.592 505.814 34.94 505.79 35.324C505.766 35.684 505.742 36.008 505.718 36.296H493.55C493.67 37.4 494.186 38.276 495.098 38.924C496.01 39.572 497.234 39.896 498.77 39.896C499.754 39.896 500.714 39.812 501.65 39.644C502.61 39.452 503.39 39.224 503.99 38.96L504.71 43.316C504.422 43.46 504.038 43.604 503.558 43.748C503.078 43.892 502.538 44.012 501.938 44.108C501.362 44.228 500.738 44.324 500.066 44.396C499.394 44.468 498.722 44.504 498.05 44.504C496.346 44.504 494.858 44.252 493.586 43.748C492.338 43.244 491.294 42.56 490.454 41.696C489.638 40.808 489.026 39.764 488.618 38.564C488.234 37.364 488.042 36.068 488.042 34.676ZM500.642 32.624C500.618 32.168 500.534 31.724 500.39 31.292C500.27 30.86 500.066 30.476 499.778 30.14C499.514 29.804 499.166 29.528 498.734 29.312C498.326 29.096 497.81 28.988 497.186 28.988C496.586 28.988 496.07 29.096 495.638 29.312C495.206 29.504 494.846 29.768 494.558 30.104C494.27 30.44 494.042 30.836 493.874 31.292C493.73 31.724 493.622 32.168 493.55 32.624H500.642ZM515.113 44C513.889 41.6 512.641 38.792 511.369 35.576C510.121 32.36 508.933 28.856 507.805 25.064H513.493C513.733 26 514.009 27.02 514.321 28.124C514.657 29.204 514.993 30.308 515.329 31.436C515.689 32.54 516.037 33.62 516.373 34.676C516.733 35.732 517.081 36.692 517.417 37.556C517.729 36.692 518.065 35.732 518.425 34.676C518.785 33.62 519.133 32.54 519.469 31.436C519.829 30.308 520.165 29.204 520.477 28.124C520.813 27.02 521.101 26 521.341 25.064H526.885C525.757 28.856 524.557 32.36 523.285 35.576C522.037 38.792 520.801 41.6 519.577 44H515.113ZM528.366 34.676C528.366 32.996 528.618 31.532 529.122 30.284C529.65 29.012 530.334 27.956 531.174 27.116C532.014 26.276 532.974 25.64 534.054 25.208C535.158 24.776 536.286 24.56 537.438 24.56C540.126 24.56 542.25 25.388 543.81 27.044C545.37 28.676 546.15 31.088 546.15 34.28C546.15 34.592 546.138 34.94 546.114 35.324C546.09 35.684 546.066 36.008 546.042 36.296H533.874C533.994 37.4 534.51 38.276 535.422 38.924C536.334 39.572 537.558 39.896 539.094 39.896C540.078 39.896 541.038 39.812 541.974 39.644C542.934 39.452 543.714 39.224 544.314 38.96L545.034 43.316C544.746 43.46 544.362 43.604 543.882 43.748C543.402 43.892 542.862 44.012 542.262 44.108C541.686 44.228 541.062 44.324 540.39 44.396C539.718 44.468 539.046 44.504 538.374 44.504C536.67 44.504 535.182 44.252 533.91 43.748C532.662 43.244 531.618 42.56 530.778 41.696C529.962 40.808 529.35 39.764 528.942 38.564C528.558 37.364 528.366 36.068 528.366 34.676ZM540.966 32.624C540.942 32.168 540.858 31.724 540.714 31.292C540.594 30.86 540.39 30.476 540.102 30.14C539.838 29.804 539.49 29.528 539.058 29.312C538.65 29.096 538.134 28.988 537.51 28.988C536.91 28.988 536.394 29.096 535.962 29.312C535.53 29.504 535.17 29.768 534.882 30.104C534.594 30.44 534.366 30.836 534.198 31.292C534.054 31.724 533.946 32.168 533.874 32.624H540.966ZM561.702 29.816C561.222 29.696 560.658 29.576 560.01 29.456C559.362 29.312 558.666 29.24 557.922 29.24C557.586 29.24 557.178 29.276 556.698 29.348C556.242 29.396 555.894 29.456 555.654 29.528V44H550.29V26.072C551.25 25.736 552.378 25.424 553.674 25.136C554.994 24.824 556.458 24.668 558.066 24.668C558.354 24.668 558.702 24.692 559.11 24.74C559.518 24.764 559.926 24.812 560.334 24.884C560.742 24.932 561.15 25.004 561.558 25.1C561.966 25.172 562.314 25.268 562.602 25.388L561.702 29.816ZM14.652 75.388C14.652 71.932 13.38 70.204 10.836 70.204C10.284 70.204 9.732 70.276 9.18 70.42C8.652 70.564 8.22 70.744 7.884 70.96V80.716C8.148 80.764 8.484 80.812 8.892 80.86C9.3 80.884 9.744 80.896 10.224 80.896C11.688 80.896 12.792 80.392 13.536 79.384C14.28 78.376 14.652 77.044 14.652 75.388ZM20.124 75.532C20.124 77.044 19.896 78.412 19.44 79.636C19.008 80.86 18.372 81.904 17.532 82.768C16.692 83.632 15.66 84.304 14.436 84.784C13.212 85.24 11.82 85.468 10.26 85.468C9.612 85.468 8.928 85.432 8.208 85.36C7.512 85.312 6.816 85.24 6.12 85.144C5.448 85.048 4.8 84.94 4.176 84.82C3.552 84.676 3 84.532 2.52 84.388V57.928L7.884 57.064V66.496C8.484 66.232 9.108 66.028 9.756 65.884C10.404 65.74 11.1 65.668 11.844 65.668C13.188 65.668 14.376 65.908 15.408 66.388C16.44 66.844 17.304 67.504 18 68.368C18.696 69.232 19.224 70.276 19.584 71.5C19.944 72.7 20.124 74.044 20.124 75.532ZM23.3466 75.676C23.3466 73.996 23.5986 72.532 24.1026 71.284C24.6306 70.012 25.3146 68.956 26.1546 68.116C26.9946 67.276 27.9546 66.64 29.0346 66.208C30.1386 65.776 31.2666 65.56 32.4186 65.56C35.1066 65.56 37.2306 66.388 38.7906 68.044C40.3506 69.676 41.1306 72.088 41.1306 75.28C41.1306 75.592 41.1186 75.94 41.0946 76.324C41.0706 76.684 41.0466 77.008 41.0226 77.296H28.8546C28.9746 78.4 29.4906 79.276 30.4026 79.924C31.3146 80.572 32.5386 80.896 34.0746 80.896C35.0586 80.896 36.0186 80.812 36.9546 80.644C37.9146 80.452 38.6946 80.224 39.2946 79.96L40.0146 84.316C39.7266 84.46 39.3426 84.604 38.8626 84.748C38.3826 84.892 37.8426 85.012 37.2426 85.108C36.6666 85.228 36.0426 85.324 35.3706 85.396C34.6986 85.468 34.0266 85.504 33.3546 85.504C31.6506 85.504 30.1626 85.252 28.8906 84.748C27.6426 84.244 26.5986 83.56 25.7586 82.696C24.9426 81.808 24.3306 80.764 23.9226 79.564C23.5386 78.364 23.3466 77.068 23.3466 75.676ZM35.9466 73.624C35.9226 73.168 35.8386 72.724 35.6946 72.292C35.5746 71.86 35.3706 71.476 35.0826 71.14C34.8186 70.804 34.4706 70.528 34.0386 70.312C33.6306 70.096 33.1146 69.988 32.4906 69.988C31.8906 69.988 31.3746 70.096 30.9426 70.312C30.5106 70.504 30.1506 70.768 29.8626 71.104C29.5746 71.44 29.3466 71.836 29.1786 72.292C29.0346 72.724 28.9266 73.168 28.8546 73.624H35.9466ZM44.37 75.676C44.37 73.996 44.622 72.532 45.126 71.284C45.654 70.012 46.338 68.956 47.178 68.116C48.018 67.276 48.978 66.64 50.058 66.208C51.162 65.776 52.29 65.56 53.442 65.56C56.13 65.56 58.254 66.388 59.814 68.044C61.374 69.676 62.154 72.088 62.154 75.28C62.154 75.592 62.142 75.94 62.118 76.324C62.094 76.684 62.07 77.008 62.046 77.296H49.878C49.998 78.4 50.514 79.276 51.426 79.924C52.338 80.572 53.562 80.896 55.098 80.896C56.082 80.896 57.042 80.812 57.978 80.644C58.938 80.452 59.718 80.224 60.318 79.96L61.038 84.316C60.75 84.46 60.366 84.604 59.886 84.748C59.406 84.892 58.866 85.012 58.266 85.108C57.69 85.228 57.066 85.324 56.394 85.396C55.722 85.468 55.05 85.504 54.378 85.504C52.674 85.504 51.186 85.252 49.914 84.748C48.666 84.244 47.622 83.56 46.782 82.696C45.966 81.808 45.354 80.764 44.946 79.564C44.562 78.364 44.37 77.068 44.37 75.676ZM56.97 73.624C56.946 73.168 56.862 72.724 56.718 72.292C56.598 71.86 56.394 71.476 56.106 71.14C55.842 70.804 55.494 70.528 55.062 70.312C54.654 70.096 54.138 69.988 53.514 69.988C52.914 69.988 52.398 70.096 51.966 70.312C51.534 70.504 51.174 70.768 50.886 71.104C50.598 71.44 50.37 71.836 50.202 72.292C50.058 72.724 49.95 73.168 49.878 73.624H56.97ZM66.2934 66.712C67.2054 66.448 68.3814 66.208 69.8214 65.992C71.2614 65.752 72.7734 65.632 74.3574 65.632C75.9654 65.632 77.2974 65.848 78.3534 66.28C79.4334 66.688 80.2854 67.276 80.9094 68.044C81.5334 68.812 81.9774 69.724 82.2414 70.78C82.5054 71.836 82.6374 73.012 82.6374 74.308V85H77.2734V74.956C77.2734 73.228 77.0454 72.004 76.5894 71.284C76.1334 70.564 75.2814 70.204 74.0334 70.204C73.6494 70.204 73.2414 70.228 72.8094 70.276C72.3774 70.3 71.9934 70.336 71.6574 70.384V85H66.2934V66.712ZM95.9611 61.348L101.325 60.484V66.064H107.769V70.528H101.325V77.188C101.325 78.316 101.517 79.216 101.901 79.888C102.309 80.56 103.113 80.896 104.313 80.896C104.889 80.896 105.477 80.848 106.077 80.752C106.701 80.632 107.265 80.476 107.769 80.284L108.525 84.46C107.877 84.724 107.157 84.952 106.365 85.144C105.573 85.336 104.601 85.432 103.449 85.432C101.985 85.432 100.773 85.24 99.8131 84.856C98.8531 84.448 98.0851 83.896 97.5091 83.2C96.9331 82.48 96.5251 81.616 96.2851 80.608C96.0691 79.6 95.9611 78.484 95.9611 77.26V61.348ZM112.137 85V57.928L117.501 57.064V66.136C117.861 66.016 118.317 65.908 118.869 65.812C119.445 65.692 119.997 65.632 120.525 65.632C122.061 65.632 123.333 65.848 124.341 66.28C125.373 66.688 126.189 67.276 126.789 68.044C127.413 68.812 127.845 69.724 128.085 70.78C128.349 71.836 128.481 73.012 128.481 74.308V85H123.117V74.956C123.117 73.228 122.889 72.004 122.433 71.284C122.001 70.564 121.185 70.204 119.985 70.204C119.505 70.204 119.049 70.252 118.617 70.348C118.209 70.42 117.837 70.504 117.501 70.6V85H112.137ZM138.7 85H133.336V66.064H138.7V85ZM139.204 60.592C139.204 61.576 138.88 62.356 138.232 62.932C137.608 63.484 136.864 63.76 136 63.76C135.136 63.76 134.38 63.484 133.732 62.932C133.108 62.356 132.796 61.576 132.796 60.592C132.796 59.608 133.108 58.84 133.732 58.288C134.38 57.712 135.136 57.424 136 57.424C136.864 57.424 137.608 57.712 138.232 58.288C138.88 58.84 139.204 59.608 139.204 60.592ZM149.179 81.148C150.163 81.148 150.859 81.052 151.267 80.86C151.675 80.668 151.879 80.296 151.879 79.744C151.879 79.312 151.615 78.94 151.087 78.628C150.559 78.292 149.755 77.92 148.675 77.512C147.835 77.2 147.067 76.876 146.371 76.54C145.699 76.204 145.123 75.808 144.643 75.352C144.163 74.872 143.791 74.308 143.527 73.66C143.263 73.012 143.131 72.232 143.131 71.32C143.131 69.544 143.791 68.14 145.111 67.108C146.431 66.076 148.243 65.56 150.547 65.56C151.699 65.56 152.803 65.668 153.859 65.884C154.915 66.076 155.755 66.292 156.379 66.532L155.443 70.708C154.819 70.492 154.135 70.3 153.391 70.132C152.671 69.964 151.855 69.88 150.943 69.88C149.263 69.88 148.423 70.348 148.423 71.284C148.423 71.5 148.459 71.692 148.531 71.86C148.603 72.028 148.747 72.196 148.963 72.364C149.179 72.508 149.467 72.676 149.827 72.868C150.211 73.036 150.691 73.228 151.267 73.444C152.443 73.876 153.415 74.308 154.183 74.74C154.951 75.148 155.551 75.604 155.983 76.108C156.439 76.588 156.751 77.128 156.919 77.728C157.111 78.328 157.207 79.024 157.207 79.816C157.207 81.688 156.499 83.104 155.083 84.064C153.691 85.024 151.711 85.504 149.143 85.504C147.463 85.504 146.059 85.36 144.931 85.072C143.827 84.784 143.059 84.544 142.627 84.352L143.527 79.996C144.439 80.356 145.375 80.644 146.335 80.86C147.295 81.052 148.243 81.148 149.179 81.148ZM177.1 81.256C177.628 81.256 178.132 81.244 178.612 81.22C179.092 81.196 179.476 81.16 179.764 81.112V77.044C179.548 76.996 179.224 76.948 178.792 76.9C178.36 76.852 177.964 76.828 177.604 76.828C177.1 76.828 176.62 76.864 176.164 76.936C175.732 76.984 175.348 77.092 175.012 77.26C174.676 77.428 174.412 77.656 174.22 77.944C174.028 78.232 173.932 78.592 173.932 79.024C173.932 79.864 174.208 80.452 174.76 80.788C175.336 81.1 176.116 81.256 177.1 81.256ZM176.668 65.56C178.252 65.56 179.572 65.74 180.628 66.1C181.684 66.46 182.524 66.976 183.148 67.648C183.796 68.32 184.252 69.136 184.516 70.096C184.78 71.056 184.912 72.124 184.912 73.3V84.46C184.144 84.628 183.076 84.82 181.708 85.036C180.34 85.276 178.684 85.396 176.74 85.396C175.516 85.396 174.4 85.288 173.392 85.072C172.408 84.856 171.556 84.508 170.836 84.028C170.116 83.524 169.564 82.876 169.18 82.084C168.796 81.292 168.604 80.32 168.604 79.168C168.604 78.064 168.82 77.128 169.252 76.36C169.708 75.592 170.308 74.98 171.052 74.524C171.796 74.068 172.648 73.744 173.608 73.552C174.568 73.336 175.564 73.228 176.596 73.228C177.292 73.228 177.904 73.264 178.432 73.336C178.984 73.384 179.428 73.456 179.764 73.552V73.048C179.764 72.136 179.488 71.404 178.936 70.852C178.384 70.3 177.424 70.024 176.056 70.024C175.144 70.024 174.244 70.096 173.356 70.24C172.468 70.36 171.7 70.54 171.052 70.78L170.368 66.46C170.68 66.364 171.064 66.268 171.52 66.172C172 66.052 172.516 65.956 173.068 65.884C173.62 65.788 174.196 65.716 174.796 65.668C175.42 65.596 176.044 65.56 176.668 65.56ZM197.97 57.064C198.978 57.064 199.902 57.172 200.742 57.388C201.582 57.58 202.23 57.772 202.686 57.964L201.642 62.248C201.162 62.032 200.634 61.876 200.058 61.78C199.506 61.66 198.99 61.6 198.51 61.6C197.862 61.6 197.31 61.696 196.854 61.888C196.422 62.056 196.074 62.296 195.81 62.608C195.57 62.92 195.39 63.292 195.27 63.724C195.174 64.156 195.126 64.624 195.126 65.128V66.064H201.75V70.528H195.126V85H189.762V65.056C189.762 62.608 190.446 60.664 191.814 59.224C193.206 57.784 195.258 57.064 197.97 57.064ZM213.054 57.064C214.062 57.064 214.986 57.172 215.826 57.388C216.666 57.58 217.314 57.772 217.77 57.964L216.726 62.248C216.246 62.032 215.718 61.876 215.142 61.78C214.59 61.66 214.074 61.6 213.594 61.6C212.946 61.6 212.394 61.696 211.938 61.888C211.506 62.056 211.158 62.296 210.894 62.608C210.654 62.92 210.474 63.292 210.354 63.724C210.258 64.156 210.21 64.624 210.21 65.128V66.064H216.834V70.528H210.21V85H204.846V65.056C204.846 62.608 205.53 60.664 206.898 59.224C208.29 57.784 210.342 57.064 213.054 57.064ZM237.462 75.496C237.462 76.984 237.246 78.352 236.814 79.6C236.382 80.824 235.758 81.88 234.942 82.768C234.126 83.632 233.142 84.304 231.99 84.784C230.862 85.264 229.59 85.504 228.174 85.504C226.782 85.504 225.51 85.264 224.358 84.784C223.23 84.304 222.258 83.632 221.442 82.768C220.626 81.88 219.99 80.824 219.534 79.6C219.078 78.352 218.85 76.984 218.85 75.496C218.85 74.008 219.078 72.652 219.534 71.428C220.014 70.204 220.662 69.16 221.478 68.296C222.318 67.432 223.302 66.76 224.43 66.28C225.582 65.8 226.83 65.56 228.174 65.56C229.542 65.56 230.79 65.8 231.918 66.28C233.07 66.76 234.054 67.432 234.87 68.296C235.686 69.16 236.322 70.204 236.778 71.428C237.234 72.652 237.462 74.008 237.462 75.496ZM231.99 75.496C231.99 73.84 231.654 72.544 230.982 71.608C230.334 70.648 229.398 70.168 228.174 70.168C226.95 70.168 226.002 70.648 225.33 71.608C224.658 72.544 224.322 73.84 224.322 75.496C224.322 77.152 224.658 78.472 225.33 79.456C226.002 80.416 226.95 80.896 228.174 80.896C229.398 80.896 230.334 80.416 230.982 79.456C231.654 78.472 231.99 77.152 231.99 75.496ZM253.03 70.816C252.55 70.696 251.986 70.576 251.338 70.456C250.69 70.312 249.994 70.24 249.25 70.24C248.914 70.24 248.506 70.276 248.026 70.348C247.57 70.396 247.222 70.456 246.982 70.528V85H241.618V67.072C242.578 66.736 243.706 66.424 245.002 66.136C246.322 65.824 247.786 65.668 249.394 65.668C249.682 65.668 250.03 65.692 250.438 65.74C250.846 65.764 251.254 65.812 251.662 65.884C252.07 65.932 252.478 66.004 252.886 66.1C253.294 66.172 253.642 66.268 253.93 66.388L253.03 70.816ZM261.026 75.388C261.026 77.044 261.398 78.376 262.142 79.384C262.886 80.392 263.99 80.896 265.454 80.896C265.934 80.896 266.378 80.884 266.786 80.86C267.194 80.812 267.53 80.764 267.794 80.716V70.96C267.458 70.744 267.014 70.564 266.462 70.42C265.934 70.276 265.394 70.204 264.842 70.204C262.298 70.204 261.026 71.932 261.026 75.388ZM273.158 84.388C272.678 84.532 272.126 84.676 271.502 84.82C270.878 84.94 270.218 85.048 269.522 85.144C268.85 85.24 268.154 85.312 267.434 85.36C266.738 85.432 266.066 85.468 265.418 85.468C263.858 85.468 262.466 85.24 261.242 84.784C260.018 84.328 258.986 83.68 258.146 82.84C257.306 81.976 256.658 80.944 256.202 79.744C255.77 78.52 255.554 77.152 255.554 75.64C255.554 74.104 255.746 72.724 256.13 71.5C256.514 70.252 257.066 69.196 257.786 68.332C258.506 67.468 259.382 66.808 260.414 66.352C261.47 65.896 262.67 65.668 264.014 65.668C264.758 65.668 265.418 65.74 265.994 65.884C266.594 66.028 267.194 66.232 267.794 66.496V57.928L273.158 57.064V84.388ZM285.416 81.256C285.944 81.256 286.448 81.244 286.928 81.22C287.408 81.196 287.792 81.16 288.08 81.112V77.044C287.864 76.996 287.54 76.948 287.108 76.9C286.676 76.852 286.28 76.828 285.92 76.828C285.416 76.828 284.936 76.864 284.48 76.936C284.048 76.984 283.664 77.092 283.328 77.26C282.992 77.428 282.728 77.656 282.536 77.944C282.344 78.232 282.248 78.592 282.248 79.024C282.248 79.864 282.524 80.452 283.076 80.788C283.652 81.1 284.432 81.256 285.416 81.256ZM284.984 65.56C286.568 65.56 287.888 65.74 288.944 66.1C290 66.46 290.84 66.976 291.464 67.648C292.112 68.32 292.568 69.136 292.832 70.096C293.096 71.056 293.228 72.124 293.228 73.3V84.46C292.46 84.628 291.392 84.82 290.024 85.036C288.656 85.276 287 85.396 285.056 85.396C283.832 85.396 282.716 85.288 281.708 85.072C280.724 84.856 279.872 84.508 279.152 84.028C278.432 83.524 277.88 82.876 277.496 82.084C277.112 81.292 276.92 80.32 276.92 79.168C276.92 78.064 277.136 77.128 277.568 76.36C278.024 75.592 278.624 74.98 279.368 74.524C280.112 74.068 280.964 73.744 281.924 73.552C282.884 73.336 283.88 73.228 284.912 73.228C285.608 73.228 286.22 73.264 286.748 73.336C287.3 73.384 287.744 73.456 288.08 73.552V73.048C288.08 72.136 287.804 71.404 287.252 70.852C286.7 70.3 285.74 70.024 284.372 70.024C283.46 70.024 282.56 70.096 281.672 70.24C280.784 70.36 280.016 70.54 279.368 70.78L278.684 66.46C278.996 66.364 279.38 66.268 279.836 66.172C280.316 66.052 280.832 65.956 281.384 65.884C281.936 65.788 282.512 65.716 283.112 65.668C283.736 65.596 284.36 65.56 284.984 65.56ZM310.211 75.388C310.211 71.932 308.939 70.204 306.395 70.204C305.843 70.204 305.291 70.276 304.739 70.42C304.211 70.564 303.779 70.744 303.443 70.96V80.716C303.707 80.764 304.043 80.812 304.451 80.86C304.859 80.884 305.303 80.896 305.783 80.896C307.247 80.896 308.351 80.392 309.095 79.384C309.839 78.376 310.211 77.044 310.211 75.388ZM315.683 75.532C315.683 77.044 315.455 78.412 314.999 79.636C314.567 80.86 313.931 81.904 313.091 82.768C312.251 83.632 311.219 84.304 309.995 84.784C308.771 85.24 307.379 85.468 305.819 85.468C305.171 85.468 304.487 85.432 303.767 85.36C303.071 85.312 302.375 85.24 301.679 85.144C301.007 85.048 300.359 84.94 299.735 84.82C299.111 84.676 298.559 84.532 298.079 84.388V57.928L303.443 57.064V66.496C304.043 66.232 304.667 66.028 305.315 65.884C305.963 65.74 306.659 65.668 307.403 65.668C308.747 65.668 309.935 65.908 310.967 66.388C311.999 66.844 312.863 67.504 313.559 68.368C314.255 69.232 314.783 70.276 315.143 71.5C315.503 72.7 315.683 74.044 315.683 75.532ZM327.365 85.36C325.805 85.336 324.533 85.168 323.549 84.856C322.589 84.544 321.821 84.112 321.245 83.56C320.693 82.984 320.309 82.3 320.093 81.508C319.901 80.692 319.805 79.78 319.805 78.772V57.928L325.169 57.064V77.692C325.169 78.172 325.205 78.604 325.277 78.988C325.349 79.372 325.481 79.696 325.673 79.96C325.889 80.224 326.189 80.44 326.573 80.608C326.957 80.776 327.473 80.884 328.121 80.932L327.365 85.36ZM330.296 75.676C330.296 73.996 330.548 72.532 331.052 71.284C331.58 70.012 332.264 68.956 333.104 68.116C333.944 67.276 334.904 66.64 335.984 66.208C337.088 65.776 338.216 65.56 339.368 65.56C342.056 65.56 344.18 66.388 345.74 68.044C347.3 69.676 348.08 72.088 348.08 75.28C348.08 75.592 348.068 75.94 348.044 76.324C348.02 76.684 347.996 77.008 347.972 77.296H335.804C335.924 78.4 336.44 79.276 337.352 79.924C338.264 80.572 339.488 80.896 341.024 80.896C342.008 80.896 342.968 80.812 343.904 80.644C344.864 80.452 345.644 80.224 346.244 79.96L346.964 84.316C346.676 84.46 346.292 84.604 345.812 84.748C345.332 84.892 344.792 85.012 344.192 85.108C343.616 85.228 342.992 85.324 342.32 85.396C341.648 85.468 340.976 85.504 340.304 85.504C338.6 85.504 337.112 85.252 335.84 84.748C334.592 84.244 333.548 83.56 332.708 82.696C331.892 81.808 331.28 80.764 330.872 79.564C330.488 78.364 330.296 77.068 330.296 75.676ZM342.896 73.624C342.872 73.168 342.788 72.724 342.644 72.292C342.524 71.86 342.32 71.476 342.032 71.14C341.768 70.804 341.42 70.528 340.988 70.312C340.58 70.096 340.064 69.988 339.44 69.988C338.84 69.988 338.324 70.096 337.892 70.312C337.46 70.504 337.1 70.768 336.812 71.104C336.524 71.44 336.296 71.836 336.128 72.292C335.984 72.724 335.876 73.168 335.804 73.624H342.896Z" fill="#030749"/>
<path fill-rule="evenodd" clip-rule="evenodd" d="M282.057 88.1348C252.247 88.49 222.421 89.8992 192.741 92.418C178.63 93.6158 162.243 93.4661 148.557 97.5497C147.875 97.7552 148.005 98.3717 148.019 98.4333C148.049 98.5596 148.173 98.9793 148.716 98.9999C148.775 99.0028 149.191 98.9441 149.351 98.9236C153.392 98.3951 157.419 97.7787 161.463 97.2796C175.427 95.5505 189.432 94.2441 203.457 93.0991C222.073 91.5784 240.849 90.7682 259.515 90.134C269.732 89.7876 280.194 90.2485 290.444 89.5322C294.208 89.5117 297.972 89.5088 301.736 89.5205C317.471 89.5763 333.188 90.1693 348.896 90.9825C353.947 91.2438 357.799 91.5256 362.744 91.7164C364.622 91.7898 367.6 91.8397 369.673 91.872C369.977 91.8779 370.753 91.8837 371.075 91.8867C371.107 91.8925 371.14 91.8925 371.175 91.8925C371.299 91.8925 371.358 91.8837 371.37 91.8837C372.073 91.781 372.008 91.1204 371.99 91.0206C371.987 91.0001 371.881 90.4423 371.276 90.4217C371.131 90.4159 370.095 90.41 369.696 90.4042C367.636 90.3719 364.669 90.322 362.8 90.2515C357.864 90.0607 354.015 89.7789 348.973 89.5176C333.241 88.7044 317.5 88.1084 301.742 88.0527C299.817 88.0468 297.889 88.0439 295.964 88.0468C295.899 87.8795 295.755 87.6916 295.436 87.6094C295.138 87.533 293.003 87.4655 292.18 87.398C286.084 86.8989 286.264 86.9224 279.557 86.5144C269.398 85.8949 267.851 85.7539 257.286 85.4927C238.094 85.0171 218.894 85.0553 199.699 85.1023C190.223 85.1287 180.076 85.7657 170.455 84.5767C173.626 84.2068 176.808 83.9368 179.985 83.6285C190.831 82.5775 201.686 81.9258 212.576 81.4678C238.699 80.3698 264.864 79.9325 290.978 81.4297C285.419 81.4825 279.864 81.6058 274.305 81.685C251.677 82.0138 228.83 81.7673 206.25 83.4729C205.845 83.5052 205.541 83.8575 205.571 84.2597C205.6 84.6648 205.957 84.9672 206.362 84.9378C228.913 83.2322 251.727 83.4817 274.325 83.1529C282.721 83.0325 291.114 82.8153 299.51 82.8799C302.391 82.9034 305.272 83.0091 308.154 83.0443C308.723 83.0531 310.191 83.1647 310.4 83.1177C310.864 83.015 310.964 82.6744 310.994 82.5071C311.008 82.4072 311.056 81.8318 310.347 81.6263C305.512 80.2231 296.587 80.2877 291.888 80.0117C265.451 78.4558 238.962 78.8902 212.514 79.9999C201.597 80.4608 190.716 81.1156 179.84 82.1695C176.041 82.5364 172.233 82.8535 168.448 83.3408C167.837 83.4201 166.464 83.5346 165.8 83.655C165.522 83.7049 165.322 83.7753 165.233 83.8252C164.888 84.0189 164.826 84.3008 164.826 84.4916C164.823 84.6384 164.885 85.1551 165.608 85.296C176.628 87.442 188.62 86.5995 199.702 86.5701C218.885 86.5231 238.071 86.4849 257.25 86.9605C267.789 87.2218 269.33 87.3598 279.468 87.9793C280.469 88.038 281.316 88.0908 282.057 88.1348Z" fill="#E99557"/>
<path fill-rule="evenodd" clip-rule="evenodd" d="M555.781 9.93533C556.797 7.21807 557.439 4.33719 558.04 1.54074C558.167 0.938249 557.794 0.33702 557.204 0.242965C556.617 0.105378 556.037 0.494302 555.913 1.0533C555.333 3.76391 554.721 6.55918 553.745 9.14843C553.534 9.69999 553.817 10.3377 554.379 10.5608C554.94 10.7838 555.57 10.4869 555.781 9.93533Z" fill="#E99557"/>
<path fill-rule="evenodd" clip-rule="evenodd" d="M566.111 19.314C571.054 15.2226 575.457 10.5157 580.515 6.52173C580.985 6.16753 581.068 5.47362 580.697 5.0039C580.325 4.53414 579.642 4.43227 579.167 4.82996C574.096 8.82283 569.68 13.5286 564.724 17.6189C564.26 18.0174 564.194 18.7127 564.577 19.1834C564.964 19.6106 565.647 19.7126 566.111 19.314Z" fill="#E99557"/>
<path fill-rule="evenodd" clip-rule="evenodd" d="M582.939 29.2032C580.318 29.1113 577.696 29.0192 575.074 28.9273C574.476 28.8764 573.97 29.3592 573.947 29.9706C573.925 30.582 574.397 31.0601 574.995 31.1111C577.621 31.2033 580.246 31.2958 582.872 31.388C583.474 31.3954 583.977 30.9124 583.996 30.3007C584.012 29.7325 583.54 29.2106 582.939 29.2032Z" fill="#E99557"/>
</svg>
