<svg width="734" height="154" viewBox="0 0 734 154" fill="none" xmlns="http://www.w3.org/2000/svg">
<path d="M19.62 11.716C19.908 12.7 20.22 13.816 20.556 15.064C20.916 16.288 21.288 17.56 21.672 18.88C22.08 20.2 22.488 21.52 22.896 22.84C23.304 24.16 23.7 25.384 24.084 26.512C24.396 25.288 24.708 23.956 25.02 22.516C25.356 21.076 25.668 19.588 25.956 18.052C26.244 16.516 26.52 14.992 26.784 13.48C27.072 11.944 27.336 10.468 27.576 9.052H33.408C32.568 13.228 31.596 17.464 30.492 21.76C29.412 26.056 28.236 30.136 26.964 34H21.816C20.976 31.696 20.16 29.284 19.368 26.764C18.576 24.22 17.796 21.676 17.028 19.132C16.26 21.676 15.492 24.22 14.724 26.764C13.956 29.284 13.152 31.696 12.312 34H7.164C5.892 30.136 4.704 26.056 3.6 21.76C2.52 17.464 1.56 13.228 0.72 9.052H6.804C7.044 10.468 7.308 11.944 7.596 13.48C7.884 14.992 8.184 16.516 8.496 18.052C8.808 19.588 9.12 21.076 9.432 22.516C9.768 23.956 10.104 25.288 10.44 26.512C10.872 25.336 11.292 24.088 11.7 22.768C12.108 21.448 12.504 20.128 12.888 18.808C13.272 17.488 13.62 16.216 13.932 14.992C14.268 13.768 14.568 12.676 14.832 11.716H19.62ZM36.6567 34V6.928L42.0207 6.064V15.136C42.3807 15.016 42.8367 14.908 43.3887 14.812C43.9647 14.692 44.5167 14.632 45.0447 14.632C46.5807 14.632 47.8527 14.848 48.8607 15.28C49.8927 15.688 50.7087 16.276 51.3087 17.044C51.9327 17.812 52.3647 18.724 52.6047 19.78C52.8687 20.836 53.0007 22.012 53.0007 23.308V34H47.6367V23.956C47.6367 22.228 47.4087 21.004 46.9527 20.284C46.5207 19.564 45.7047 19.204 44.5047 19.204C44.0247 19.204 43.5687 19.252 43.1367 19.348C42.7287 19.42 42.3567 19.504 42.0207 19.6V34H36.6567ZM74.1054 15.064C73.0254 18.712 71.8974 22.132 70.7214 25.324C69.5454 28.516 68.2614 31.612 66.8694 34.612C66.3654 35.692 65.8614 36.604 65.3574 37.348C64.8534 38.116 64.3014 38.74 63.7014 39.22C63.1014 39.724 62.4174 40.084 61.6494 40.3C60.9054 40.54 60.0294 40.66 59.0214 40.66C58.1814 40.66 57.4014 40.576 56.6814 40.408C55.9854 40.264 55.4094 40.096 54.9534 39.904L55.8894 35.62C56.4414 35.812 56.9334 35.944 57.3654 36.016C57.7974 36.088 58.2534 36.124 58.7334 36.124C59.6934 36.124 60.4254 35.86 60.9294 35.332C61.4574 34.828 61.9014 34.12 62.2614 33.208C61.0374 30.808 59.8134 28.12 58.5894 25.144C57.3654 22.144 56.2134 18.784 55.1334 15.064H60.8214C61.0614 16 61.3374 17.02 61.6494 18.124C61.9854 19.204 62.3334 20.308 62.6934 21.436C63.0534 22.54 63.4134 23.62 63.7734 24.676C64.1574 25.732 64.5174 26.692 64.8534 27.556C65.1654 26.692 65.4894 25.732 65.8254 24.676C66.1614 23.62 66.4854 22.54 66.7974 21.436C67.1334 20.308 67.4454 19.204 67.7334 18.124C68.0454 17.02 68.3214 16 68.5614 15.064H74.1054ZM91.0654 30.148C92.0494 30.148 92.7454 30.052 93.1534 29.86C93.5614 29.668 93.7654 29.296 93.7654 28.744C93.7654 28.312 93.5014 27.94 92.9734 27.628C92.4454 27.292 91.6414 26.92 90.5614 26.512C89.7214 26.2 88.9534 25.876 88.2574 25.54C87.5854 25.204 87.0094 24.808 86.5294 24.352C86.0494 23.872 85.6774 23.308 85.4134 22.66C85.1494 22.012 85.0174 21.232 85.0174 20.32C85.0174 18.544 85.6774 17.14 86.9974 16.108C88.3174 15.076 90.1294 14.56 92.4334 14.56C93.5854 14.56 94.6894 14.668 95.7454 14.884C96.8014 15.076 97.6414 15.292 98.2654 15.532L97.3294 19.708C96.7054 19.492 96.0214 19.3 95.2774 19.132C94.5574 18.964 93.7414 18.88 92.8294 18.88C91.1494 18.88 90.3094 19.348 90.3094 20.284C90.3094 20.5 90.3454 20.692 90.4174 20.86C90.4894 21.028 90.6334 21.196 90.8494 21.364C91.0654 21.508 91.3534 21.676 91.7134 21.868C92.0974 22.036 92.5774 22.228 93.1534 22.444C94.3294 22.876 95.3014 23.308 96.0694 23.74C96.8374 24.148 97.4374 24.604 97.8694 25.108C98.3254 25.588 98.6374 26.128 98.8054 26.728C98.9974 27.328 99.0934 28.024 99.0934 28.816C99.0934 30.688 98.3854 32.104 96.9694 33.064C95.5774 34.024 93.5974 34.504 91.0294 34.504C89.3494 34.504 87.9454 34.36 86.8174 34.072C85.7134 33.784 84.9454 33.544 84.5134 33.352L85.4134 28.996C86.3254 29.356 87.2614 29.644 88.2214 29.86C89.1814 30.052 90.1294 30.148 91.0654 30.148ZM103.102 34V6.928L108.466 6.064V15.136C108.826 15.016 109.282 14.908 109.834 14.812C110.41 14.692 110.962 14.632 111.49 14.632C113.026 14.632 114.298 14.848 115.306 15.28C116.338 15.688 117.154 16.276 117.754 17.044C118.378 17.812 118.81 18.724 119.05 19.78C119.314 20.836 119.446 22.012 119.446 23.308V34H114.082V23.956C114.082 22.228 113.854 21.004 113.398 20.284C112.966 19.564 112.15 19.204 110.95 19.204C110.47 19.204 110.014 19.252 109.582 19.348C109.174 19.42 108.802 19.504 108.466 19.6V34H103.102ZM142.013 24.496C142.013 25.984 141.797 27.352 141.365 28.6C140.933 29.824 140.309 30.88 139.493 31.768C138.677 32.632 137.693 33.304 136.541 33.784C135.413 34.264 134.141 34.504 132.725 34.504C131.333 34.504 130.061 34.264 128.909 33.784C127.781 33.304 126.809 32.632 125.993 31.768C125.177 30.88 124.541 29.824 124.085 28.6C123.629 27.352 123.401 25.984 123.401 24.496C123.401 23.008 123.629 21.652 124.085 20.428C124.565 19.204 125.213 18.16 126.029 17.296C126.869 16.432 127.853 15.76 128.981 15.28C130.133 14.8 131.381 14.56 132.725 14.56C134.093 14.56 135.341 14.8 136.469 15.28C137.621 15.76 138.605 16.432 139.421 17.296C140.237 18.16 140.873 19.204 141.329 20.428C141.785 21.652 142.013 23.008 142.013 24.496ZM136.541 24.496C136.541 22.84 136.205 21.544 135.533 20.608C134.885 19.648 133.949 19.168 132.725 19.168C131.501 19.168 130.553 19.648 129.881 20.608C129.209 21.544 128.873 22.84 128.873 24.496C128.873 26.152 129.209 27.472 129.881 28.456C130.553 29.416 131.501 29.896 132.725 29.896C133.949 29.896 134.885 29.416 135.533 28.456C136.205 27.472 136.541 26.152 136.541 24.496ZM162.332 33.352C161.42 33.616 160.244 33.856 158.804 34.072C157.364 34.312 155.852 34.432 154.268 34.432C152.66 34.432 151.316 34.216 150.236 33.784C149.18 33.352 148.34 32.752 147.716 31.984C147.092 31.192 146.648 30.256 146.384 29.176C146.12 28.096 145.988 26.908 145.988 25.612V15.064H151.352V24.964C151.352 26.692 151.58 27.94 152.036 28.708C152.492 29.476 153.344 29.86 154.592 29.86C154.976 29.86 155.384 29.848 155.816 29.824C156.248 29.776 156.632 29.728 156.968 29.68V15.064H162.332V33.352ZM174.928 34.36C173.368 34.336 172.096 34.168 171.112 33.856C170.152 33.544 169.384 33.112 168.808 32.56C168.256 31.984 167.872 31.3 167.656 30.508C167.464 29.692 167.368 28.78 167.368 27.772V6.928L172.732 6.064V26.692C172.732 27.172 172.768 27.604 172.84 27.988C172.912 28.372 173.044 28.696 173.236 28.96C173.452 29.224 173.752 29.44 174.136 29.608C174.52 29.776 175.036 29.884 175.684 29.932L174.928 34.36ZM183.33 24.388C183.33 26.044 183.702 27.376 184.446 28.384C185.19 29.392 186.294 29.896 187.758 29.896C188.238 29.896 188.682 29.884 189.09 29.86C189.498 29.812 189.834 29.764 190.098 29.716V19.96C189.762 19.744 189.318 19.564 188.766 19.42C188.238 19.276 187.698 19.204 187.146 19.204C184.602 19.204 183.33 20.932 183.33 24.388ZM195.462 33.388C194.982 33.532 194.43 33.676 193.806 33.82C193.182 33.94 192.522 34.048 191.826 34.144C191.154 34.24 190.458 34.312 189.738 34.36C189.042 34.432 188.37 34.468 187.722 34.468C186.162 34.468 184.77 34.24 183.546 33.784C182.322 33.328 181.29 32.68 180.45 31.84C179.61 30.976 178.962 29.944 178.506 28.744C178.074 27.52 177.858 26.152 177.858 24.64C177.858 23.104 178.05 21.724 178.434 20.5C178.818 19.252 179.37 18.196 180.09 17.332C180.81 16.468 181.686 15.808 182.718 15.352C183.774 14.896 184.974 14.668 186.318 14.668C187.062 14.668 187.722 14.74 188.298 14.884C188.898 15.028 189.498 15.232 190.098 15.496V6.928L195.462 6.064V33.388ZM225.945 15.064C224.865 18.712 223.737 22.132 222.561 25.324C221.385 28.516 220.101 31.612 218.709 34.612C218.205 35.692 217.701 36.604 217.197 37.348C216.693 38.116 216.141 38.74 215.541 39.22C214.941 39.724 214.257 40.084 213.489 40.3C212.745 40.54 211.869 40.66 210.861 40.66C210.021 40.66 209.241 40.576 208.521 40.408C207.825 40.264 207.249 40.096 206.793 39.904L207.729 35.62C208.281 35.812 208.773 35.944 209.205 36.016C209.637 36.088 210.093 36.124 210.573 36.124C211.533 36.124 212.265 35.86 212.769 35.332C213.297 34.828 213.741 34.12 214.101 33.208C212.877 30.808 211.653 28.12 210.429 25.144C209.205 22.144 208.053 18.784 206.973 15.064H212.661C212.901 16 213.177 17.02 213.489 18.124C213.825 19.204 214.173 20.308 214.533 21.436C214.893 22.54 215.253 23.62 215.613 24.676C215.997 25.732 216.357 26.692 216.693 27.556C217.005 26.692 217.329 25.732 217.665 24.676C218.001 23.62 218.325 22.54 218.637 21.436C218.973 20.308 219.285 19.204 219.573 18.124C219.885 17.02 220.161 16 220.401 15.064H225.945ZM246.041 24.496C246.041 25.984 245.825 27.352 245.393 28.6C244.961 29.824 244.337 30.88 243.521 31.768C242.705 32.632 241.721 33.304 240.569 33.784C239.441 34.264 238.169 34.504 236.753 34.504C235.361 34.504 234.089 34.264 232.937 33.784C231.809 33.304 230.837 32.632 230.021 31.768C229.205 30.88 228.569 29.824 228.113 28.6C227.657 27.352 227.429 25.984 227.429 24.496C227.429 23.008 227.657 21.652 228.113 20.428C228.593 19.204 229.241 18.16 230.057 17.296C230.897 16.432 231.881 15.76 233.009 15.28C234.161 14.8 235.409 14.56 236.753 14.56C238.121 14.56 239.369 14.8 240.497 15.28C241.649 15.76 242.633 16.432 243.449 17.296C244.265 18.16 244.901 19.204 245.357 20.428C245.813 21.652 246.041 23.008 246.041 24.496ZM240.569 24.496C240.569 22.84 240.233 21.544 239.561 20.608C238.913 19.648 237.977 19.168 236.753 19.168C235.529 19.168 234.581 19.648 233.909 20.608C233.237 21.544 232.901 22.84 232.901 24.496C232.901 26.152 233.237 27.472 233.909 28.456C234.581 29.416 235.529 29.896 236.753 29.896C237.977 29.896 238.913 29.416 239.561 28.456C240.233 27.472 240.569 26.152 240.569 24.496ZM266.36 33.352C265.448 33.616 264.272 33.856 262.832 34.072C261.392 34.312 259.88 34.432 258.296 34.432C256.688 34.432 255.344 34.216 254.264 33.784C253.208 33.352 252.368 32.752 251.744 31.984C251.12 31.192 250.676 30.256 250.412 29.176C250.148 28.096 250.016 26.908 250.016 25.612V15.064H255.38V24.964C255.38 26.692 255.608 27.94 256.064 28.708C256.52 29.476 257.372 29.86 258.62 29.86C259.004 29.86 259.412 29.848 259.844 29.824C260.276 29.776 260.66 29.728 260.996 29.68V15.064H266.36V33.352ZM296.207 33.352C295.295 33.616 294.119 33.856 292.679 34.072C291.239 34.312 289.727 34.432 288.143 34.432C286.535 34.432 285.191 34.216 284.111 33.784C283.055 33.352 282.215 32.752 281.591 31.984C280.967 31.192 280.523 30.256 280.259 29.176C279.995 28.096 279.863 26.908 279.863 25.612V15.064H285.227V24.964C285.227 26.692 285.455 27.94 285.911 28.708C286.367 29.476 287.219 29.86 288.467 29.86C288.851 29.86 289.259 29.848 289.691 29.824C290.123 29.776 290.507 29.728 290.843 29.68V15.064H296.207V33.352ZM306.679 30.148C307.663 30.148 308.359 30.052 308.767 29.86C309.175 29.668 309.379 29.296 309.379 28.744C309.379 28.312 309.115 27.94 308.587 27.628C308.059 27.292 307.255 26.92 306.175 26.512C305.335 26.2 304.567 25.876 303.871 25.54C303.199 25.204 302.623 24.808 302.143 24.352C301.663 23.872 301.291 23.308 301.027 22.66C300.763 22.012 300.631 21.232 300.631 20.32C300.631 18.544 301.291 17.14 302.611 16.108C303.931 15.076 305.743 14.56 308.047 14.56C309.199 14.56 310.303 14.668 311.359 14.884C312.415 15.076 313.255 15.292 313.879 15.532L312.943 19.708C312.319 19.492 311.635 19.3 310.891 19.132C310.171 18.964 309.355 18.88 308.443 18.88C306.763 18.88 305.923 19.348 305.923 20.284C305.923 20.5 305.959 20.692 306.031 20.86C306.103 21.028 306.247 21.196 306.463 21.364C306.679 21.508 306.967 21.676 307.327 21.868C307.711 22.036 308.191 22.228 308.767 22.444C309.943 22.876 310.915 23.308 311.683 23.74C312.451 24.148 313.051 24.604 313.483 25.108C313.939 25.588 314.251 26.128 314.419 26.728C314.611 27.328 314.707 28.024 314.707 28.816C314.707 30.688 313.999 32.104 312.583 33.064C311.191 34.024 309.211 34.504 306.643 34.504C304.963 34.504 303.559 34.36 302.431 34.072C301.327 33.784 300.559 33.544 300.127 33.352L301.027 28.996C301.939 29.356 302.875 29.644 303.835 29.86C304.795 30.052 305.743 30.148 306.679 30.148ZM317.815 24.676C317.815 22.996 318.067 21.532 318.571 20.284C319.099 19.012 319.783 17.956 320.623 17.116C321.463 16.276 322.423 15.64 323.503 15.208C324.607 14.776 325.735 14.56 326.887 14.56C329.575 14.56 331.699 15.388 333.259 17.044C334.819 18.676 335.599 21.088 335.599 24.28C335.599 24.592 335.587 24.94 335.563 25.324C335.539 25.684 335.515 26.008 335.491 26.296H323.323C323.443 27.4 323.959 28.276 324.871 28.924C325.783 29.572 327.007 29.896 328.543 29.896C329.527 29.896 330.487 29.812 331.423 29.644C332.383 29.452 333.163 29.224 333.763 28.96L334.483 33.316C334.195 33.46 333.811 33.604 333.331 33.748C332.851 33.892 332.311 34.012 331.711 34.108C331.135 34.228 330.511 34.324 329.839 34.396C329.167 34.468 328.495 34.504 327.823 34.504C326.119 34.504 324.631 34.252 323.359 33.748C322.111 33.244 321.067 32.56 320.227 31.696C319.411 30.808 318.799 29.764 318.391 28.564C318.007 27.364 317.815 26.068 317.815 24.676ZM330.415 22.624C330.391 22.168 330.307 21.724 330.163 21.292C330.043 20.86 329.839 20.476 329.551 20.14C329.287 19.804 328.939 19.528 328.507 19.312C328.099 19.096 327.583 18.988 326.959 18.988C326.359 18.988 325.843 19.096 325.411 19.312C324.979 19.504 324.619 19.768 324.331 20.104C324.043 20.44 323.815 20.836 323.647 21.292C323.503 21.724 323.395 22.168 323.323 22.624H330.415ZM360.123 34.504C356.067 34.504 352.971 33.376 350.835 31.12C348.723 28.864 347.667 25.66 347.667 21.508C347.667 19.444 347.991 17.608 348.639 16C349.287 14.368 350.175 13 351.303 11.896C352.431 10.768 353.775 9.916 355.335 9.34C356.895 8.764 358.587 8.476 360.411 8.476C361.467 8.476 362.427 8.56 363.291 8.728C364.155 8.872 364.911 9.052 365.559 9.268C366.207 9.46 366.747 9.664 367.179 9.88C367.611 10.096 367.923 10.264 368.115 10.384L366.495 14.92C365.727 14.512 364.827 14.164 363.795 13.876C362.787 13.588 361.635 13.444 360.339 13.444C359.475 13.444 358.623 13.588 357.783 13.876C356.967 14.164 356.235 14.632 355.587 15.28C354.963 15.904 354.459 16.72 354.075 17.728C353.691 18.736 353.499 19.96 353.499 21.4C353.499 22.552 353.619 23.632 353.859 24.64C354.123 25.624 354.531 26.476 355.083 27.196C355.659 27.916 356.403 28.492 357.315 28.924C358.227 29.332 359.331 29.536 360.627 29.536C361.443 29.536 362.175 29.488 362.823 29.392C363.471 29.296 364.047 29.188 364.551 29.068C365.055 28.924 365.499 28.768 365.883 28.6C366.267 28.432 366.615 28.276 366.927 28.132L368.475 32.632C367.683 33.112 366.567 33.544 365.127 33.928C363.687 34.312 362.019 34.504 360.123 34.504ZM379.319 30.256C379.847 30.256 380.351 30.244 380.831 30.22C381.311 30.196 381.695 30.16 381.983 30.112V26.044C381.767 25.996 381.443 25.948 381.011 25.9C380.579 25.852 380.183 25.828 379.823 25.828C379.319 25.828 378.839 25.864 378.383 25.936C377.951 25.984 377.567 26.092 377.231 26.26C376.895 26.428 376.631 26.656 376.439 26.944C376.247 27.232 376.151 27.592 376.151 28.024C376.151 28.864 376.427 29.452 376.979 29.788C377.555 30.1 378.335 30.256 379.319 30.256ZM378.887 14.56C380.471 14.56 381.791 14.74 382.847 15.1C383.903 15.46 384.743 15.976 385.367 16.648C386.015 17.32 386.471 18.136 386.735 19.096C386.999 20.056 387.131 21.124 387.131 22.3V33.46C386.363 33.628 385.295 33.82 383.927 34.036C382.559 34.276 380.903 34.396 378.959 34.396C377.735 34.396 376.619 34.288 375.611 34.072C374.627 33.856 373.775 33.508 373.055 33.028C372.335 32.524 371.783 31.876 371.399 31.084C371.015 30.292 370.823 29.32 370.823 28.168C370.823 27.064 371.039 26.128 371.471 25.36C371.927 24.592 372.527 23.98 373.271 23.524C374.015 23.068 374.867 22.744 375.827 22.552C376.787 22.336 377.783 22.228 378.814 22.228C379.511 22.228 380.123 22.264 380.651 22.336C381.203 22.384 381.647 22.456 381.983 22.552V22.048C381.983 21.136 381.707 20.404 381.155 19.852C380.603 19.3 379.643 19.024 378.275 19.024C377.363 19.024 376.463 19.096 375.575 19.24C374.687 19.36 373.919 19.54 373.271 19.78L372.587 15.46C372.899 15.364 373.283 15.268 373.739 15.172C374.219 15.052 374.735 14.956 375.287 14.884C375.839 14.788 376.415 14.716 377.015 14.668C377.639 14.596 378.263 14.56 378.887 14.56ZM396.553 24.388C396.553 26.044 396.925 27.376 397.669 28.384C398.413 29.392 399.517 29.896 400.981 29.896C401.461 29.896 401.905 29.884 402.313 29.86C402.721 29.812 403.057 29.764 403.321 29.716V19.96C402.985 19.744 402.541 19.564 401.989 19.42C401.461 19.276 400.921 19.204 400.369 19.204C397.825 19.204 396.553 20.932 396.553 24.388ZM408.685 33.388C408.205 33.532 407.653 33.676 407.029 33.82C406.405 33.94 405.745 34.048 405.049 34.144C404.377 34.24 403.681 34.312 402.961 34.36C402.265 34.432 401.593 34.468 400.945 34.468C399.385 34.468 397.993 34.24 396.769 33.784C395.545 33.328 394.513 32.68 393.673 31.84C392.833 30.976 392.185 29.944 391.729 28.744C391.297 27.52 391.081 26.152 391.081 24.64C391.081 23.104 391.273 21.724 391.657 20.5C392.041 19.252 392.593 18.196 393.313 17.332C394.033 16.468 394.909 15.808 395.941 15.352C396.997 14.896 398.197 14.668 399.541 14.668C400.285 14.668 400.945 14.74 401.521 14.884C402.121 15.028 402.721 15.232 403.321 15.496V6.928L408.685 6.064V33.388ZM412.808 24.676C412.808 22.996 413.06 21.532 413.563 20.284C414.092 19.012 414.776 17.956 415.616 17.116C416.456 16.276 417.416 15.64 418.496 15.208C419.6 14.776 420.728 14.56 421.88 14.56C424.568 14.56 426.692 15.388 428.252 17.044C429.812 18.676 430.592 21.088 430.592 24.28C430.592 24.592 430.58 24.94 430.556 25.324C430.532 25.684 430.508 26.008 430.484 26.296H418.316C418.436 27.4 418.952 28.276 419.864 28.924C420.776 29.572 422 29.896 423.536 29.896C424.52 29.896 425.48 29.812 426.416 29.644C427.376 29.452 428.156 29.224 428.756 28.96L429.476 33.316C429.188 33.46 428.804 33.604 428.324 33.748C427.844 33.892 427.304 34.012 426.704 34.108C426.128 34.228 425.504 34.324 424.832 34.396C424.16 34.468 423.488 34.504 422.816 34.504C421.112 34.504 419.624 34.252 418.352 33.748C417.104 33.244 416.06 32.56 415.22 31.696C414.404 30.808 413.792 29.764 413.384 28.564C413 27.364 412.808 26.068 412.808 24.676ZM425.408 22.624C425.384 22.168 425.3 21.724 425.156 21.292C425.036 20.86 424.832 20.476 424.544 20.14C424.28 19.804 423.932 19.528 423.5 19.312C423.092 19.096 422.576 18.988 421.952 18.988C421.352 18.988 420.836 19.096 420.404 19.312C419.972 19.504 419.612 19.768 419.324 20.104C419.036 20.44 418.808 20.836 418.64 21.292C418.496 21.724 418.388 22.168 418.316 22.624H425.408ZM446.143 19.816C445.663 19.696 445.099 19.576 444.451 19.456C443.803 19.312 443.107 19.24 442.363 19.24C442.027 19.24 441.619 19.276 441.139 19.348C440.683 19.396 440.335 19.456 440.095 19.528V34H434.731V16.072C435.691 15.736 436.819 15.424 438.115 15.136C439.435 14.824 440.899 14.668 442.507 14.668C442.795 14.668 443.143 14.692 443.551 14.74C443.959 14.764 444.367 14.812 444.775 14.884C445.183 14.932 445.591 15.004 445.999 15.1C446.407 15.172 446.755 15.268 447.043 15.388L446.143 19.816ZM454.986 13.048C454.122 13.048 453.306 13.156 452.538 13.372C451.77 13.588 450.918 13.936 449.982 14.416L448.47 10.348C449.406 9.748 450.51 9.292 451.782 8.98C453.054 8.644 454.302 8.476 455.526 8.476C457.062 8.476 458.322 8.68 459.306 9.088C460.314 9.496 461.106 10.012 461.682 10.636C462.258 11.26 462.654 11.944 462.87 12.688C463.11 13.432 463.23 14.14 463.23 14.812C463.23 15.484 463.122 16.108 462.906 16.684C462.714 17.236 462.462 17.752 462.15 18.232C461.838 18.712 461.478 19.168 461.07 19.6C460.662 20.032 460.266 20.44 459.882 20.824C459.594 21.112 459.294 21.424 458.982 21.76C458.67 22.072 458.382 22.408 458.118 22.768C457.878 23.128 457.674 23.512 457.506 23.92C457.338 24.304 457.254 24.7 457.254 25.108C457.254 25.204 457.254 25.348 457.254 25.54C457.254 25.732 457.266 25.9 457.29 26.044H452.538C452.49 25.804 452.454 25.54 452.43 25.252C452.43 24.94 452.43 24.676 452.43 24.46C452.43 23.788 452.514 23.188 452.682 22.66C452.85 22.108 453.066 21.604 453.33 21.148C453.618 20.668 453.942 20.224 454.302 19.816C454.662 19.408 455.034 19.012 455.418 18.628C455.97 18.076 456.474 17.536 456.93 17.008C457.386 16.456 457.614 15.832 457.614 15.136C457.614 14.56 457.386 14.068 456.93 13.66C456.498 13.252 455.85 13.048 454.986 13.048ZM458.334 31.156C458.334 32.212 457.986 33.028 457.29 33.604C456.618 34.18 455.85 34.468 454.986 34.468C454.122 34.468 453.342 34.18 452.646 33.604C451.974 33.028 451.638 32.212 451.638 31.156C451.638 30.1 451.974 29.284 452.646 28.708C453.342 28.132 454.122 27.844 454.986 27.844C455.85 27.844 456.618 28.132 457.29 28.708C457.986 29.284 458.334 30.1 458.334 31.156ZM471.729 28.528C471.777 29.104 471.801 29.512 471.801 29.752C471.825 29.992 471.837 30.196 471.837 30.364C471.837 31.084 471.765 31.852 471.621 32.668C471.501 33.46 471.321 34.264 471.081 35.08C470.841 35.896 470.541 36.712 470.181 37.528C469.821 38.344 469.413 39.124 468.957 39.868L464.745 38.824C465.297 37.24 465.681 35.752 465.897 34.36C466.113 32.968 466.221 31.816 466.221 30.904C466.221 30.76 466.209 30.58 466.185 30.364C466.185 30.124 466.173 29.884 466.149 29.644C466.149 29.404 466.137 29.176 466.113 28.96C466.113 28.744 466.113 28.6 466.113 28.528H471.729ZM483.981 10.348L489.345 9.484V15.064H495.789V19.528H489.345V26.188C489.345 27.316 489.537 28.216 489.921 28.888C490.329 29.56 491.133 29.896 492.333 29.896C492.909 29.896 493.497 29.848 494.097 29.752C494.721 29.632 495.285 29.476 495.789 29.284L496.545 33.46C495.897 33.724 495.177 33.952 494.385 34.144C493.593 34.336 492.621 34.432 491.469 34.432C490.005 34.432 488.793 34.24 487.833 33.856C486.873 33.448 486.105 32.896 485.529 32.2C484.953 31.48 484.545 30.616 484.305 29.608C484.089 28.6 483.981 27.484 483.981 26.26V10.348ZM500.157 34V6.928L505.521 6.064V15.136C505.881 15.016 506.337 14.908 506.889 14.812C507.465 14.692 508.017 14.632 508.545 14.632C510.081 14.632 511.353 14.848 512.361 15.28C513.393 15.688 514.209 16.276 514.809 17.044C515.433 17.812 515.865 18.724 516.105 19.78C516.369 20.836 516.501 22.012 516.501 23.308V34H511.137V23.956C511.137 22.228 510.909 21.004 510.453 20.284C510.021 19.564 509.205 19.204 508.005 19.204C507.525 19.204 507.069 19.252 506.637 19.348C506.229 19.42 505.857 19.504 505.521 19.6V34H500.157ZM526.72 34H521.356V15.064H526.72V34ZM527.224 9.592C527.224 10.576 526.9 11.356 526.252 11.932C525.628 12.484 524.884 12.76 524.02 12.76C523.156 12.76 522.4 12.484 521.752 11.932C521.128 11.356 520.816 10.576 520.816 9.592C520.816 8.608 521.128 7.84 521.752 7.288C522.4 6.712 523.156 6.424 524.02 6.424C524.884 6.424 525.628 6.712 526.252 7.288C526.9 7.84 527.224 8.608 527.224 9.592ZM537.198 30.148C538.182 30.148 538.878 30.052 539.286 29.86C539.694 29.668 539.898 29.296 539.898 28.744C539.898 28.312 539.634 27.94 539.106 27.628C538.578 27.292 537.774 26.92 536.694 26.512C535.854 26.2 535.086 25.876 534.39 25.54C533.718 25.204 533.142 24.808 532.662 24.352C532.182 23.872 531.81 23.308 531.546 22.66C531.282 22.012 531.15 21.232 531.15 20.32C531.15 18.544 531.81 17.14 533.13 16.108C534.45 15.076 536.262 14.56 538.566 14.56C539.718 14.56 540.822 14.668 541.878 14.884C542.934 15.076 543.774 15.292 544.398 15.532L543.462 19.708C542.838 19.492 542.154 19.3 541.41 19.132C540.69 18.964 539.874 18.88 538.962 18.88C537.282 18.88 536.442 19.348 536.442 20.284C536.442 20.5 536.478 20.692 536.55 20.86C536.622 21.028 536.766 21.196 536.982 21.364C537.198 21.508 537.486 21.676 537.846 21.868C538.23 22.036 538.71 22.228 539.286 22.444C540.462 22.876 541.434 23.308 542.202 23.74C542.97 24.148 543.57 24.604 544.002 25.108C544.458 25.588 544.77 26.128 544.938 26.728C545.13 27.328 545.226 28.024 545.226 28.816C545.226 30.688 544.518 32.104 543.102 33.064C541.71 34.024 539.73 34.504 537.162 34.504C535.482 34.504 534.078 34.36 532.95 34.072C531.846 33.784 531.078 33.544 530.646 33.352L531.546 28.996C532.458 29.356 533.394 29.644 534.354 29.86C535.314 30.052 536.262 30.148 537.198 30.148ZM563.247 34H557.883V15.064H563.247V34ZM563.751 9.592C563.751 10.576 563.427 11.356 562.779 11.932C562.155 12.484 561.411 12.76 560.547 12.76C559.683 12.76 558.927 12.484 558.279 11.932C557.655 11.356 557.343 10.576 557.343 9.592C557.343 8.608 557.655 7.84 558.279 7.288C558.927 6.712 559.683 6.424 560.547 6.424C561.411 6.424 562.155 6.712 562.779 7.288C563.427 7.84 563.751 8.608 563.751 9.592ZM573.726 30.148C574.71 30.148 575.406 30.052 575.814 29.86C576.222 29.668 576.426 29.296 576.426 28.744C576.426 28.312 576.162 27.94 575.634 27.628C575.106 27.292 574.302 26.92 573.222 26.512C572.382 26.2 571.614 25.876 570.918 25.54C570.246 25.204 569.67 24.808 569.19 24.352C568.71 23.872 568.338 23.308 568.074 22.66C567.81 22.012 567.678 21.232 567.678 20.32C567.678 18.544 568.338 17.14 569.658 16.108C570.978 15.076 572.79 14.56 575.094 14.56C576.246 14.56 577.35 14.668 578.406 14.884C579.462 15.076 580.302 15.292 580.926 15.532L579.99 19.708C579.366 19.492 578.682 19.3 577.938 19.132C577.218 18.964 576.402 18.88 575.49 18.88C573.81 18.88 572.97 19.348 572.97 20.284C572.97 20.5 573.006 20.692 573.078 20.86C573.15 21.028 573.294 21.196 573.51 21.364C573.726 21.508 574.014 21.676 574.374 21.868C574.758 22.036 575.238 22.228 575.814 22.444C576.99 22.876 577.962 23.308 578.73 23.74C579.498 24.148 580.098 24.604 580.53 25.108C580.986 25.588 581.298 26.128 581.466 26.728C581.658 27.328 581.754 28.024 581.754 28.816C581.754 30.688 581.046 32.104 579.63 33.064C578.238 34.024 576.258 34.504 573.69 34.504C572.01 34.504 570.606 34.36 569.478 34.072C568.374 33.784 567.606 33.544 567.174 33.352L568.074 28.996C568.986 29.356 569.922 29.644 570.882 29.86C571.842 30.052 572.79 30.148 573.726 30.148ZM605.931 23.128C605.451 24.952 604.935 26.764 604.383 28.564C603.855 30.364 603.291 32.176 602.691 34H598.515C598.083 32.992 597.615 31.792 597.111 30.4C596.607 29.008 596.079 27.496 595.527 25.864C594.999 24.208 594.447 22.468 593.871 20.644C593.319 18.796 592.779 16.936 592.251 15.064H597.903C598.095 15.928 598.299 16.876 598.515 17.908C598.755 18.916 598.995 19.96 599.235 21.04C599.499 22.12 599.763 23.212 600.027 24.316C600.315 25.396 600.603 26.44 600.891 27.448C601.203 26.392 601.503 25.312 601.791 24.208C602.103 23.104 602.391 22.024 602.655 20.968C602.943 19.888 603.207 18.856 603.447 17.872C603.711 16.864 603.939 15.928 604.131 15.064H608.019C608.211 15.928 608.427 16.864 608.667 17.872C608.907 18.856 609.159 19.888 609.423 20.968C609.687 22.024 609.963 23.104 610.251 24.208C610.539 25.312 610.839 26.392 611.151 27.448C611.439 26.44 611.727 25.396 612.015 24.316C612.303 23.212 612.567 22.12 612.807 21.04C613.071 19.96 613.311 18.916 613.527 17.908C613.767 16.876 613.983 15.928 614.175 15.064H619.755C619.227 16.936 618.675 18.796 618.099 20.644C617.547 22.468 616.995 24.208 616.443 25.864C615.915 27.496 615.387 29.008 614.859 30.4C614.355 31.792 613.887 32.992 613.455 34H609.279C608.679 32.176 608.091 30.364 607.515 28.564C606.939 26.764 606.411 24.952 605.931 23.128ZM622.641 34V6.928L628.005 6.064V15.136C628.365 15.016 628.821 14.908 629.373 14.812C629.949 14.692 630.501 14.632 631.029 14.632C632.565 14.632 633.837 14.848 634.845 15.28C635.877 15.688 636.693 16.276 637.293 17.044C637.917 17.812 638.349 18.724 638.589 19.78C638.853 20.836 638.985 22.012 638.985 23.308V34H633.621V23.956C633.621 22.228 633.393 21.004 632.937 20.284C632.505 19.564 631.689 19.204 630.489 19.204C630.009 19.204 629.553 19.252 629.121 19.348C628.713 19.42 628.341 19.504 628.005 19.6V34H622.641ZM660.09 15.064C659.01 18.712 657.882 22.132 656.706 25.324C655.53 28.516 654.246 31.612 652.854 34.612C652.35 35.692 651.846 36.604 651.342 37.348C650.838 38.116 650.286 38.74 649.686 39.22C649.086 39.724 648.402 40.084 647.634 40.3C646.89 40.54 646.014 40.66 645.006 40.66C644.166 40.66 643.386 40.576 642.666 40.408C641.97 40.264 641.394 40.096 640.938 39.904L641.874 35.62C642.426 35.812 642.918 35.944 643.35 36.016C643.782 36.088 644.238 36.124 644.718 36.124C645.678 36.124 646.41 35.86 646.914 35.332C647.442 34.828 647.886 34.12 648.246 33.208C647.022 30.808 645.798 28.12 644.574 25.144C643.35 22.144 642.198 18.784 641.118 15.064H646.806C647.046 16 647.322 17.02 647.634 18.124C647.97 19.204 648.318 20.308 648.678 21.436C649.038 22.54 649.398 23.62 649.758 24.676C650.142 25.732 650.502 26.692 650.838 27.556C651.15 26.692 651.474 25.732 651.81 24.676C652.146 23.62 652.47 22.54 652.782 21.436C653.118 20.308 653.43 19.204 653.718 18.124C654.03 17.02 654.306 16 654.546 15.064H660.09Z" fill="#030749"/>
<g clip-path="url(#clip0_117_35)">
<path fill-rule="evenodd" clip-rule="evenodd" d="M674.047 31.3783C679.274 41.402 679.948 52.9338 677.842 64.4159C674.662 81.756 665.146 98.9872 655.222 110.841C648.985 118.291 642.275 121.247 634.615 127.147C634.305 127.386 634.247 127.831 634.486 128.141C634.724 128.451 635.17 128.509 635.479 128.27C643.229 122.3 649.999 119.287 656.309 111.75C666.372 99.7315 676.011 82.2545 679.236 64.6713C681.4 52.8727 680.675 41.0244 675.304 30.7232C675.123 30.376 674.696 30.2409 674.349 30.4217C674.002 30.6026 673.866 31.0312 674.047 31.3783Z" fill="#E99557"/>
<path fill-rule="evenodd" clip-rule="evenodd" d="M634.056 129.862C634.084 129.842 634.272 129.707 634.441 129.611C635.139 129.209 636.426 128.617 638.093 127.966C643.688 125.789 653.552 122.968 660.082 124.812C660.459 124.918 660.85 124.698 660.956 124.322C661.062 123.945 660.845 123.553 660.468 123.447C653.674 121.528 643.4 124.38 637.579 126.646C636.799 126.95 636.097 127.242 635.496 127.511C636.577 125.813 637.699 124.147 638.843 122.489C642.138 117.717 644 112.906 644.965 107.144C645.031 106.759 644.769 106.392 644.384 106.329C643.999 106.263 643.632 106.525 643.569 106.91C642.639 112.456 640.849 117.09 637.678 121.683C636.183 123.85 634.724 126.035 633.344 128.277C633.207 128.5 632.857 129.083 632.82 129.173C632.613 129.683 632.982 129.97 633.066 130.029C633.107 130.058 633.631 130.388 634.056 129.862ZM632.985 128.933C632.974 128.948 632.96 128.962 632.948 128.979C632.958 128.965 632.971 128.951 632.985 128.933Z" fill="#E99557"/>
</g>
<defs>
<clipPath id="clip0_117_35">
<rect width="108.276" height="108.276" fill="white" transform="translate(632.236 14) rotate(21)"/>
</clipPath>
</defs>
</svg>
