<svg width="316" height="116" viewBox="0 0 316 116" fill="none" xmlns="http://www.w3.org/2000/svg">
<path d="M13.4159 8.144C13.6079 8.8 13.8159 9.544 14.0399 10.376C14.2799 11.192 14.5279 12.04 14.7839 12.92C15.0559 13.8 15.3279 14.68 15.5999 15.56C15.8719 16.44 16.1359 17.256 16.3919 18.008C16.5999 17.192 16.8079 16.304 17.0159 15.344C17.2399 14.384 17.4479 13.392 17.6399 12.368C17.8319 11.344 18.0159 10.328 18.1919 9.32C18.3839 8.296 18.5599 7.312 18.7199 6.368H22.6079C22.0479 9.152 21.3999 11.976 20.6639 14.84C19.9439 17.704 19.1599 20.424 18.3119 23H14.8799C14.3199 21.464 13.7759 19.856 13.2479 18.176C12.7199 16.48 12.1999 14.784 11.6879 13.088C11.1759 14.784 10.6639 16.48 10.1519 18.176C9.63994 19.856 9.10394 21.464 8.54394 23H5.11194C4.26394 20.424 3.47194 17.704 2.73594 14.84C2.01594 11.976 1.37594 9.152 0.815938 6.368H4.87194C5.03194 7.312 5.20794 8.296 5.39994 9.32C5.59194 10.328 5.79194 11.344 5.99994 12.368C6.20794 13.392 6.41594 14.384 6.62394 15.344C6.84794 16.304 7.07194 17.192 7.29594 18.008C7.58394 17.224 7.86394 16.392 8.13594 15.512C8.40794 14.632 8.67194 13.752 8.92794 12.872C9.18394 11.992 9.41594 11.144 9.62394 10.328C9.84794 9.512 10.0479 8.784 10.2239 8.144H13.4159ZM24.7738 23V4.952L28.3498 4.376V10.424C28.5898 10.344 28.8938 10.272 29.2617 10.208C29.6458 10.128 30.0138 10.088 30.3658 10.088C31.3898 10.088 32.2378 10.232 32.9098 10.52C33.5978 10.792 34.1418 11.184 34.5418 11.696C34.9578 12.208 35.2458 12.816 35.4058 13.52C35.5818 14.224 35.6698 15.008 35.6698 15.872V23H32.0938V16.304C32.0938 15.152 31.9418 14.336 31.6378 13.856C31.3498 13.376 30.8058 13.136 30.0058 13.136C29.6858 13.136 29.3818 13.168 29.0938 13.232C28.8218 13.28 28.5738 13.336 28.3498 13.4V23H24.7738ZM49.7396 10.376C49.0196 12.808 48.2676 15.088 47.4836 17.216C46.6996 19.344 45.8436 21.408 44.9156 23.408C44.5796 24.128 44.2436 24.736 43.9076 25.232C43.5716 25.744 43.2036 26.16 42.8036 26.48C42.4036 26.816 41.9476 27.056 41.4356 27.2C40.9396 27.36 40.3556 27.44 39.6836 27.44C39.1236 27.44 38.6036 27.384 38.1236 27.272C37.6596 27.176 37.2756 27.064 36.9716 26.936L37.5956 24.08C37.9636 24.208 38.2916 24.296 38.5796 24.344C38.8676 24.392 39.1716 24.416 39.4916 24.416C40.1316 24.416 40.6196 24.24 40.9556 23.888C41.3076 23.552 41.6036 23.08 41.8436 22.472C41.0276 20.872 40.2116 19.08 39.3956 17.096C38.5796 15.096 37.8116 12.856 37.0916 10.376H40.8836C41.0436 11 41.2276 11.68 41.4356 12.416C41.6596 13.136 41.8916 13.872 42.1316 14.624C42.3716 15.36 42.6116 16.08 42.8516 16.784C43.1076 17.488 43.3476 18.128 43.5716 18.704C43.7796 18.128 43.9956 17.488 44.2196 16.784C44.4436 16.08 44.6596 15.36 44.8676 14.624C45.0916 13.872 45.2996 13.136 45.4916 12.416C45.6996 11.68 45.8836 11 46.0436 10.376H49.7396ZM61.0462 20.432C61.7022 20.432 62.1662 20.368 62.4382 20.24C62.7102 20.112 62.8462 19.864 62.8462 19.496C62.8462 19.208 62.6702 18.96 62.3182 18.752C61.9662 18.528 61.4302 18.28 60.7102 18.008C60.1502 17.8 59.6382 17.584 59.1742 17.36C58.7262 17.136 58.3422 16.872 58.0222 16.568C57.7022 16.248 57.4542 15.872 57.2782 15.44C57.1022 15.008 57.0142 14.488 57.0142 13.88C57.0142 12.696 57.4542 11.76 58.3342 11.072C59.2142 10.384 60.4222 10.04 61.9582 10.04C62.7262 10.04 63.4622 10.112 64.1662 10.256C64.8702 10.384 65.4302 10.528 65.8462 10.688L65.2222 13.472C64.8062 13.328 64.3502 13.2 63.8542 13.088C63.3742 12.976 62.8302 12.92 62.2222 12.92C61.1022 12.92 60.5422 13.232 60.5422 13.856C60.5422 14 60.5662 14.128 60.6142 14.24C60.6622 14.352 60.7582 14.464 60.9022 14.576C61.0462 14.672 61.2382 14.784 61.4782 14.912C61.7342 15.024 62.0542 15.152 62.4382 15.296C63.2222 15.584 63.8702 15.872 64.3822 16.16C64.8942 16.432 65.2942 16.736 65.5822 17.072C65.8862 17.392 66.0942 17.752 66.2062 18.152C66.3342 18.552 66.3982 19.016 66.3982 19.544C66.3982 20.792 65.9262 21.736 64.9822 22.376C64.0542 23.016 62.7342 23.336 61.0222 23.336C59.9022 23.336 58.9662 23.24 58.2142 23.048C57.4782 22.856 56.9662 22.696 56.6782 22.568L57.2782 19.664C57.8862 19.904 58.5102 20.096 59.1502 20.24C59.7902 20.368 60.4222 20.432 61.0462 20.432ZM69.0706 23V4.952L72.6466 4.376V10.424C72.8866 10.344 73.1906 10.272 73.5586 10.208C73.9426 10.128 74.3106 10.088 74.6626 10.088C75.6866 10.088 76.5346 10.232 77.2066 10.52C77.8946 10.792 78.4386 11.184 78.8386 11.696C79.2546 12.208 79.5426 12.816 79.7026 13.52C79.8786 14.224 79.9666 15.008 79.9666 15.872V23H76.3906V16.304C76.3906 15.152 76.2386 14.336 75.9346 13.856C75.6466 13.376 75.1026 13.136 74.3026 13.136C73.9826 13.136 73.6786 13.168 73.3906 13.232C73.1186 13.28 72.8706 13.336 72.6466 13.4V23H69.0706ZM95.0114 16.664C95.0114 17.656 94.8674 18.568 94.5794 19.4C94.2914 20.216 93.8754 20.92 93.3314 21.512C92.7874 22.088 92.1314 22.536 91.3634 22.856C90.6114 23.176 89.7634 23.336 88.8194 23.336C87.8914 23.336 87.0434 23.176 86.2754 22.856C85.5234 22.536 84.8754 22.088 84.3314 21.512C83.7874 20.92 83.3634 20.216 83.0594 19.4C82.7554 18.568 82.6034 17.656 82.6034 16.664C82.6034 15.672 82.7554 14.768 83.0594 13.952C83.3794 13.136 83.8114 12.44 84.3554 11.864C84.9154 11.288 85.5714 10.84 86.3234 10.52C87.0914 10.2 87.9234 10.04 88.8194 10.04C89.7314 10.04 90.5634 10.2 91.3154 10.52C92.0834 10.84 92.7394 11.288 93.2834 11.864C93.8274 12.44 94.2514 13.136 94.5554 13.952C94.8594 14.768 95.0114 15.672 95.0114 16.664ZM91.3634 16.664C91.3634 15.56 91.1394 14.696 90.6914 14.072C90.2594 13.432 89.6354 13.112 88.8194 13.112C88.0034 13.112 87.3714 13.432 86.9234 14.072C86.4754 14.696 86.2514 15.56 86.2514 16.664C86.2514 17.768 86.4754 18.648 86.9234 19.304C87.3714 19.944 88.0034 20.264 88.8194 20.264C89.6354 20.264 90.2594 19.944 90.6914 19.304C91.1394 18.648 91.3634 17.768 91.3634 16.664ZM108.558 22.568C107.95 22.744 107.166 22.904 106.206 23.048C105.246 23.208 104.238 23.288 103.182 23.288C102.11 23.288 101.214 23.144 100.494 22.856C99.7896 22.568 99.2296 22.168 98.8136 21.656C98.3976 21.128 98.1016 20.504 97.9256 19.784C97.7496 19.064 97.6616 18.272 97.6616 17.408V10.376H101.238V16.976C101.238 18.128 101.39 18.96 101.694 19.472C101.998 19.984 102.566 20.24 103.398 20.24C103.654 20.24 103.926 20.232 104.214 20.216C104.502 20.184 104.758 20.152 104.982 20.12V10.376H108.558V22.568ZM116.954 23.24C115.914 23.224 115.066 23.112 114.41 22.904C113.77 22.696 113.258 22.408 112.874 22.04C112.506 21.656 112.25 21.2 112.106 20.672C111.978 20.128 111.914 19.52 111.914 18.848V4.952L115.49 4.376V18.128C115.49 18.448 115.514 18.736 115.562 18.992C115.61 19.248 115.698 19.464 115.826 19.64C115.97 19.816 116.17 19.96 116.426 20.072C116.682 20.184 117.026 20.256 117.458 20.288L116.954 23.24ZM122.556 16.592C122.556 17.696 122.804 18.584 123.3 19.256C123.796 19.928 124.532 20.264 125.508 20.264C125.828 20.264 126.124 20.256 126.396 20.24C126.668 20.208 126.892 20.176 127.068 20.144V13.64C126.844 13.496 126.548 13.376 126.18 13.28C125.828 13.184 125.468 13.136 125.1 13.136C123.404 13.136 122.556 14.288 122.556 16.592ZM130.644 22.592C130.324 22.688 129.956 22.784 129.54 22.88C129.124 22.96 128.684 23.032 128.22 23.096C127.772 23.16 127.308 23.208 126.828 23.24C126.364 23.288 125.916 23.312 125.484 23.312C124.444 23.312 123.516 23.16 122.7 22.856C121.884 22.552 121.196 22.12 120.636 21.56C120.076 20.984 119.644 20.296 119.34 19.496C119.052 18.68 118.908 17.768 118.908 16.76C118.908 15.736 119.036 14.816 119.292 14C119.548 13.168 119.916 12.464 120.396 11.888C120.876 11.312 121.46 10.872 122.148 10.568C122.852 10.264 123.652 10.112 124.548 10.112C125.044 10.112 125.484 10.16 125.868 10.256C126.268 10.352 126.668 10.488 127.068 10.664V4.952L130.644 4.376V22.592ZM150.966 10.376C150.246 12.808 149.494 15.088 148.71 17.216C147.926 19.344 147.07 21.408 146.142 23.408C145.806 24.128 145.47 24.736 145.134 25.232C144.798 25.744 144.43 26.16 144.03 26.48C143.63 26.816 143.174 27.056 142.662 27.2C142.166 27.36 141.582 27.44 140.91 27.44C140.35 27.44 139.83 27.384 139.35 27.272C138.886 27.176 138.502 27.064 138.198 26.936L138.822 24.08C139.19 24.208 139.518 24.296 139.806 24.344C140.094 24.392 140.398 24.416 140.718 24.416C141.358 24.416 141.846 24.24 142.182 23.888C142.534 23.552 142.83 23.08 143.07 22.472C142.254 20.872 141.438 19.08 140.622 17.096C139.806 15.096 139.038 12.856 138.318 10.376H142.11C142.27 11 142.454 11.68 142.662 12.416C142.886 13.136 143.118 13.872 143.358 14.624C143.598 15.36 143.838 16.08 144.078 16.784C144.334 17.488 144.574 18.128 144.798 18.704C145.006 18.128 145.222 17.488 145.446 16.784C145.67 16.08 145.886 15.36 146.094 14.624C146.318 13.872 146.526 13.136 146.718 12.416C146.926 11.68 147.11 11 147.27 10.376H150.966ZM164.363 16.664C164.363 17.656 164.219 18.568 163.931 19.4C163.643 20.216 163.227 20.92 162.683 21.512C162.139 22.088 161.483 22.536 160.715 22.856C159.963 23.176 159.115 23.336 158.171 23.336C157.243 23.336 156.395 23.176 155.627 22.856C154.875 22.536 154.227 22.088 153.683 21.512C153.139 20.92 152.715 20.216 152.411 19.4C152.107 18.568 151.955 17.656 151.955 16.664C151.955 15.672 152.107 14.768 152.411 13.952C152.731 13.136 153.163 12.44 153.707 11.864C154.267 11.288 154.923 10.84 155.675 10.52C156.443 10.2 157.275 10.04 158.171 10.04C159.083 10.04 159.915 10.2 160.667 10.52C161.435 10.84 162.091 11.288 162.635 11.864C163.179 12.44 163.603 13.136 163.907 13.952C164.211 14.768 164.363 15.672 164.363 16.664ZM160.715 16.664C160.715 15.56 160.491 14.696 160.043 14.072C159.611 13.432 158.987 13.112 158.171 13.112C157.355 13.112 156.723 13.432 156.275 14.072C155.827 14.696 155.603 15.56 155.603 16.664C155.603 17.768 155.827 18.648 156.275 19.304C156.723 19.944 157.355 20.264 158.171 20.264C158.987 20.264 159.611 19.944 160.043 19.304C160.491 18.648 160.715 17.768 160.715 16.664ZM177.909 22.568C177.301 22.744 176.517 22.904 175.557 23.048C174.597 23.208 173.589 23.288 172.533 23.288C171.461 23.288 170.565 23.144 169.845 22.856C169.141 22.568 168.581 22.168 168.165 21.656C167.749 21.128 167.453 20.504 167.277 19.784C167.101 19.064 167.013 18.272 167.013 17.408V10.376H170.589V16.976C170.589 18.128 170.741 18.96 171.045 19.472C171.349 19.984 171.917 20.24 172.749 20.24C173.005 20.24 173.277 20.232 173.565 20.216C173.853 20.184 174.109 20.152 174.333 20.12V10.376H177.909V22.568ZM197.808 22.568C197.2 22.744 196.416 22.904 195.456 23.048C194.496 23.208 193.488 23.288 192.432 23.288C191.36 23.288 190.464 23.144 189.744 22.856C189.04 22.568 188.48 22.168 188.064 21.656C187.648 21.128 187.352 20.504 187.176 19.784C187 19.064 186.912 18.272 186.912 17.408V10.376H190.488V16.976C190.488 18.128 190.64 18.96 190.944 19.472C191.248 19.984 191.816 20.24 192.648 20.24C192.904 20.24 193.176 20.232 193.464 20.216C193.752 20.184 194.008 20.152 194.232 20.12V10.376H197.808V22.568ZM204.788 20.432C205.444 20.432 205.908 20.368 206.18 20.24C206.452 20.112 206.588 19.864 206.588 19.496C206.588 19.208 206.412 18.96 206.06 18.752C205.708 18.528 205.172 18.28 204.452 18.008C203.892 17.8 203.38 17.584 202.916 17.36C202.468 17.136 202.084 16.872 201.764 16.568C201.444 16.248 201.196 15.872 201.02 15.44C200.844 15.008 200.756 14.488 200.756 13.88C200.756 12.696 201.196 11.76 202.076 11.072C202.956 10.384 204.164 10.04 205.7 10.04C206.468 10.04 207.204 10.112 207.908 10.256C208.612 10.384 209.172 10.528 209.588 10.688L208.964 13.472C208.548 13.328 208.092 13.2 207.596 13.088C207.116 12.976 206.572 12.92 205.964 12.92C204.844 12.92 204.284 13.232 204.284 13.856C204.284 14 204.308 14.128 204.356 14.24C204.404 14.352 204.5 14.464 204.644 14.576C204.788 14.672 204.98 14.784 205.22 14.912C205.476 15.024 205.796 15.152 206.18 15.296C206.964 15.584 207.612 15.872 208.124 16.16C208.636 16.432 209.036 16.736 209.324 17.072C209.628 17.392 209.836 17.752 209.948 18.152C210.076 18.552 210.14 19.016 210.14 19.544C210.14 20.792 209.668 21.736 208.724 22.376C207.796 23.016 206.476 23.336 204.764 23.336C203.644 23.336 202.708 23.24 201.956 23.048C201.22 22.856 200.708 22.696 200.42 22.568L201.02 19.664C201.628 19.904 202.252 20.096 202.892 20.24C203.532 20.368 204.164 20.432 204.788 20.432ZM212.213 16.784C212.213 15.664 212.381 14.688 212.717 13.856C213.069 13.008 213.525 12.304 214.085 11.744C214.645 11.184 215.285 10.76 216.005 10.472C216.741 10.184 217.493 10.04 218.261 10.04C220.053 10.04 221.469 10.592 222.509 11.696C223.549 12.784 224.069 14.392 224.069 16.52C224.069 16.728 224.061 16.96 224.045 17.216C224.029 17.456 224.013 17.672 223.997 17.864H215.885C215.965 18.6 216.309 19.184 216.917 19.616C217.525 20.048 218.341 20.264 219.365 20.264C220.021 20.264 220.661 20.208 221.285 20.096C221.925 19.968 222.445 19.816 222.845 19.64L223.325 22.544C223.133 22.64 222.877 22.736 222.557 22.832C222.237 22.928 221.877 23.008 221.477 23.072C221.093 23.152 220.677 23.216 220.229 23.264C219.781 23.312 219.333 23.336 218.885 23.336C217.749 23.336 216.757 23.168 215.909 22.832C215.077 22.496 214.381 22.04 213.821 21.464C213.277 20.872 212.869 20.176 212.597 19.376C212.341 18.576 212.213 17.712 212.213 16.784ZM220.613 15.416C220.597 15.112 220.541 14.816 220.445 14.528C220.365 14.24 220.229 13.984 220.037 13.76C219.861 13.536 219.629 13.352 219.341 13.208C219.069 13.064 218.725 12.992 218.309 12.992C217.909 12.992 217.565 13.064 217.277 13.208C216.989 13.336 216.749 13.512 216.557 13.736C216.365 13.96 216.213 14.224 216.101 14.528C216.005 14.816 215.933 15.112 215.885 15.416H220.613ZM240.418 23.336C237.714 23.336 235.65 22.584 234.226 21.08C232.818 19.576 232.114 17.44 232.114 14.672C232.114 13.296 232.33 12.072 232.762 11C233.194 9.912 233.786 9 234.538 8.264C235.29 7.512 236.186 6.944 237.226 6.56C238.266 6.176 239.394 5.984 240.61 5.984C241.314 5.984 241.954 6.04 242.53 6.152C243.106 6.248 243.61 6.368 244.042 6.512C244.474 6.64 244.834 6.776 245.122 6.92C245.41 7.064 245.618 7.176 245.746 7.256L244.666 10.28C244.154 10.008 243.554 9.776 242.866 9.584C242.194 9.392 241.426 9.296 240.562 9.296C239.986 9.296 239.418 9.392 238.858 9.584C238.314 9.776 237.826 10.088 237.394 10.52C236.978 10.936 236.642 11.48 236.386 12.152C236.13 12.824 236.002 13.64 236.002 14.6C236.002 15.368 236.082 16.088 236.242 16.76C236.418 17.416 236.69 17.984 237.058 18.464C237.442 18.944 237.938 19.328 238.546 19.616C239.154 19.888 239.89 20.024 240.754 20.024C241.298 20.024 241.786 19.992 242.218 19.928C242.65 19.864 243.034 19.792 243.37 19.712C243.706 19.616 244.002 19.512 244.258 19.4C244.514 19.288 244.746 19.184 244.954 19.088L245.986 22.088C245.458 22.408 244.714 22.696 243.754 22.952C242.794 23.208 241.682 23.336 240.418 23.336ZM253.215 20.504C253.567 20.504 253.903 20.496 254.223 20.48C254.543 20.464 254.799 20.44 254.991 20.408V17.696C254.847 17.664 254.631 17.632 254.343 17.6C254.055 17.568 253.791 17.552 253.551 17.552C253.215 17.552 252.895 17.576 252.591 17.624C252.303 17.656 252.047 17.728 251.823 17.84C251.599 17.952 251.423 18.104 251.295 18.296C251.167 18.488 251.103 18.728 251.103 19.016C251.103 19.576 251.287 19.968 251.655 20.192C252.039 20.4 252.559 20.504 253.215 20.504ZM252.927 10.04C253.983 10.04 254.863 10.16 255.567 10.4C256.271 10.64 256.831 10.984 257.247 11.432C257.679 11.88 257.983 12.424 258.159 13.064C258.335 13.704 258.423 14.416 258.423 15.2V22.64C257.911 22.752 257.199 22.88 256.287 23.024C255.375 23.184 254.271 23.264 252.975 23.264C252.159 23.264 251.415 23.192 250.743 23.048C250.087 22.904 249.519 22.672 249.039 22.352C248.559 22.016 248.191 21.584 247.935 21.056C247.679 20.528 247.551 19.88 247.551 19.112C247.551 18.376 247.695 17.752 247.983 17.24C248.287 16.728 248.687 16.32 249.183 16.016C249.679 15.712 250.247 15.496 250.887 15.368C251.527 15.224 252.191 15.152 252.879 15.152C253.343 15.152 253.751 15.176 254.103 15.224C254.471 15.256 254.767 15.304 254.991 15.368V15.032C254.991 14.424 254.807 13.936 254.439 13.568C254.071 13.2 253.431 13.016 252.519 13.016C251.911 13.016 251.311 13.064 250.719 13.16C250.127 13.24 249.615 13.36 249.183 13.52L248.727 10.64C248.935 10.576 249.191 10.512 249.495 10.448C249.815 10.368 250.159 10.304 250.527 10.256C250.895 10.192 251.279 10.144 251.679 10.112C252.095 10.064 252.511 10.04 252.927 10.04ZM264.705 16.592C264.705 17.696 264.953 18.584 265.449 19.256C265.945 19.928 266.681 20.264 267.657 20.264C267.977 20.264 268.273 20.256 268.545 20.24C268.817 20.208 269.041 20.176 269.217 20.144V13.64C268.993 13.496 268.697 13.376 268.329 13.28C267.977 13.184 267.617 13.136 267.249 13.136C265.553 13.136 264.705 14.288 264.705 16.592ZM272.793 22.592C272.473 22.688 272.105 22.784 271.689 22.88C271.273 22.96 270.833 23.032 270.369 23.096C269.921 23.16 269.457 23.208 268.977 23.24C268.513 23.288 268.065 23.312 267.633 23.312C266.593 23.312 265.665 23.16 264.849 22.856C264.033 22.552 263.345 22.12 262.785 21.56C262.225 20.984 261.793 20.296 261.489 19.496C261.201 18.68 261.057 17.768 261.057 16.76C261.057 15.736 261.185 14.816 261.441 14C261.697 13.168 262.065 12.464 262.545 11.888C263.025 11.312 263.609 10.872 264.297 10.568C265.001 10.264 265.801 10.112 266.697 10.112C267.193 10.112 267.633 10.16 268.017 10.256C268.417 10.352 268.817 10.488 269.217 10.664V4.952L272.793 4.376V22.592ZM275.541 16.784C275.541 15.664 275.709 14.688 276.045 13.856C276.397 13.008 276.853 12.304 277.413 11.744C277.973 11.184 278.613 10.76 279.333 10.472C280.069 10.184 280.821 10.04 281.589 10.04C283.381 10.04 284.797 10.592 285.837 11.696C286.877 12.784 287.397 14.392 287.397 16.52C287.397 16.728 287.389 16.96 287.373 17.216C287.357 17.456 287.341 17.672 287.325 17.864H279.213C279.293 18.6 279.637 19.184 280.245 19.616C280.853 20.048 281.669 20.264 282.693 20.264C283.349 20.264 283.989 20.208 284.613 20.096C285.253 19.968 285.773 19.816 286.173 19.64L286.653 22.544C286.461 22.64 286.205 22.736 285.885 22.832C285.565 22.928 285.205 23.008 284.805 23.072C284.421 23.152 284.005 23.216 283.557 23.264C283.109 23.312 282.661 23.336 282.213 23.336C281.077 23.336 280.085 23.168 279.237 22.832C278.405 22.496 277.709 22.04 277.149 21.464C276.605 20.872 276.197 20.176 275.925 19.376C275.669 18.576 275.541 17.712 275.541 16.784ZM283.941 15.416C283.925 15.112 283.869 14.816 283.773 14.528C283.693 14.24 283.557 13.984 283.365 13.76C283.189 13.536 282.957 13.352 282.669 13.208C282.397 13.064 282.053 12.992 281.637 12.992C281.237 12.992 280.893 13.064 280.605 13.208C280.317 13.336 280.077 13.512 279.885 13.736C279.693 13.96 279.541 14.224 279.429 14.528C279.333 14.816 279.261 15.112 279.213 15.416H283.941ZM297.765 13.544C297.445 13.464 297.069 13.384 296.637 13.304C296.205 13.208 295.741 13.16 295.245 13.16C295.021 13.16 294.749 13.184 294.429 13.232C294.125 13.264 293.893 13.304 293.733 13.352V23H290.157V11.048C290.797 10.824 291.549 10.616 292.413 10.424C293.293 10.216 294.269 10.112 295.341 10.112C295.533 10.112 295.765 10.128 296.037 10.16C296.309 10.176 296.581 10.208 296.853 10.256C297.125 10.288 297.397 10.336 297.669 10.4C297.941 10.448 298.173 10.512 298.365 10.592L297.765 13.544ZM303.66 9.032C303.084 9.032 302.54 9.104 302.028 9.248C301.516 9.392 300.948 9.624 300.324 9.944L299.316 7.232C299.94 6.832 300.676 6.528 301.524 6.32C302.372 6.096 303.204 5.984 304.02 5.984C305.044 5.984 305.884 6.12 306.54 6.392C307.212 6.664 307.74 7.008 308.124 7.424C308.508 7.84 308.772 8.296 308.916 8.792C309.076 9.288 309.156 9.76 309.156 10.208C309.156 10.656 309.084 11.072 308.94 11.456C308.812 11.824 308.644 12.168 308.436 12.488C308.228 12.808 307.988 13.112 307.716 13.4C307.444 13.688 307.18 13.96 306.924 14.216C306.732 14.408 306.532 14.616 306.324 14.84C306.116 15.048 305.924 15.272 305.748 15.512C305.588 15.752 305.452 16.008 305.34 16.28C305.228 16.536 305.172 16.8 305.172 17.072C305.172 17.136 305.172 17.232 305.172 17.36C305.172 17.488 305.18 17.6 305.196 17.696H302.028C301.996 17.536 301.972 17.36 301.956 17.168C301.956 16.96 301.956 16.784 301.956 16.64C301.956 16.192 302.012 15.792 302.124 15.44C302.236 15.072 302.38 14.736 302.556 14.432C302.748 14.112 302.964 13.816 303.204 13.544C303.444 13.272 303.692 13.008 303.948 12.752C304.316 12.384 304.652 12.024 304.956 11.672C305.26 11.304 305.412 10.888 305.412 10.424C305.412 10.04 305.26 9.712 304.956 9.44C304.668 9.168 304.236 9.032 303.66 9.032ZM305.892 21.104C305.892 21.808 305.66 22.352 305.196 22.736C304.748 23.12 304.236 23.312 303.66 23.312C303.084 23.312 302.564 23.12 302.1 22.736C301.652 22.352 301.428 21.808 301.428 21.104C301.428 20.4 301.652 19.856 302.1 19.472C302.564 19.088 303.084 18.896 303.66 18.896C304.236 18.896 304.748 19.088 305.196 19.472C305.66 19.856 305.892 20.4 305.892 21.104ZM314.822 19.352C314.854 19.736 314.87 20.008 314.87 20.168C314.886 20.328 314.894 20.464 314.894 20.576C314.894 21.056 314.846 21.568 314.75 22.112C314.67 22.64 314.55 23.176 314.39 23.72C314.23 24.264 314.03 24.808 313.79 25.352C313.55 25.896 313.278 26.416 312.974 26.912L310.166 26.216C310.534 25.16 310.79 24.168 310.934 23.24C311.078 22.312 311.15 21.544 311.15 20.936C311.15 20.84 311.142 20.72 311.126 20.576C311.126 20.416 311.118 20.256 311.102 20.096C311.102 19.936 311.094 19.784 311.078 19.64C311.078 19.496 311.078 19.4 311.078 19.352H314.822ZM99.9584 35.232L103.534 34.656V38.376H107.83V41.352H103.534V45.792C103.534 46.544 103.662 47.144 103.918 47.592C104.19 48.04 104.726 48.264 105.526 48.264C105.91 48.264 106.302 48.232 106.702 48.168C107.118 48.088 107.494 47.984 107.83 47.856L108.334 50.64C107.902 50.816 107.422 50.968 106.894 51.096C106.366 51.224 105.718 51.288 104.95 51.288C103.974 51.288 103.166 51.16 102.526 50.904C101.886 50.632 101.374 50.264 100.99 49.8C100.606 49.32 100.334 48.744 100.174 48.072C100.03 47.4 99.9584 46.656 99.9584 45.84V35.232ZM110.743 51V32.952L114.319 32.376V38.424C114.559 38.344 114.863 38.272 115.23 38.208C115.615 38.128 115.983 38.088 116.335 38.088C117.359 38.088 118.207 38.232 118.879 38.52C119.567 38.792 120.111 39.184 120.511 39.696C120.927 40.208 121.215 40.816 121.375 41.52C121.551 42.224 121.639 43.008 121.639 43.872V51H118.063V44.304C118.063 43.152 117.911 42.336 117.607 41.856C117.319 41.376 116.775 41.136 115.975 41.136C115.655 41.136 115.351 41.168 115.062 41.232C114.791 41.28 114.543 41.336 114.319 41.4V51H110.743ZM128.451 51H124.875V38.376H128.451V51ZM128.787 34.728C128.787 35.384 128.571 35.904 128.139 36.288C127.723 36.656 127.227 36.84 126.651 36.84C126.075 36.84 125.571 36.656 125.139 36.288C124.723 35.904 124.515 35.384 124.515 34.728C124.515 34.072 124.723 33.56 125.139 33.192C125.571 32.808 126.075 32.616 126.651 32.616C127.227 32.616 127.723 32.808 128.139 33.192C128.571 33.56 128.787 34.072 128.787 34.728ZM135.437 48.432C136.093 48.432 136.557 48.368 136.829 48.24C137.101 48.112 137.237 47.864 137.237 47.496C137.237 47.208 137.061 46.96 136.709 46.752C136.357 46.528 135.821 46.28 135.101 46.008C134.541 45.8 134.029 45.584 133.565 45.36C133.117 45.136 132.733 44.872 132.413 44.568C132.093 44.248 131.845 43.872 131.669 43.44C131.493 43.008 131.405 42.488 131.405 41.88C131.405 40.696 131.845 39.76 132.725 39.072C133.605 38.384 134.813 38.04 136.349 38.04C137.117 38.04 137.853 38.112 138.557 38.256C139.261 38.384 139.821 38.528 140.237 38.688L139.613 41.472C139.197 41.328 138.741 41.2 138.245 41.088C137.765 40.976 137.221 40.92 136.613 40.92C135.493 40.92 134.933 41.232 134.933 41.856C134.933 42 134.957 42.128 135.005 42.24C135.053 42.352 135.149 42.464 135.293 42.576C135.437 42.672 135.629 42.784 135.869 42.912C136.125 43.024 136.445 43.152 136.829 43.296C137.613 43.584 138.261 43.872 138.773 44.16C139.285 44.432 139.685 44.736 139.973 45.072C140.277 45.392 140.485 45.752 140.597 46.152C140.725 46.552 140.789 47.016 140.789 47.544C140.789 48.792 140.317 49.736 139.373 50.376C138.445 51.016 137.125 51.336 135.413 51.336C134.293 51.336 133.357 51.24 132.605 51.048C131.869 50.856 131.357 50.696 131.069 50.568L131.669 47.664C132.277 47.904 132.901 48.096 133.541 48.24C134.181 48.368 134.813 48.432 135.437 48.432ZM152.803 51H149.227V38.376H152.803V51ZM153.139 34.728C153.139 35.384 152.923 35.904 152.491 36.288C152.075 36.656 151.579 36.84 151.003 36.84C150.427 36.84 149.923 36.656 149.491 36.288C149.075 35.904 148.867 35.384 148.867 34.728C148.867 34.072 149.075 33.56 149.491 33.192C149.923 32.808 150.427 32.616 151.003 32.616C151.579 32.616 152.075 32.808 152.491 33.192C152.923 33.56 153.139 34.072 153.139 34.728ZM159.788 48.432C160.444 48.432 160.908 48.368 161.18 48.24C161.452 48.112 161.588 47.864 161.588 47.496C161.588 47.208 161.412 46.96 161.06 46.752C160.708 46.528 160.172 46.28 159.452 46.008C158.892 45.8 158.38 45.584 157.916 45.36C157.468 45.136 157.084 44.872 156.764 44.568C156.444 44.248 156.196 43.872 156.02 43.44C155.844 43.008 155.756 42.488 155.756 41.88C155.756 40.696 156.196 39.76 157.076 39.072C157.956 38.384 159.164 38.04 160.7 38.04C161.468 38.04 162.204 38.112 162.908 38.256C163.612 38.384 164.172 38.528 164.588 38.688L163.964 41.472C163.548 41.328 163.092 41.2 162.596 41.088C162.116 40.976 161.572 40.92 160.964 40.92C159.844 40.92 159.284 41.232 159.284 41.856C159.284 42 159.308 42.128 159.356 42.24C159.404 42.352 159.5 42.464 159.644 42.576C159.788 42.672 159.98 42.784 160.22 42.912C160.476 43.024 160.796 43.152 161.18 43.296C161.964 43.584 162.612 43.872 163.124 44.16C163.636 44.432 164.036 44.736 164.324 45.072C164.628 45.392 164.836 45.752 164.948 46.152C165.076 46.552 165.14 47.016 165.14 47.544C165.14 48.792 164.668 49.736 163.724 50.376C162.796 51.016 161.476 51.336 159.764 51.336C158.644 51.336 157.708 51.24 156.956 51.048C156.22 50.856 155.708 50.696 155.42 50.568L156.02 47.664C156.628 47.904 157.252 48.096 157.892 48.24C158.532 48.368 159.164 48.432 159.788 48.432ZM181.258 43.752C180.938 44.968 180.594 46.176 180.226 47.376C179.874 48.576 179.498 49.784 179.098 51H176.314C176.026 50.328 175.714 49.528 175.378 48.6C175.042 47.672 174.69 46.664 174.322 45.576C173.97 44.472 173.602 43.312 173.218 42.096C172.85 40.864 172.49 39.624 172.138 38.376H175.906C176.034 38.952 176.17 39.584 176.314 40.272C176.474 40.944 176.634 41.64 176.794 42.36C176.97 43.08 177.146 43.808 177.322 44.544C177.514 45.264 177.706 45.96 177.898 46.632C178.106 45.928 178.306 45.208 178.498 44.472C178.706 43.736 178.898 43.016 179.074 42.312C179.266 41.592 179.442 40.904 179.602 40.248C179.778 39.576 179.93 38.952 180.058 38.376H182.65C182.778 38.952 182.922 39.576 183.082 40.248C183.242 40.904 183.41 41.592 183.586 42.312C183.762 43.016 183.946 43.736 184.138 44.472C184.33 45.208 184.53 45.928 184.738 46.632C184.93 45.96 185.122 45.264 185.314 44.544C185.506 43.808 185.682 43.08 185.842 42.36C186.018 41.64 186.178 40.944 186.322 40.272C186.482 39.584 186.626 38.952 186.754 38.376H190.474C190.122 39.624 189.754 40.864 189.37 42.096C189.002 43.312 188.634 44.472 188.266 45.576C187.914 46.664 187.562 47.672 187.21 48.6C186.874 49.528 186.562 50.328 186.274 51H183.49C183.09 49.784 182.698 48.576 182.314 47.376C181.93 46.176 181.578 44.968 181.258 43.752ZM192.399 51V32.952L195.975 32.376V38.424C196.215 38.344 196.519 38.272 196.887 38.208C197.271 38.128 197.639 38.088 197.991 38.088C199.015 38.088 199.863 38.232 200.535 38.52C201.223 38.792 201.767 39.184 202.167 39.696C202.583 40.208 202.871 40.816 203.031 41.52C203.207 42.224 203.295 43.008 203.295 43.872V51H199.719V44.304C199.719 43.152 199.567 42.336 199.263 41.856C198.975 41.376 198.431 41.136 197.631 41.136C197.311 41.136 197.007 41.168 196.719 41.232C196.447 41.28 196.199 41.336 195.975 41.4V51H192.399ZM217.365 38.376C216.645 40.808 215.893 43.088 215.109 45.216C214.325 47.344 213.469 49.408 212.541 51.408C212.205 52.128 211.869 52.736 211.533 53.232C211.197 53.744 210.829 54.16 210.429 54.48C210.029 54.816 209.573 55.056 209.061 55.2C208.565 55.36 207.981 55.44 207.309 55.44C206.749 55.44 206.229 55.384 205.749 55.272C205.285 55.176 204.901 55.064 204.597 54.936L205.221 52.08C205.589 52.208 205.917 52.296 206.205 52.344C206.493 52.392 206.797 52.416 207.117 52.416C207.757 52.416 208.245 52.24 208.581 51.888C208.933 51.552 209.229 51.08 209.469 50.472C208.653 48.872 207.837 47.08 207.021 45.096C206.205 43.096 205.437 40.856 204.717 38.376H208.509C208.669 39 208.853 39.68 209.061 40.416C209.285 41.136 209.517 41.872 209.757 42.624C209.997 43.36 210.237 44.08 210.477 44.784C210.733 45.488 210.973 46.128 211.197 46.704C211.405 46.128 211.621 45.488 211.845 44.784C212.069 44.08 212.285 43.36 212.493 42.624C212.717 41.872 212.925 41.136 213.117 40.416C213.325 39.68 213.509 39 213.669 38.376H217.365Z" fill="#030749"/>
<g clip-path="url(#clip0_119_36)">
<path fill-rule="evenodd" clip-rule="evenodd" d="M224.792 50.2247C227.566 55.5456 227.924 61.6669 226.806 67.7619C225.118 76.9665 220.067 86.1133 214.799 92.4054C211.488 96.3603 207.927 97.9292 203.86 101.061C203.696 101.188 203.665 101.424 203.792 101.589C203.918 101.753 204.155 101.784 204.319 101.657C208.433 98.4885 212.026 96.8891 215.376 92.8882C220.717 86.5084 225.834 77.2311 227.546 67.8975C228.695 61.6345 228.31 55.3451 225.459 49.877C225.363 49.6927 225.137 49.6209 224.952 49.7169C224.768 49.8129 224.696 50.0405 224.792 50.2247Z" fill="#E99557"/>
<path fill-rule="evenodd" clip-rule="evenodd" d="M203.563 102.502C203.579 102.492 203.678 102.42 203.768 102.369C204.139 102.156 204.821 101.841 205.706 101.496C208.676 100.34 213.913 98.8428 217.379 99.8216C217.579 99.8781 217.786 99.7615 217.843 99.5615C217.899 99.3615 217.784 99.1535 217.584 99.0971C213.977 98.0786 208.523 99.5922 205.434 100.795C205.02 100.957 204.647 101.112 204.328 101.254C204.902 100.353 205.497 99.4687 206.105 98.5886C207.854 96.0554 208.842 93.5017 209.355 90.443C209.389 90.2387 209.25 90.0441 209.046 90.0103C208.842 89.9757 208.647 90.1145 208.613 90.319C208.12 93.263 207.169 95.7225 205.486 98.1609C204.693 99.3113 203.918 100.471 203.186 101.661C203.113 101.779 202.927 102.089 202.908 102.137C202.798 102.408 202.993 102.56 203.038 102.591C203.06 102.607 203.338 102.782 203.563 102.502ZM202.995 102.01C202.989 102.017 202.982 102.025 202.976 102.034C202.98 102.026 202.987 102.019 202.995 102.01Z" fill="#E99557"/>
</g>
<defs>
<clipPath id="clip0_119_36">
<rect width="57.4757" height="57.4757" fill="white" transform="translate(202.597 41) rotate(21)"/>
</clipPath>
</defs>
</svg>
